<?xml version="1.0" ?>
<!-- Uploaded to: SVG Repo, www.svgrepo.com, Generator: SVG Repo Mixer Tools -->
<svg fill="#000000" width="800px" height="800px" viewBox="0 0 64 64" xmlns="http://www.w3.org/2000/svg">
<g id="emojies">
<circle cx="33" cy="33" r="1"/>
<path d="M24,30a3,3,0,1,0,3-3A3.0033,3.0033,0,0,0,24,30Zm4,0a1,1,0,1,1-1-1A1.0009,1.0009,0,0,1,28,30Z"/>
<path d="M16,29A14,14,0,1,0,2,15,14.0158,14.0158,0,0,0,16,29ZM16,3A12,12,0,1,1,4,15,12.0134,12.0134,0,0,1,16,3Z"/>
<circle cx="9" cy="13" r="1"/>
<circle cx="22" cy="13" r="1"/>
<path d="M9.1494,18.5264a1.0006,1.0006,0,0,0,1.3765.3242,10.5533,10.5533,0,0,1,10.9482,0,1,1,0,1,0,1.0518-1.7012,12.5791,12.5791,0,0,0-13.0518,0A1.0008,1.0008,0,0,0,9.1494,18.5264Z"/>
<circle cx="10" cy="44" r="1"/>
<circle cx="23" cy="44" r="1"/>
<path d="M21.4741,46.44a10.5533,10.5533,0,0,1-10.9482,0,1,1,0,1,0-1.0518,1.7011,12.3816,12.3816,0,0,0,13.0518,0A1,1,0,1,0,21.4741,46.44Z"/>
<path d="M56.5,34a3.5425,3.5425,0,0,0-1.5153.3489,3.4872,3.4872,0,0,0-5.974-2.3036A3.5089,3.5089,0,0,0,45,31.3425V28.84A13.9914,13.9914,0,1,0,33,15a13.9559,13.9559,0,0,0,5,10.7153V43.251c-1.0439-1.2442-2.3535-2.8047-3.3589-3.999a3.779,3.779,0,0,0-5.3081-.4258,3.665,3.665,0,0,0-.81.9524A13.97,13.97,0,1,0,30,46c0-.0956-.0125-.188-.0143-.2832l8.1554,12.1455A9.3526,9.3526,0,0,0,45.9214,62h8.2842A5.8012,5.8012,0,0,0,60,56.2061V37.3975A3.4541,3.4541,0,0,0,56.5,34ZM16,58A12,12,0,1,1,28,46,12.0134,12.0134,0,0,1,16,58ZM54,12a1,1,0,1,1-1,1A1,1,0,0,1,54,12Zm-1.5259,3.44a1,1,0,1,1,1.0518,1.7011,12.3816,12.3816,0,0,1-13.0518,0A1,1,0,1,1,41.5259,15.44,10.5533,10.5533,0,0,0,52.4741,15.44ZM41,12a1,1,0,1,1-1,1A1,1,0,0,1,41,12ZM58,56.2061A3.7985,3.7985,0,0,1,54.2056,60H45.9214a7.3548,7.3548,0,0,1-6.12-3.2529L30.2832,42.5723a1.6706,1.6706,0,0,1,.3726-2.2452,1.7586,1.7586,0,0,1,2.455.212c1.9746,2.3466,5.1226,6.1035,5.1226,6.1035A1,1,0,0,0,40,46V23.5a1.5,1.5,0,0,1,3,0V42a1,1,0,0,0,2,0V34.415a1.5026,1.5026,0,0,1,3,0V42a1,1,0,0,0,2,0V34.5a1.5,1.5,0,0,1,3,0v8.1152a1,1,0,0,0,2,0V37.3975a1.5038,1.5038,0,0,1,3,0Z"/>
</g>
</svg>