<svg xmlns="http://www.w3.org/2000/svg" xmlns:xlink="http://www.w3.org/1999/xlink" width="1467" zoomAndPan="magnify" viewBox="0 0 1100.25 462.749982" height="617" preserveAspectRatio="xMidYMid meet" version="1.2"><defs><filter x="0%" y="0%" width="100%" filterUnits="objectBoundingBox" id="eab6354e8d" height="100%"><feColorMatrix values="0 0 0 0 1 0 0 0 0 1 0 0 0 0 1 0 0 0 1 0" type="matrix" in="SourceGraphic"/></filter><clipPath id="d161867725"><rect x="0" width="325" y="0" height="325"/></clipPath><clipPath id="16e6de2c81"><rect x="0" width="816" y="0" height="147"/></clipPath></defs><g id="8286b8ed6a"><g mask="url(#1b370be44f)" transform="matrix(1,0,0,1,387,69)"><g clip-path="url(#d161867725)"><path style="fill:none;stroke-width:3;stroke-linecap:round;stroke-linejoin:round;stroke:#ff00ff;stroke-opacity:1;stroke-miterlimit:4;" d="M 7.000016 14.000098 C 6.945581 14.000098 6.891435 14.001546 6.837 14.004731 C 6.782855 14.007627 6.728709 14.012259 6.674563 14.01805 C 6.620417 14.024131 6.566851 14.031659 6.512995 14.040635 C 6.459428 14.049322 6.406151 14.059745 6.353164 14.071617 C 6.299887 14.083489 6.247189 14.096518 6.19478 14.111285 C 6.142661 14.126052 6.090543 14.141977 6.039292 14.15964 C 5.987753 14.177013 5.936792 14.195834 5.88641 14.216102 C 5.835739 14.23637 5.785937 14.258087 5.736714 14.280961 C 5.68749 14.304125 5.638846 14.328158 5.590781 14.353927 C 5.543005 14.379408 5.495809 14.406336 5.449191 14.434712 C 5.402863 14.462798 5.357115 14.492332 5.312235 14.522735 C 5.267355 14.553427 5.223343 14.585277 5.1802 14.618575 C 5.137057 14.651584 5.094783 14.685751 5.053378 14.721076 C 5.012262 14.756401 4.971725 14.792884 4.932636 14.830525 C 4.893257 14.867877 4.855037 14.906677 4.817685 14.946055 C 4.780622 14.985724 4.744429 15.02626 4.709393 15.067955 C 4.674358 15.109651 4.640481 15.152214 4.607762 15.195647 C 4.575043 15.239079 4.543771 15.28309 4.513369 15.32826 C 4.482966 15.37343 4.454011 15.419468 4.426214 15.466085 C 4.398418 15.512992 4.371779 15.560189 4.346588 15.608544 C 4.321398 15.656609 4.297655 15.705543 4.27507 15.755055 C 4.252485 15.804279 4.231348 15.854371 4.211369 15.905042 C 4.19168 15.955713 4.173148 16.006674 4.156065 16.058503 C 4.138982 16.110043 4.123346 16.162162 4.109158 16.21457 C 4.09497 16.266978 4.08223 16.319676 4.070648 16.372953 C 4.059356 16.42623 4.049511 16.479507 4.041114 16.533363 C 4.032428 16.58693 4.025478 16.640786 4.019977 16.694932 C 4.014476 16.749078 4.010422 16.803223 4.007816 16.857369 C 4.00521 16.911804 4.004052 16.966239 4.004631 17.020385 C 4.00492 17.07482 4.006658 17.129256 4.010132 17.183401 C 4.013317 17.237547 4.01824 17.291693 4.02432 17.345838 C 4.03069 17.399694 4.038508 17.453551 4.047774 17.507117 C 4.05675 17.560684 4.067463 17.613961 4.079624 17.666948 C 4.091785 17.719936 4.105104 17.772634 4.120161 17.825042 C 4.134928 17.877161 4.151432 17.92899 4.169095 17.98053 C 4.187047 18.03178 4.206157 18.082741 4.226715 18.133122 C 4.247273 18.183214 4.268989 18.233017 4.292153 18.28224 C 4.315607 18.331463 4.340218 18.379818 4.365988 18.427594 C 4.391758 18.475369 4.418976 18.522566 4.447351 18.568894 C 4.475727 18.615222 4.505551 18.660681 4.536533 18.705561 C 4.567225 18.750151 4.599365 18.794163 4.632663 18.837016 C 4.665961 18.879869 4.700417 18.922144 4.736032 18.96326 C 4.771646 19.004376 4.80813 19.044333 4.846061 19.083422 C 4.883702 19.122512 4.922502 19.160732 4.962459 19.197794 C 5.002128 19.234567 5.042954 19.270471 5.084649 19.305217 C 5.126634 19.340253 5.169197 19.37384 5.212919 19.40627 C 5.256352 19.438699 5.300942 19.469971 5.346112 19.500084 C 5.391571 19.530197 5.437609 19.558862 5.484516 19.586369 C 5.531423 19.613876 5.578909 19.640225 5.627264 19.665127 C 5.675329 19.690028 5.724263 19.713771 5.774065 19.736066 C 5.823578 19.758361 5.87367 19.779209 5.924341 19.798898 C 5.975013 19.818298 6.026263 19.83654 6.078092 19.853334 C 6.129632 19.870127 6.181751 19.885473 6.234449 19.899372 C 6.286857 19.91356 6.339844 19.92601 6.393121 19.937013 C 6.446398 19.948016 6.499675 19.957861 6.553532 19.965968 C 6.607388 19.974075 6.661244 19.980735 6.71539 19.985947 C 6.769535 19.991159 6.823681 19.994923 6.877827 19.997239 C 6.932262 19.999556 6.986697 20.000424 7.040843 19.999845 C 7.095278 19.998977 7.149713 19.99695 7.203859 19.993475 C 7.258005 19.989711 7.31215 19.984789 7.366296 19.978129 C 7.420152 19.97147 7.474008 19.963652 7.527285 19.954097 C 7.580852 19.944541 7.634129 19.933539 7.687116 19.921378 C 7.740104 19.908927 7.792512 19.895029 7.844921 19.879972 C 7.897039 19.864626 7.948579 19.848122 8.000119 19.82988 " transform="matrix(13.490803,0,0,13.490803,0.833688,0.16649)"/><path style="fill:none;stroke-width:3;stroke-linecap:round;stroke-linejoin:round;stroke:#ff00ff;stroke-opacity:1;stroke-miterlimit:4;" d="M 4.264067 15.605069 C 4.189653 15.569165 4.116397 15.530944 4.044299 15.490697 C 3.972201 15.45016 3.901262 15.407597 3.83177 15.363006 C 3.762568 15.318126 3.694524 15.271219 3.627927 15.222285 C 3.561331 15.173351 3.496472 15.122391 3.433061 15.069403 C 3.36965 15.016416 3.307976 14.961401 3.248039 14.90465 C 3.188102 14.847898 3.129903 14.78912 3.073441 14.728604 C 3.017268 14.668378 2.962833 14.606125 2.910135 14.542424 C 2.857727 14.478723 2.807345 14.413285 2.758991 14.346399 C 2.710346 14.279224 2.664019 14.21089 2.620007 14.141109 C 2.575706 14.071327 2.533721 14.000388 2.493764 13.928001 C 2.454095 13.855613 2.416454 13.781778 2.381419 13.707075 C 2.346094 13.632371 2.313085 13.556799 2.282682 13.480068 C 2.25199 13.403048 2.223904 13.325449 2.198134 13.246981 C 2.172364 13.168513 2.1492 13.089177 2.128353 13.009261 C 2.107505 12.929346 2.089264 12.848851 2.073338 12.767777 C 2.057413 12.686704 2.044094 12.605051 2.033381 12.523108 C 2.022667 12.441456 2.01427 12.359224 2.008769 12.276702 C 2.002978 12.194181 1.999793 12.111659 1.999214 12.029138 C 1.998635 11.946616 2.000662 11.864095 2.005005 11.781573 C 2.009638 11.699052 2.016876 11.61682 2.026431 11.534588 C 2.035986 11.452645 2.048148 11.370993 2.062915 11.289629 C 2.077682 11.208266 2.094765 11.127482 2.114454 11.047277 C 2.134144 10.967072 2.156439 10.887445 2.181051 10.808688 C 2.205662 10.729641 2.23259 10.651753 2.262124 10.574443 C 2.291658 10.497423 2.323509 10.420982 2.357676 10.345989 C 2.391842 10.270706 2.428326 10.196581 2.467125 10.123615 C 2.505925 10.050649 2.546751 9.97884 2.589894 9.90848 C 2.633326 9.83812 2.678496 9.769207 2.725982 9.701452 C 2.773468 9.633987 2.822981 9.56797 2.87481 9.503401 C 2.92635 9.438831 2.979917 9.375999 3.03522 9.314615 C 3.090814 9.25352 3.148145 9.193873 3.207213 9.136253 C 3.26657 9.078632 3.327376 9.022749 3.389918 8.968893 M 3.420031 8.888109 C 3.379494 8.827304 3.341563 8.764761 3.306528 8.700771 C 3.271203 8.63678 3.239063 8.571053 3.209529 8.504167 C 3.180285 8.437281 3.153936 8.369237 3.130482 8.300035 C 3.107029 8.230832 3.08676 8.160762 3.069387 8.089822 C 3.052014 8.018883 3.038116 7.947074 3.027113 7.874977 C 3.01611 7.802589 3.008292 7.730202 3.00366 7.657236 C 2.999027 7.584269 2.997579 7.511303 2.999316 7.438337 C 3.001054 7.365081 3.005976 7.292404 3.014083 7.219727 C 3.02248 7.14705 3.033773 7.074952 3.04825 7.003434 C 3.062728 6.931626 3.08039 6.860976 3.100948 6.790905 C 3.121796 6.720834 3.145249 6.651632 3.172177 6.583588 C 3.198816 6.515833 3.228639 6.448947 3.261069 6.383509 C 3.293788 6.318361 3.329113 6.25437 3.367333 6.192117 C 3.405554 6.129864 3.44638 6.069348 3.489813 6.01057 C 3.533534 5.951791 3.579283 5.89504 3.627927 5.840605 C 3.676282 5.78588 3.727243 5.733471 3.78023 5.68309 C 3.833218 5.632998 3.888522 5.585222 3.945563 5.539763 C 4.002894 5.494304 4.061962 5.451451 4.123056 5.411203 C 4.184151 5.371246 4.246694 5.333604 4.310974 5.298858 C 4.375254 5.264402 4.440981 5.232551 4.508157 5.203597 C 4.575332 5.174642 4.643376 5.148582 4.712868 5.125708 C 4.78236 5.102544 4.852431 5.082855 4.92366 5.066061 C 4.994599 5.049267 5.066407 5.035369 5.138795 5.024945 C 5.210892 5.014521 5.283569 5.006993 5.356536 5.002939 C 5.429502 4.998885 5.502468 4.997727 5.575724 5.000044 C 5.648691 5.00236 5.721367 5.007861 5.794044 5.016548 C 5.866432 5.024945 5.938529 5.036816 6.010048 5.051873 C 6.081567 5.06664 6.152506 5.084881 6.222287 5.106019 C 6.292358 5.127156 6.361271 5.151188 6.429026 5.178406 C 6.49678 5.205623 6.563376 5.235737 6.628525 5.268745 C 6.693673 5.301754 6.757374 5.337658 6.819338 5.376168 C 6.881301 5.414967 6.941527 5.456083 7.000016 5.500095 M 7.238026 5.564954 C 7.198357 5.480406 7.163322 5.39412 7.133209 5.305807 C 7.103096 5.217205 7.078195 5.127445 7.058216 5.036237 C 7.038237 4.945029 7.02318 4.853242 7.013625 4.760297 C 7.00378 4.667352 6.999437 4.574406 7.000016 4.480882 C 7.000885 4.387647 7.006676 4.294702 7.017968 4.201757 C 7.028971 4.109101 7.045186 4.017314 7.066613 3.926685 C 7.088329 3.835767 7.114678 3.746296 7.145949 3.658273 C 7.17751 3.57054 7.213704 3.484544 7.25482 3.400864 C 7.295936 3.316895 7.341395 3.235531 7.391776 3.156774 C 7.441868 3.078017 7.496304 3.002444 7.554792 2.929767 C 7.613571 2.857091 7.676114 2.788178 7.74242 2.72245 C 7.809017 2.656723 7.878798 2.595049 7.952054 2.537139 C 8.02531 2.479519 8.101751 2.425952 8.181087 2.376729 C 8.260424 2.327505 8.342076 2.282625 8.426335 2.242667 C 8.510884 2.20242 8.597169 2.167385 8.685192 2.136982 C 8.773505 2.106579 8.863265 2.081099 8.954473 2.060541 C 9.045391 2.040273 9.137468 2.025216 9.230124 2.015082 C 9.323069 2.004948 9.416014 2.000025 9.509538 2.000315 C 9.602773 2.000894 9.696008 2.006395 9.788664 2.017109 C 9.881319 2.027822 9.973107 2.043747 10.064315 2.064884 C 10.155233 2.086021 10.244704 2.112081 10.332727 2.143063 C 10.420749 2.174334 10.506746 2.210238 10.590715 2.250775 C 10.674684 2.291601 10.756337 2.33706 10.835094 2.386863 C 10.914141 2.436665 10.990003 2.490811 11.062969 2.54901 C 11.135646 2.607499 11.205138 2.669752 11.270866 2.73577 C 11.336883 2.802076 11.398846 2.871568 11.457046 2.944824 C 11.514956 3.01779 11.568812 3.093942 11.618614 3.172989 C 11.668127 3.252036 11.713007 3.333688 11.753544 3.417947 C 11.793791 3.501916 11.829406 3.588202 11.860388 3.676225 C 11.89108 3.764538 11.91685 3.854008 11.937408 3.945216 C 11.958255 4.036135 11.973891 4.127922 11.984315 4.220867 C 11.994738 4.313523 11.99995 4.406757 11.99995 4.499992 L 11.99995 20.000135 M 8.000119 20.000135 C 8.000119 20.065573 8.003304 20.130722 8.009674 20.19616 C 8.016044 20.261308 8.025599 20.325878 8.038339 20.390158 C 8.05108 20.454437 8.067005 20.517849 8.086115 20.580681 C 8.105225 20.643223 8.127231 20.704897 8.152132 20.765413 C 8.177323 20.825929 8.205409 20.884997 8.236101 20.942907 C 8.267083 21.000527 8.300671 21.0567 8.337154 21.111135 C 8.373348 21.16557 8.412437 21.218268 8.453842 21.26865 C 8.495537 21.319321 8.539549 21.367965 8.585877 21.414293 C 8.632205 21.460621 8.680559 21.504343 8.73123 21.546038 C 8.781902 21.587443 8.83431 21.626532 8.888745 21.663015 C 8.94318 21.699209 8.999353 21.733086 9.057263 21.763779 C 9.114883 21.79476 9.174241 21.822557 9.234756 21.847748 C 9.295272 21.872939 9.356657 21.894944 9.419489 21.913765 C 9.482031 21.932875 9.545443 21.9488 9.609722 21.961541 C 9.674002 21.974281 9.738861 21.983836 9.80401 21.990495 C 9.869158 21.996866 9.934597 22.000051 10.000035 22.000051 C 10.065473 22.000051 10.130911 21.996866 10.196059 21.990495 C 10.261208 21.983836 10.326067 21.974281 10.390057 21.961541 C 10.454337 21.9488 10.517748 21.932875 10.580581 21.913765 C 10.643123 21.894944 10.704797 21.872939 10.765313 21.847748 C 10.825829 21.822557 10.884897 21.79476 10.942806 21.763779 C 11.000427 21.733086 11.056599 21.699209 11.111035 21.663015 C 11.16547 21.626532 11.218168 21.587443 11.268839 21.546038 C 11.31951 21.504343 11.367865 21.460621 11.414192 21.414293 C 11.46052 21.367965 11.504532 21.319321 11.545937 21.26865 C 11.587632 21.218268 11.626432 21.16557 11.662915 21.111135 C 11.699398 21.0567 11.732986 21.000527 11.763968 20.942907 C 11.79466 20.884997 11.822746 20.825929 11.847647 20.765413 C 11.872838 20.704897 11.894844 20.643223 11.913954 20.580681 C 11.932775 20.517849 11.9487 20.454437 11.96144 20.390158 C 11.97447 20.325878 11.984025 20.261308 11.990395 20.19616 C 11.996765 20.130722 11.99995 20.065573 11.99995 20.000135 M 11.99995 6.999959 C 11.99995 7.098116 12.004873 7.196274 12.014428 7.294141 C 12.023983 7.391719 12.03846 7.489008 12.057571 7.585138 C 12.076681 7.681558 12.100713 7.776819 12.129089 7.870923 C 12.157755 7.964737 12.190763 8.057393 12.228405 8.148021 C 12.266046 8.23894 12.308031 8.327542 12.354358 8.414117 C 12.400686 8.500982 12.451068 8.584951 12.505503 8.666604 C 12.560228 8.748546 12.618717 8.827304 12.68097 8.903165 C 12.743223 8.979027 12.80924 9.051704 12.878732 9.121196 C 12.948224 9.190688 13.0209 9.256705 13.096762 9.318958 C 13.172914 9.381501 13.251671 9.4397 13.333324 9.494425 C 13.414977 9.54886 13.499236 9.599531 13.585811 9.645859 C 13.672386 9.692187 13.761277 9.734171 13.851906 9.771523 C 13.942825 9.809165 14.035191 9.842173 14.129005 9.870839 C 14.223108 9.899214 14.31837 9.923247 14.41479 9.942357 C 14.51121 9.961467 14.608209 9.975945 14.706076 9.9855 C 14.803654 9.995055 14.901811 9.999977 14.999969 9.999977 M 20.609982 8.968893 C 20.718853 9.062417 20.822222 9.161443 20.920379 9.26626 C 21.018536 9.370787 21.110902 9.480526 21.197188 9.595188 C 21.283474 9.709849 21.363389 9.828564 21.436935 9.951912 C 21.51048 10.074971 21.577076 10.201793 21.636724 10.33238 C 21.69666 10.462677 21.749358 10.59587 21.794817 10.731958 C 21.839987 10.868046 21.878208 11.00645 21.90861 11.146592 C 21.939013 11.286734 21.962177 11.428034 21.977233 11.570781 C 21.992579 11.713529 22.000108 11.856566 22.000108 11.999893 C 22.000108 12.702918 21.81914 13.363959 21.500056 13.938135 M 20.579869 8.888109 C 20.620696 8.827304 20.658337 8.764761 20.693662 8.700771 C 20.728698 8.63678 20.760838 8.571053 20.790372 8.504167 C 20.819616 8.437281 20.846255 8.369237 20.869708 8.300035 C 20.892872 8.230832 20.91343 8.160762 20.930513 8.089822 C 20.947886 8.018883 20.962074 7.947074 20.973077 7.874977 C 20.98408 7.802589 20.991898 7.730202 20.996531 7.657236 C 21.001163 7.584269 21.002321 7.511303 21.000584 7.438337 C 20.998847 7.365081 20.993925 7.292404 20.985817 7.219727 C 20.97771 7.14705 20.966417 7.074952 20.95194 7.003434 C 20.937462 6.931626 20.9198 6.860976 20.898952 6.790905 C 20.878394 6.720834 20.854651 6.651632 20.828013 6.583588 C 20.801085 6.515833 20.771551 6.448947 20.738832 6.383509 C 20.706113 6.318361 20.670788 6.25437 20.632567 6.192117 C 20.594347 6.129864 20.55352 6.069348 20.510088 6.01057 C 20.466656 5.951791 20.420617 5.89504 20.372263 5.840605 C 20.323618 5.78588 20.272947 5.733471 20.21996 5.68309 C 20.166683 5.632998 20.111668 5.585222 20.054338 5.539763 C 19.997007 5.494304 19.937939 5.451451 19.876844 5.411203 C 19.815749 5.371246 19.753207 5.333604 19.688927 5.298858 C 19.624647 5.264402 19.558919 5.232551 19.491744 5.203597 C 19.424858 5.174642 19.356524 5.148582 19.287033 5.125708 C 19.21783 5.102544 19.14747 5.082855 19.07653 5.066061 C 19.005301 5.049267 18.933493 5.035369 18.861395 5.024945 C 18.789008 5.014521 18.716331 5.006993 18.643365 5.002939 C 18.570399 4.998885 18.497432 4.997727 18.424466 5.000044 C 18.351499 5.00236 18.278533 5.007861 18.206146 5.016548 C 18.133469 5.024945 18.061371 5.036816 17.989853 5.051873 C 17.918334 5.06664 17.847684 5.084881 17.777613 5.106019 C 17.707832 5.127156 17.638919 5.151188 17.571165 5.178406 C 17.503121 5.205623 17.436814 5.235737 17.371665 5.268745 C 17.306227 5.301754 17.242816 5.337658 17.180563 5.376168 C 17.118599 5.414967 17.058373 5.456083 16.999884 5.500095 M 11.99995 4.499992 C 11.99995 4.406757 12.005162 4.313523 12.015586 4.220867 C 12.02601 4.127922 12.041645 4.036135 12.062493 3.945216 C 12.08334 3.854008 12.108821 3.764538 12.139802 3.676225 C 12.170495 3.588202 12.206109 3.501916 12.246646 3.417947 C 12.286893 3.333688 12.332063 3.252036 12.381576 3.172989 C 12.431089 3.093942 12.484945 3.01779 12.543144 2.944824 C 12.601054 2.871568 12.663018 2.802076 12.729035 2.73577 C 12.795052 2.669752 12.864254 2.607499 12.937221 2.54901 C 13.009898 2.490811 13.086049 2.436665 13.164806 2.386863 C 13.243853 2.33706 13.325217 2.291601 13.409186 2.250775 C 13.493155 2.210238 13.579441 2.174334 13.667464 2.143063 C 13.755486 2.112081 13.844957 2.086021 13.935876 2.064884 C 14.026794 2.043747 14.118581 2.027822 14.211237 2.017109 C 14.304182 2.006395 14.397127 2.000894 14.490362 2.000315 C 14.583886 2.000025 14.676832 2.004948 14.769777 2.015082 C 14.862433 2.025216 14.954509 2.040273 15.045717 2.060541 C 15.136636 2.081099 15.226396 2.106579 15.314708 2.136982 C 15.403021 2.167385 15.489307 2.20242 15.573565 2.242667 C 15.657824 2.282625 15.739767 2.327505 15.819103 2.376729 C 15.898439 2.425952 15.974591 2.479519 16.047847 2.537139 C 16.121103 2.595049 16.191174 2.656723 16.25748 2.72245 C 16.323787 2.788178 16.38633 2.857091 16.445108 2.929767 C 16.503597 3.002444 16.558032 3.078017 16.608414 3.156774 C 16.658506 3.235531 16.703965 3.316895 16.745081 3.400864 C 16.786197 3.484544 16.822391 3.57054 16.853951 3.658273 C 16.885512 3.746296 16.911861 3.835767 16.933288 3.926685 C 16.954715 4.017314 16.970929 4.109101 16.982222 4.201757 C 16.993225 4.294702 16.999305 4.387647 16.999884 4.480882 C 17.000753 4.574406 16.99612 4.667352 16.986565 4.760297 C 16.97672 4.853242 16.961953 4.945029 16.941974 5.036237 C 16.921996 5.127445 16.896805 5.217205 16.866692 5.305807 C 16.836579 5.39412 16.801833 5.480406 16.761875 5.564954 M 13.999866 22.000051 C 13.934428 22.000051 13.869279 21.996866 13.803841 21.990495 C 13.738693 21.983836 13.674123 21.974281 13.609843 21.961541 C 13.545563 21.9488 13.482152 21.932875 13.41932 21.913765 C 13.356777 21.894944 13.295103 21.872939 13.234588 21.847748 C 13.174072 21.822557 13.115004 21.79476 13.057094 21.763779 C 12.999474 21.733086 12.943301 21.699209 12.888866 21.663015 C 12.834431 21.626532 12.781733 21.587443 12.731351 21.546038 C 12.68068 21.504343 12.632036 21.460621 12.585708 21.414293 C 12.53938 21.367965 12.495658 21.319321 12.453963 21.26865 C 12.412558 21.218268 12.373469 21.16557 12.336985 21.111135 C 12.300792 21.0567 12.266915 21.000527 12.236222 20.942907 C 12.205241 20.884997 12.177444 20.825929 12.152253 20.765413 C 12.127062 20.704897 12.105057 20.643223 12.086236 20.580681 C 12.067126 20.517849 12.0512 20.454437 12.03846 20.390158 C 12.02572 20.325878 12.016165 20.261308 12.009505 20.19616 C 12.003135 20.130722 11.99995 20.065573 11.99995 20.000135 M 18.667108 16.000014 L 16.999884 19.000032 L 21.000005 19.000032 L 19.333071 22.000051 " transform="matrix(13.490803,0,0,13.490803,0.833688,0.16649)"/></g><mask id="1b370be44f"><g filter="url(#eab6354e8d)"><rect x="0" width="1100.25" y="0" height="462.749982" style="fill:#000000;fill-opacity:0.15;stroke:none;"/></g></mask></g><g transform="matrix(1,0,0,1,144,157)"><g clip-path="url(#16e6de2c81)"><g style="fill:#ff00ff;fill-opacity:1;"><g transform="translate(-2.77092, 129.122003)"><path style="stroke:none" d="M 70.765625 0 L 15.1875 0 C 13.351562 0 12.023438 -0.40625 11.203125 -1.21875 C 10.390625 -2.039062 9.984375 -3.367188 9.984375 -5.203125 L 9.984375 -98.984375 C 9.984375 -100.804688 10.390625 -102.128906 11.203125 -102.953125 C 12.023438 -103.773438 13.351562 -104.1875 15.1875 -104.1875 L 61.359375 -104.1875 C 70.804688 -104.1875 77.796875 -102.375 82.328125 -98.75 C 86.867188 -95.132812 89.140625 -89.566406 89.140625 -82.046875 L 89.140625 -75.09375 C 89.140625 -71.039062 88.4375 -67.738281 87.03125 -65.1875 C 85.632812 -62.632812 83.488281 -60.726562 80.59375 -59.46875 C 86.769531 -58.894531 91.351562 -56.773438 94.34375 -53.109375 C 97.332031 -49.441406 98.828125 -44.085938 98.828125 -37.046875 L 98.828125 -23.734375 C 98.828125 -15.628906 96.535156 -9.644531 91.953125 -5.78125 C 87.367188 -1.925781 80.304688 0 70.765625 0 Z M 42.546875 -79.59375 L 42.546875 -63.953125 L 54.84375 -63.953125 C 56.675781 -63.953125 58.050781 -64.4375 58.96875 -65.40625 C 59.882812 -66.375 60.34375 -67.820312 60.34375 -69.75 L 60.34375 -73.796875 C 60.34375 -75.722656 59.882812 -77.171875 58.96875 -78.140625 C 58.050781 -79.109375 56.675781 -79.59375 54.84375 -79.59375 Z M 42.546875 -41.671875 L 42.546875 -24.59375 L 61.359375 -24.59375 C 63.191406 -24.59375 64.566406 -25.078125 65.484375 -26.046875 C 66.398438 -27.015625 66.859375 -28.460938 66.859375 -30.390625 L 66.859375 -36.03125 C 66.859375 -37.957031 66.398438 -39.378906 65.484375 -40.296875 C 64.566406 -41.210938 63.191406 -41.671875 61.359375 -41.671875 Z M 42.546875 -41.671875 "/></g></g><g style="fill:#ff00ff;fill-opacity:1;"><g transform="translate(102.134194, 129.122003)"><path style="stroke:none" d="M 12.875 0 C 11.039062 0 9.710938 -0.40625 8.890625 -1.21875 C 8.078125 -2.039062 7.671875 -3.367188 7.671875 -5.203125 L 7.671875 -22.421875 C 7.671875 -24.253906 8.078125 -25.582031 8.890625 -26.40625 C 9.710938 -27.226562 11.039062 -27.640625 12.875 -27.640625 L 27.203125 -27.640625 L 27.203125 -76.265625 L 12.875 -76.265625 C 11.039062 -76.265625 9.710938 -76.671875 8.890625 -77.484375 C 8.078125 -78.304688 7.671875 -79.632812 7.671875 -81.46875 L 7.671875 -98.984375 C 7.671875 -100.804688 8.078125 -102.128906 8.890625 -102.953125 C 9.710938 -103.773438 11.039062 -104.1875 12.875 -104.1875 L 74.515625 -104.1875 C 76.347656 -104.1875 77.675781 -103.773438 78.5 -102.953125 C 79.320312 -102.128906 79.734375 -100.804688 79.734375 -98.984375 L 79.734375 -81.46875 C 79.734375 -79.632812 79.320312 -78.304688 78.5 -77.484375 C 77.675781 -76.671875 76.347656 -76.265625 74.515625 -76.265625 L 60.484375 -76.265625 L 60.484375 -27.640625 L 74.515625 -27.640625 C 76.347656 -27.640625 77.675781 -27.226562 78.5 -26.40625 C 79.320312 -25.582031 79.734375 -24.253906 79.734375 -22.421875 L 79.734375 -5.203125 C 79.734375 -3.367188 79.320312 -2.039062 78.5 -1.21875 C 77.675781 -0.40625 76.347656 0 74.515625 0 Z M 12.875 0 "/></g></g><g style="fill:#ff00ff;fill-opacity:1;"><g transform="translate(189.675697, 129.122003)"><path style="stroke:none" d="M 89.578125 0 L 43.984375 0 C 31.929688 0 22.984375 -2.410156 17.140625 -7.234375 C 11.304688 -12.054688 8.390625 -19.484375 8.390625 -29.515625 L 8.390625 -74.671875 C 8.390625 -84.703125 11.304688 -92.128906 17.140625 -96.953125 C 22.984375 -101.773438 31.929688 -104.1875 43.984375 -104.1875 L 80.171875 -104.1875 C 82.003906 -104.1875 83.328125 -103.773438 84.140625 -102.953125 C 84.960938 -102.128906 85.375 -100.804688 85.375 -98.984375 L 85.375 -81.46875 C 85.375 -79.632812 84.960938 -78.304688 84.140625 -77.484375 C 83.328125 -76.671875 82.003906 -76.265625 80.171875 -76.265625 L 50.0625 -76.265625 C 47.070312 -76.265625 44.851562 -75.660156 43.40625 -74.453125 C 41.957031 -73.242188 41.234375 -71.429688 41.234375 -69.015625 L 41.234375 -34.4375 C 41.234375 -32.03125 41.785156 -30.242188 42.890625 -29.078125 C 44.003906 -27.921875 45.671875 -27.34375 47.890625 -27.34375 L 61.9375 -27.34375 L 61.9375 -49.921875 C 61.9375 -51.753906 62.34375 -53.078125 63.15625 -53.890625 C 63.976562 -54.710938 65.304688 -55.125 67.140625 -55.125 L 89.578125 -55.125 C 91.410156 -55.125 92.734375 -54.710938 93.546875 -53.890625 C 94.367188 -53.078125 94.78125 -51.753906 94.78125 -49.921875 L 94.78125 -5.203125 C 94.78125 -3.367188 94.367188 -2.039062 93.546875 -1.21875 C 92.734375 -0.40625 91.410156 0 89.578125 0 Z M 89.578125 0 "/></g></g><g style="fill:#ff00ff;fill-opacity:1;"><g transform="translate(292.120959, 129.122003)"><path style="stroke:none" d="M 70.765625 0 L 15.1875 0 C 13.351562 0 12.023438 -0.40625 11.203125 -1.21875 C 10.390625 -2.039062 9.984375 -3.367188 9.984375 -5.203125 L 9.984375 -98.984375 C 9.984375 -100.804688 10.390625 -102.128906 11.203125 -102.953125 C 12.023438 -103.773438 13.351562 -104.1875 15.1875 -104.1875 L 61.359375 -104.1875 C 70.804688 -104.1875 77.796875 -102.375 82.328125 -98.75 C 86.867188 -95.132812 89.140625 -89.566406 89.140625 -82.046875 L 89.140625 -75.09375 C 89.140625 -71.039062 88.4375 -67.738281 87.03125 -65.1875 C 85.632812 -62.632812 83.488281 -60.726562 80.59375 -59.46875 C 86.769531 -58.894531 91.351562 -56.773438 94.34375 -53.109375 C 97.332031 -49.441406 98.828125 -44.085938 98.828125 -37.046875 L 98.828125 -23.734375 C 98.828125 -15.628906 96.535156 -9.644531 91.953125 -5.78125 C 87.367188 -1.925781 80.304688 0 70.765625 0 Z M 42.546875 -79.59375 L 42.546875 -63.953125 L 54.84375 -63.953125 C 56.675781 -63.953125 58.050781 -64.4375 58.96875 -65.40625 C 59.882812 -66.375 60.34375 -67.820312 60.34375 -69.75 L 60.34375 -73.796875 C 60.34375 -75.722656 59.882812 -77.171875 58.96875 -78.140625 C 58.050781 -79.109375 56.675781 -79.59375 54.84375 -79.59375 Z M 42.546875 -41.671875 L 42.546875 -24.59375 L 61.359375 -24.59375 C 63.191406 -24.59375 64.566406 -25.078125 65.484375 -26.046875 C 66.398438 -27.015625 66.859375 -28.460938 66.859375 -30.390625 L 66.859375 -36.03125 C 66.859375 -37.957031 66.398438 -39.378906 65.484375 -40.296875 C 64.566406 -41.210938 63.191406 -41.671875 61.359375 -41.671875 Z M 42.546875 -41.671875 "/></g></g><g style="fill:#ff00ff;fill-opacity:1;"><g transform="translate(397.026056, 129.122003)"><path style="stroke:none" d="M 42.6875 -78.140625 L 42.6875 -59.625 L 53.546875 -59.625 C 56.046875 -59.625 57.726562 -60.273438 58.59375 -61.578125 C 59.46875 -62.878906 59.90625 -64.492188 59.90625 -66.421875 L 59.90625 -71.34375 C 59.90625 -73.269531 59.46875 -74.882812 58.59375 -76.1875 C 57.726562 -77.488281 56.046875 -78.140625 53.546875 -78.140625 Z M 37.484375 0 L 15.1875 0 C 13.351562 0 12.023438 -0.40625 11.203125 -1.21875 C 10.390625 -2.039062 9.984375 -3.367188 9.984375 -5.203125 L 9.984375 -98.984375 C 9.984375 -100.804688 10.390625 -102.128906 11.203125 -102.953125 C 12.023438 -103.773438 13.351562 -104.1875 15.1875 -104.1875 L 63.375 -104.1875 C 74.1875 -104.1875 81.640625 -101.941406 85.734375 -97.453125 C 89.835938 -92.972656 91.890625 -87.160156 91.890625 -80.015625 L 91.890625 -73.359375 C 91.890625 -69.304688 91.285156 -65.859375 90.078125 -63.015625 C 88.867188 -60.171875 86.769531 -58.125 83.78125 -56.875 C 88.988281 -56.289062 93.207031 -54.164062 96.4375 -50.5 C 99.675781 -46.832031 101.296875 -41.960938 101.296875 -35.890625 L 101.296875 -5.203125 C 101.296875 -3.367188 100.882812 -2.039062 100.0625 -1.21875 C 99.238281 -0.40625 97.910156 0 96.078125 0 L 73.65625 0 C 71.820312 0 70.492188 -0.40625 69.671875 -1.21875 C 68.847656 -2.039062 68.4375 -3.367188 68.4375 -5.203125 L 68.4375 -27.34375 C 68.4375 -29.46875 68.023438 -31.035156 67.203125 -32.046875 C 66.390625 -33.066406 64.972656 -33.578125 62.953125 -33.578125 L 42.6875 -33.578125 L 42.6875 -5.203125 C 42.6875 -3.367188 42.273438 -2.039062 41.453125 -1.21875 C 40.640625 -0.40625 39.316406 0 37.484375 0 Z M 37.484375 0 "/></g></g><g style="fill:#ff00ff;fill-opacity:1;"><g transform="translate(504.535721, 129.122003)"><path style="stroke:none" d="M 47.75 -73.796875 L 40.953125 -51.796875 L 63.671875 -51.796875 L 56.875 -73.796875 C 56.488281 -74.660156 56.078125 -75.285156 55.640625 -75.671875 C 55.203125 -76.066406 54.695312 -76.265625 54.125 -76.265625 L 50.5 -76.265625 C 49.925781 -76.265625 49.421875 -76.066406 48.984375 -75.671875 C 48.546875 -75.285156 48.132812 -74.660156 47.75 -73.796875 Z M 39.5 -5.203125 C 39.5 -3.367188 39.085938 -2.039062 38.265625 -1.21875 C 37.453125 -0.40625 36.128906 0 34.296875 0 L 13.015625 0 C 11.191406 0 9.867188 -0.40625 9.046875 -1.21875 C 8.222656 -2.039062 7.8125 -3.367188 7.8125 -5.203125 L 7.8125 -43.40625 C 7.8125 -46.300781 8.269531 -49.628906 9.1875 -53.390625 C 10.101562 -57.148438 11.523438 -61.539062 13.453125 -66.5625 L 26.046875 -99.40625 C 26.628906 -101.050781 27.519531 -102.257812 28.71875 -103.03125 C 29.925781 -103.800781 31.492188 -104.1875 33.421875 -104.1875 L 72.359375 -104.1875 C 74.179688 -104.1875 75.695312 -103.800781 76.90625 -103.03125 C 78.113281 -102.257812 79.007812 -101.050781 79.59375 -99.40625 L 92.171875 -66.5625 C 94.097656 -61.539062 95.519531 -57.148438 96.4375 -53.390625 C 97.351562 -49.628906 97.8125 -46.300781 97.8125 -43.40625 L 97.8125 -5.203125 C 97.8125 -3.367188 97.398438 -2.039062 96.578125 -1.21875 C 95.765625 -0.40625 94.441406 0 92.609375 0 L 70.765625 0 C 68.828125 0 67.398438 -0.40625 66.484375 -1.21875 C 65.566406 -2.039062 65.109375 -3.367188 65.109375 -5.203125 L 65.109375 -25.46875 L 39.5 -25.46875 Z M 39.5 -5.203125 "/></g></g><g style="fill:#ff00ff;fill-opacity:1;"><g transform="translate(610.164318, 129.122003)"><path style="stroke:none" d="M 12.875 0 C 11.039062 0 9.710938 -0.40625 8.890625 -1.21875 C 8.078125 -2.039062 7.671875 -3.367188 7.671875 -5.203125 L 7.671875 -22.421875 C 7.671875 -24.253906 8.078125 -25.582031 8.890625 -26.40625 C 9.710938 -27.226562 11.039062 -27.640625 12.875 -27.640625 L 27.203125 -27.640625 L 27.203125 -76.265625 L 12.875 -76.265625 C 11.039062 -76.265625 9.710938 -76.671875 8.890625 -77.484375 C 8.078125 -78.304688 7.671875 -79.632812 7.671875 -81.46875 L 7.671875 -98.984375 C 7.671875 -100.804688 8.078125 -102.128906 8.890625 -102.953125 C 9.710938 -103.773438 11.039062 -104.1875 12.875 -104.1875 L 74.515625 -104.1875 C 76.347656 -104.1875 77.675781 -103.773438 78.5 -102.953125 C 79.320312 -102.128906 79.734375 -100.804688 79.734375 -98.984375 L 79.734375 -81.46875 C 79.734375 -79.632812 79.320312 -78.304688 78.5 -77.484375 C 77.675781 -76.671875 76.347656 -76.265625 74.515625 -76.265625 L 60.484375 -76.265625 L 60.484375 -27.640625 L 74.515625 -27.640625 C 76.347656 -27.640625 77.675781 -27.226562 78.5 -26.40625 C 79.320312 -25.582031 79.734375 -24.253906 79.734375 -22.421875 L 79.734375 -5.203125 C 79.734375 -3.367188 79.320312 -2.039062 78.5 -1.21875 C 77.675781 -0.40625 76.347656 0 74.515625 0 Z M 12.875 0 "/></g></g><g style="fill:#ff00ff;fill-opacity:1;"><g transform="translate(697.705838, 129.122003)"><path style="stroke:none" d="M 36.90625 0 L 15.1875 0 C 13.351562 0 12.023438 -0.40625 11.203125 -1.21875 C 10.390625 -2.039062 9.984375 -3.367188 9.984375 -5.203125 L 9.984375 -98.984375 C 9.984375 -100.804688 10.390625 -102.128906 11.203125 -102.953125 C 12.023438 -103.773438 13.351562 -104.1875 15.1875 -104.1875 L 30.25 -104.1875 C 32.082031 -104.1875 33.648438 -103.894531 34.953125 -103.3125 C 36.253906 -102.738281 37.53125 -101.726562 38.78125 -100.28125 L 66.859375 -68.15625 L 66.859375 -98.984375 C 66.859375 -100.804688 67.265625 -102.128906 68.078125 -102.953125 C 68.898438 -103.773438 70.226562 -104.1875 72.0625 -104.1875 L 93.765625 -104.1875 C 95.597656 -104.1875 96.925781 -103.773438 97.75 -102.953125 C 98.570312 -102.128906 98.984375 -100.804688 98.984375 -98.984375 L 98.984375 -5.203125 C 98.984375 -3.367188 98.570312 -2.039062 97.75 -1.21875 C 96.925781 -0.40625 95.597656 0 93.765625 0 L 72.0625 0 C 70.226562 0 68.898438 -0.40625 68.078125 -1.21875 C 67.265625 -2.039062 66.859375 -3.367188 66.859375 -5.203125 L 66.859375 -23 L 42.109375 -52.96875 L 42.109375 -5.203125 C 42.109375 -3.367188 41.695312 -2.039062 40.875 -1.21875 C 40.0625 -0.40625 38.738281 0 36.90625 0 Z M 36.90625 0 "/></g></g><g style="fill:#00ffff;fill-opacity:1;"><g transform="translate(4.76935, 122.090595)"><path style="stroke:none" d="M 70.765625 0 L 15.1875 0 C 13.351562 0 12.023438 -0.40625 11.203125 -1.21875 C 10.390625 -2.039062 9.984375 -3.367188 9.984375 -5.203125 L 9.984375 -98.984375 C 9.984375 -100.804688 10.390625 -102.128906 11.203125 -102.953125 C 12.023438 -103.773438 13.351562 -104.1875 15.1875 -104.1875 L 61.359375 -104.1875 C 70.804688 -104.1875 77.796875 -102.375 82.328125 -98.75 C 86.867188 -95.132812 89.140625 -89.566406 89.140625 -82.046875 L 89.140625 -75.09375 C 89.140625 -71.039062 88.4375 -67.738281 87.03125 -65.1875 C 85.632812 -62.632812 83.488281 -60.726562 80.59375 -59.46875 C 86.769531 -58.894531 91.351562 -56.773438 94.34375 -53.109375 C 97.332031 -49.441406 98.828125 -44.085938 98.828125 -37.046875 L 98.828125 -23.734375 C 98.828125 -15.628906 96.535156 -9.644531 91.953125 -5.78125 C 87.367188 -1.925781 80.304688 0 70.765625 0 Z M 42.546875 -79.59375 L 42.546875 -63.953125 L 54.84375 -63.953125 C 56.675781 -63.953125 58.050781 -64.4375 58.96875 -65.40625 C 59.882812 -66.375 60.34375 -67.820312 60.34375 -69.75 L 60.34375 -73.796875 C 60.34375 -75.722656 59.882812 -77.171875 58.96875 -78.140625 C 58.050781 -79.109375 56.675781 -79.59375 54.84375 -79.59375 Z M 42.546875 -41.671875 L 42.546875 -24.59375 L 61.359375 -24.59375 C 63.191406 -24.59375 64.566406 -25.078125 65.484375 -26.046875 C 66.398438 -27.015625 66.859375 -28.460938 66.859375 -30.390625 L 66.859375 -36.03125 C 66.859375 -37.957031 66.398438 -39.378906 65.484375 -40.296875 C 64.566406 -41.210938 63.191406 -41.671875 61.359375 -41.671875 Z M 42.546875 -41.671875 "/></g></g><g style="fill:#00ffff;fill-opacity:1;"><g transform="translate(109.674464, 122.090595)"><path style="stroke:none" d="M 12.875 0 C 11.039062 0 9.710938 -0.40625 8.890625 -1.21875 C 8.078125 -2.039062 7.671875 -3.367188 7.671875 -5.203125 L 7.671875 -22.421875 C 7.671875 -24.253906 8.078125 -25.582031 8.890625 -26.40625 C 9.710938 -27.226562 11.039062 -27.640625 12.875 -27.640625 L 27.203125 -27.640625 L 27.203125 -76.265625 L 12.875 -76.265625 C 11.039062 -76.265625 9.710938 -76.671875 8.890625 -77.484375 C 8.078125 -78.304688 7.671875 -79.632812 7.671875 -81.46875 L 7.671875 -98.984375 C 7.671875 -100.804688 8.078125 -102.128906 8.890625 -102.953125 C 9.710938 -103.773438 11.039062 -104.1875 12.875 -104.1875 L 74.515625 -104.1875 C 76.347656 -104.1875 77.675781 -103.773438 78.5 -102.953125 C 79.320312 -102.128906 79.734375 -100.804688 79.734375 -98.984375 L 79.734375 -81.46875 C 79.734375 -79.632812 79.320312 -78.304688 78.5 -77.484375 C 77.675781 -76.671875 76.347656 -76.265625 74.515625 -76.265625 L 60.484375 -76.265625 L 60.484375 -27.640625 L 74.515625 -27.640625 C 76.347656 -27.640625 77.675781 -27.226562 78.5 -26.40625 C 79.320312 -25.582031 79.734375 -24.253906 79.734375 -22.421875 L 79.734375 -5.203125 C 79.734375 -3.367188 79.320312 -2.039062 78.5 -1.21875 C 77.675781 -0.40625 76.347656 0 74.515625 0 Z M 12.875 0 "/></g></g><g style="fill:#00ffff;fill-opacity:1;"><g transform="translate(197.215967, 122.090595)"><path style="stroke:none" d="M 89.578125 0 L 43.984375 0 C 31.929688 0 22.984375 -2.410156 17.140625 -7.234375 C 11.304688 -12.054688 8.390625 -19.484375 8.390625 -29.515625 L 8.390625 -74.671875 C 8.390625 -84.703125 11.304688 -92.128906 17.140625 -96.953125 C 22.984375 -101.773438 31.929688 -104.1875 43.984375 -104.1875 L 80.171875 -104.1875 C 82.003906 -104.1875 83.328125 -103.773438 84.140625 -102.953125 C 84.960938 -102.128906 85.375 -100.804688 85.375 -98.984375 L 85.375 -81.46875 C 85.375 -79.632812 84.960938 -78.304688 84.140625 -77.484375 C 83.328125 -76.671875 82.003906 -76.265625 80.171875 -76.265625 L 50.0625 -76.265625 C 47.070312 -76.265625 44.851562 -75.660156 43.40625 -74.453125 C 41.957031 -73.242188 41.234375 -71.429688 41.234375 -69.015625 L 41.234375 -34.4375 C 41.234375 -32.03125 41.785156 -30.242188 42.890625 -29.078125 C 44.003906 -27.921875 45.671875 -27.34375 47.890625 -27.34375 L 61.9375 -27.34375 L 61.9375 -49.921875 C 61.9375 -51.753906 62.34375 -53.078125 63.15625 -53.890625 C 63.976562 -54.710938 65.304688 -55.125 67.140625 -55.125 L 89.578125 -55.125 C 91.410156 -55.125 92.734375 -54.710938 93.546875 -53.890625 C 94.367188 -53.078125 94.78125 -51.753906 94.78125 -49.921875 L 94.78125 -5.203125 C 94.78125 -3.367188 94.367188 -2.039062 93.546875 -1.21875 C 92.734375 -0.40625 91.410156 0 89.578125 0 Z M 89.578125 0 "/></g></g><g style="fill:#00ffff;fill-opacity:1;"><g transform="translate(299.661229, 122.090595)"><path style="stroke:none" d="M 70.765625 0 L 15.1875 0 C 13.351562 0 12.023438 -0.40625 11.203125 -1.21875 C 10.390625 -2.039062 9.984375 -3.367188 9.984375 -5.203125 L 9.984375 -98.984375 C 9.984375 -100.804688 10.390625 -102.128906 11.203125 -102.953125 C 12.023438 -103.773438 13.351562 -104.1875 15.1875 -104.1875 L 61.359375 -104.1875 C 70.804688 -104.1875 77.796875 -102.375 82.328125 -98.75 C 86.867188 -95.132812 89.140625 -89.566406 89.140625 -82.046875 L 89.140625 -75.09375 C 89.140625 -71.039062 88.4375 -67.738281 87.03125 -65.1875 C 85.632812 -62.632812 83.488281 -60.726562 80.59375 -59.46875 C 86.769531 -58.894531 91.351562 -56.773438 94.34375 -53.109375 C 97.332031 -49.441406 98.828125 -44.085938 98.828125 -37.046875 L 98.828125 -23.734375 C 98.828125 -15.628906 96.535156 -9.644531 91.953125 -5.78125 C 87.367188 -1.925781 80.304688 0 70.765625 0 Z M 42.546875 -79.59375 L 42.546875 -63.953125 L 54.84375 -63.953125 C 56.675781 -63.953125 58.050781 -64.4375 58.96875 -65.40625 C 59.882812 -66.375 60.34375 -67.820312 60.34375 -69.75 L 60.34375 -73.796875 C 60.34375 -75.722656 59.882812 -77.171875 58.96875 -78.140625 C 58.050781 -79.109375 56.675781 -79.59375 54.84375 -79.59375 Z M 42.546875 -41.671875 L 42.546875 -24.59375 L 61.359375 -24.59375 C 63.191406 -24.59375 64.566406 -25.078125 65.484375 -26.046875 C 66.398438 -27.015625 66.859375 -28.460938 66.859375 -30.390625 L 66.859375 -36.03125 C 66.859375 -37.957031 66.398438 -39.378906 65.484375 -40.296875 C 64.566406 -41.210938 63.191406 -41.671875 61.359375 -41.671875 Z M 42.546875 -41.671875 "/></g></g><g style="fill:#00ffff;fill-opacity:1;"><g transform="translate(404.566326, 122.090595)"><path style="stroke:none" d="M 42.6875 -78.140625 L 42.6875 -59.625 L 53.546875 -59.625 C 56.046875 -59.625 57.726562 -60.273438 58.59375 -61.578125 C 59.46875 -62.878906 59.90625 -64.492188 59.90625 -66.421875 L 59.90625 -71.34375 C 59.90625 -73.269531 59.46875 -74.882812 58.59375 -76.1875 C 57.726562 -77.488281 56.046875 -78.140625 53.546875 -78.140625 Z M 37.484375 0 L 15.1875 0 C 13.351562 0 12.023438 -0.40625 11.203125 -1.21875 C 10.390625 -2.039062 9.984375 -3.367188 9.984375 -5.203125 L 9.984375 -98.984375 C 9.984375 -100.804688 10.390625 -102.128906 11.203125 -102.953125 C 12.023438 -103.773438 13.351562 -104.1875 15.1875 -104.1875 L 63.375 -104.1875 C 74.1875 -104.1875 81.640625 -101.941406 85.734375 -97.453125 C 89.835938 -92.972656 91.890625 -87.160156 91.890625 -80.015625 L 91.890625 -73.359375 C 91.890625 -69.304688 91.285156 -65.859375 90.078125 -63.015625 C 88.867188 -60.171875 86.769531 -58.125 83.78125 -56.875 C 88.988281 -56.289062 93.207031 -54.164062 96.4375 -50.5 C 99.675781 -46.832031 101.296875 -41.960938 101.296875 -35.890625 L 101.296875 -5.203125 C 101.296875 -3.367188 100.882812 -2.039062 100.0625 -1.21875 C 99.238281 -0.40625 97.910156 0 96.078125 0 L 73.65625 0 C 71.820312 0 70.492188 -0.40625 69.671875 -1.21875 C 68.847656 -2.039062 68.4375 -3.367188 68.4375 -5.203125 L 68.4375 -27.34375 C 68.4375 -29.46875 68.023438 -31.035156 67.203125 -32.046875 C 66.390625 -33.066406 64.972656 -33.578125 62.953125 -33.578125 L 42.6875 -33.578125 L 42.6875 -5.203125 C 42.6875 -3.367188 42.273438 -2.039062 41.453125 -1.21875 C 40.640625 -0.40625 39.316406 0 37.484375 0 Z M 37.484375 0 "/></g></g><g style="fill:#00ffff;fill-opacity:1;"><g transform="translate(512.075991, 122.090595)"><path style="stroke:none" d="M 47.75 -73.796875 L 40.953125 -51.796875 L 63.671875 -51.796875 L 56.875 -73.796875 C 56.488281 -74.660156 56.078125 -75.285156 55.640625 -75.671875 C 55.203125 -76.066406 54.695312 -76.265625 54.125 -76.265625 L 50.5 -76.265625 C 49.925781 -76.265625 49.421875 -76.066406 48.984375 -75.671875 C 48.546875 -75.285156 48.132812 -74.660156 47.75 -73.796875 Z M 39.5 -5.203125 C 39.5 -3.367188 39.085938 -2.039062 38.265625 -1.21875 C 37.453125 -0.40625 36.128906 0 34.296875 0 L 13.015625 0 C 11.191406 0 9.867188 -0.40625 9.046875 -1.21875 C 8.222656 -2.039062 7.8125 -3.367188 7.8125 -5.203125 L 7.8125 -43.40625 C 7.8125 -46.300781 8.269531 -49.628906 9.1875 -53.390625 C 10.101562 -57.148438 11.523438 -61.539062 13.453125 -66.5625 L 26.046875 -99.40625 C 26.628906 -101.050781 27.519531 -102.257812 28.71875 -103.03125 C 29.925781 -103.800781 31.492188 -104.1875 33.421875 -104.1875 L 72.359375 -104.1875 C 74.179688 -104.1875 75.695312 -103.800781 76.90625 -103.03125 C 78.113281 -102.257812 79.007812 -101.050781 79.59375 -99.40625 L 92.171875 -66.5625 C 94.097656 -61.539062 95.519531 -57.148438 96.4375 -53.390625 C 97.351562 -49.628906 97.8125 -46.300781 97.8125 -43.40625 L 97.8125 -5.203125 C 97.8125 -3.367188 97.398438 -2.039062 96.578125 -1.21875 C 95.765625 -0.40625 94.441406 0 92.609375 0 L 70.765625 0 C 68.828125 0 67.398438 -0.40625 66.484375 -1.21875 C 65.566406 -2.039062 65.109375 -3.367188 65.109375 -5.203125 L 65.109375 -25.46875 L 39.5 -25.46875 Z M 39.5 -5.203125 "/></g></g><g style="fill:#00ffff;fill-opacity:1;"><g transform="translate(617.704588, 122.090595)"><path style="stroke:none" d="M 12.875 0 C 11.039062 0 9.710938 -0.40625 8.890625 -1.21875 C 8.078125 -2.039062 7.671875 -3.367188 7.671875 -5.203125 L 7.671875 -22.421875 C 7.671875 -24.253906 8.078125 -25.582031 8.890625 -26.40625 C 9.710938 -27.226562 11.039062 -27.640625 12.875 -27.640625 L 27.203125 -27.640625 L 27.203125 -76.265625 L 12.875 -76.265625 C 11.039062 -76.265625 9.710938 -76.671875 8.890625 -77.484375 C 8.078125 -78.304688 7.671875 -79.632812 7.671875 -81.46875 L 7.671875 -98.984375 C 7.671875 -100.804688 8.078125 -102.128906 8.890625 -102.953125 C 9.710938 -103.773438 11.039062 -104.1875 12.875 -104.1875 L 74.515625 -104.1875 C 76.347656 -104.1875 77.675781 -103.773438 78.5 -102.953125 C 79.320312 -102.128906 79.734375 -100.804688 79.734375 -98.984375 L 79.734375 -81.46875 C 79.734375 -79.632812 79.320312 -78.304688 78.5 -77.484375 C 77.675781 -76.671875 76.347656 -76.265625 74.515625 -76.265625 L 60.484375 -76.265625 L 60.484375 -27.640625 L 74.515625 -27.640625 C 76.347656 -27.640625 77.675781 -27.226562 78.5 -26.40625 C 79.320312 -25.582031 79.734375 -24.253906 79.734375 -22.421875 L 79.734375 -5.203125 C 79.734375 -3.367188 79.320312 -2.039062 78.5 -1.21875 C 77.675781 -0.40625 76.347656 0 74.515625 0 Z M 12.875 0 "/></g></g><g style="fill:#00ffff;fill-opacity:1;"><g transform="translate(705.246108, 122.090595)"><path style="stroke:none" d="M 36.90625 0 L 15.1875 0 C 13.351562 0 12.023438 -0.40625 11.203125 -1.21875 C 10.390625 -2.039062 9.984375 -3.367188 9.984375 -5.203125 L 9.984375 -98.984375 C 9.984375 -100.804688 10.390625 -102.128906 11.203125 -102.953125 C 12.023438 -103.773438 13.351562 -104.1875 15.1875 -104.1875 L 30.25 -104.1875 C 32.082031 -104.1875 33.648438 -103.894531 34.953125 -103.3125 C 36.253906 -102.738281 37.53125 -101.726562 38.78125 -100.28125 L 66.859375 -68.15625 L 66.859375 -98.984375 C 66.859375 -100.804688 67.265625 -102.128906 68.078125 -102.953125 C 68.898438 -103.773438 70.226562 -104.1875 72.0625 -104.1875 L 93.765625 -104.1875 C 95.597656 -104.1875 96.925781 -103.773438 97.75 -102.953125 C 98.570312 -102.128906 98.984375 -100.804688 98.984375 -98.984375 L 98.984375 -5.203125 C 98.984375 -3.367188 98.570312 -2.039062 97.75 -1.21875 C 96.925781 -0.40625 95.597656 0 93.765625 0 L 72.0625 0 C 70.226562 0 68.898438 -0.40625 68.078125 -1.21875 C 67.265625 -2.039062 66.859375 -3.367188 66.859375 -5.203125 L 66.859375 -23 L 42.109375 -52.96875 L 42.109375 -5.203125 C 42.109375 -3.367188 41.695312 -2.039062 40.875 -1.21875 C 40.0625 -0.40625 38.738281 0 36.90625 0 Z M 36.90625 0 "/></g></g><g style="fill:#000000;fill-opacity:1;"><g transform="translate(0.999215, 125.606299)"><path style="stroke:none" d="M 70.765625 0 L 15.1875 0 C 13.351562 0 12.023438 -0.40625 11.203125 -1.21875 C 10.390625 -2.039062 9.984375 -3.367188 9.984375 -5.203125 L 9.984375 -98.984375 C 9.984375 -100.804688 10.390625 -102.128906 11.203125 -102.953125 C 12.023438 -103.773438 13.351562 -104.1875 15.1875 -104.1875 L 61.359375 -104.1875 C 70.804688 -104.1875 77.796875 -102.375 82.328125 -98.75 C 86.867188 -95.132812 89.140625 -89.566406 89.140625 -82.046875 L 89.140625 -75.09375 C 89.140625 -71.039062 88.4375 -67.738281 87.03125 -65.1875 C 85.632812 -62.632812 83.488281 -60.726562 80.59375 -59.46875 C 86.769531 -58.894531 91.351562 -56.773438 94.34375 -53.109375 C 97.332031 -49.441406 98.828125 -44.085938 98.828125 -37.046875 L 98.828125 -23.734375 C 98.828125 -15.628906 96.535156 -9.644531 91.953125 -5.78125 C 87.367188 -1.925781 80.304688 0 70.765625 0 Z M 42.546875 -79.59375 L 42.546875 -63.953125 L 54.84375 -63.953125 C 56.675781 -63.953125 58.050781 -64.4375 58.96875 -65.40625 C 59.882812 -66.375 60.34375 -67.820312 60.34375 -69.75 L 60.34375 -73.796875 C 60.34375 -75.722656 59.882812 -77.171875 58.96875 -78.140625 C 58.050781 -79.109375 56.675781 -79.59375 54.84375 -79.59375 Z M 42.546875 -41.671875 L 42.546875 -24.59375 L 61.359375 -24.59375 C 63.191406 -24.59375 64.566406 -25.078125 65.484375 -26.046875 C 66.398438 -27.015625 66.859375 -28.460938 66.859375 -30.390625 L 66.859375 -36.03125 C 66.859375 -37.957031 66.398438 -39.378906 65.484375 -40.296875 C 64.566406 -41.210938 63.191406 -41.671875 61.359375 -41.671875 Z M 42.546875 -41.671875 "/></g></g><g style="fill:#000000;fill-opacity:1;"><g transform="translate(105.904329, 125.606299)"><path style="stroke:none" d="M 12.875 0 C 11.039062 0 9.710938 -0.40625 8.890625 -1.21875 C 8.078125 -2.039062 7.671875 -3.367188 7.671875 -5.203125 L 7.671875 -22.421875 C 7.671875 -24.253906 8.078125 -25.582031 8.890625 -26.40625 C 9.710938 -27.226562 11.039062 -27.640625 12.875 -27.640625 L 27.203125 -27.640625 L 27.203125 -76.265625 L 12.875 -76.265625 C 11.039062 -76.265625 9.710938 -76.671875 8.890625 -77.484375 C 8.078125 -78.304688 7.671875 -79.632812 7.671875 -81.46875 L 7.671875 -98.984375 C 7.671875 -100.804688 8.078125 -102.128906 8.890625 -102.953125 C 9.710938 -103.773438 11.039062 -104.1875 12.875 -104.1875 L 74.515625 -104.1875 C 76.347656 -104.1875 77.675781 -103.773438 78.5 -102.953125 C 79.320312 -102.128906 79.734375 -100.804688 79.734375 -98.984375 L 79.734375 -81.46875 C 79.734375 -79.632812 79.320312 -78.304688 78.5 -77.484375 C 77.675781 -76.671875 76.347656 -76.265625 74.515625 -76.265625 L 60.484375 -76.265625 L 60.484375 -27.640625 L 74.515625 -27.640625 C 76.347656 -27.640625 77.675781 -27.226562 78.5 -26.40625 C 79.320312 -25.582031 79.734375 -24.253906 79.734375 -22.421875 L 79.734375 -5.203125 C 79.734375 -3.367188 79.320312 -2.039062 78.5 -1.21875 C 77.675781 -0.40625 76.347656 0 74.515625 0 Z M 12.875 0 "/></g></g><g style="fill:#000000;fill-opacity:1;"><g transform="translate(193.445832, 125.606299)"><path style="stroke:none" d="M 89.578125 0 L 43.984375 0 C 31.929688 0 22.984375 -2.410156 17.140625 -7.234375 C 11.304688 -12.054688 8.390625 -19.484375 8.390625 -29.515625 L 8.390625 -74.671875 C 8.390625 -84.703125 11.304688 -92.128906 17.140625 -96.953125 C 22.984375 -101.773438 31.929688 -104.1875 43.984375 -104.1875 L 80.171875 -104.1875 C 82.003906 -104.1875 83.328125 -103.773438 84.140625 -102.953125 C 84.960938 -102.128906 85.375 -100.804688 85.375 -98.984375 L 85.375 -81.46875 C 85.375 -79.632812 84.960938 -78.304688 84.140625 -77.484375 C 83.328125 -76.671875 82.003906 -76.265625 80.171875 -76.265625 L 50.0625 -76.265625 C 47.070312 -76.265625 44.851562 -75.660156 43.40625 -74.453125 C 41.957031 -73.242188 41.234375 -71.429688 41.234375 -69.015625 L 41.234375 -34.4375 C 41.234375 -32.03125 41.785156 -30.242188 42.890625 -29.078125 C 44.003906 -27.921875 45.671875 -27.34375 47.890625 -27.34375 L 61.9375 -27.34375 L 61.9375 -49.921875 C 61.9375 -51.753906 62.34375 -53.078125 63.15625 -53.890625 C 63.976562 -54.710938 65.304688 -55.125 67.140625 -55.125 L 89.578125 -55.125 C 91.410156 -55.125 92.734375 -54.710938 93.546875 -53.890625 C 94.367188 -53.078125 94.78125 -51.753906 94.78125 -49.921875 L 94.78125 -5.203125 C 94.78125 -3.367188 94.367188 -2.039062 93.546875 -1.21875 C 92.734375 -0.40625 91.410156 0 89.578125 0 Z M 89.578125 0 "/></g></g><g style="fill:#000000;fill-opacity:1;"><g transform="translate(295.891094, 125.606299)"><path style="stroke:none" d="M 70.765625 0 L 15.1875 0 C 13.351562 0 12.023438 -0.40625 11.203125 -1.21875 C 10.390625 -2.039062 9.984375 -3.367188 9.984375 -5.203125 L 9.984375 -98.984375 C 9.984375 -100.804688 10.390625 -102.128906 11.203125 -102.953125 C 12.023438 -103.773438 13.351562 -104.1875 15.1875 -104.1875 L 61.359375 -104.1875 C 70.804688 -104.1875 77.796875 -102.375 82.328125 -98.75 C 86.867188 -95.132812 89.140625 -89.566406 89.140625 -82.046875 L 89.140625 -75.09375 C 89.140625 -71.039062 88.4375 -67.738281 87.03125 -65.1875 C 85.632812 -62.632812 83.488281 -60.726562 80.59375 -59.46875 C 86.769531 -58.894531 91.351562 -56.773438 94.34375 -53.109375 C 97.332031 -49.441406 98.828125 -44.085938 98.828125 -37.046875 L 98.828125 -23.734375 C 98.828125 -15.628906 96.535156 -9.644531 91.953125 -5.78125 C 87.367188 -1.925781 80.304688 0 70.765625 0 Z M 42.546875 -79.59375 L 42.546875 -63.953125 L 54.84375 -63.953125 C 56.675781 -63.953125 58.050781 -64.4375 58.96875 -65.40625 C 59.882812 -66.375 60.34375 -67.820312 60.34375 -69.75 L 60.34375 -73.796875 C 60.34375 -75.722656 59.882812 -77.171875 58.96875 -78.140625 C 58.050781 -79.109375 56.675781 -79.59375 54.84375 -79.59375 Z M 42.546875 -41.671875 L 42.546875 -24.59375 L 61.359375 -24.59375 C 63.191406 -24.59375 64.566406 -25.078125 65.484375 -26.046875 C 66.398438 -27.015625 66.859375 -28.460938 66.859375 -30.390625 L 66.859375 -36.03125 C 66.859375 -37.957031 66.398438 -39.378906 65.484375 -40.296875 C 64.566406 -41.210938 63.191406 -41.671875 61.359375 -41.671875 Z M 42.546875 -41.671875 "/></g></g><g style="fill:#000000;fill-opacity:1;"><g transform="translate(400.796191, 125.606299)"><path style="stroke:none" d="M 42.6875 -78.140625 L 42.6875 -59.625 L 53.546875 -59.625 C 56.046875 -59.625 57.726562 -60.273438 58.59375 -61.578125 C 59.46875 -62.878906 59.90625 -64.492188 59.90625 -66.421875 L 59.90625 -71.34375 C 59.90625 -73.269531 59.46875 -74.882812 58.59375 -76.1875 C 57.726562 -77.488281 56.046875 -78.140625 53.546875 -78.140625 Z M 37.484375 0 L 15.1875 0 C 13.351562 0 12.023438 -0.40625 11.203125 -1.21875 C 10.390625 -2.039062 9.984375 -3.367188 9.984375 -5.203125 L 9.984375 -98.984375 C 9.984375 -100.804688 10.390625 -102.128906 11.203125 -102.953125 C 12.023438 -103.773438 13.351562 -104.1875 15.1875 -104.1875 L 63.375 -104.1875 C 74.1875 -104.1875 81.640625 -101.941406 85.734375 -97.453125 C 89.835938 -92.972656 91.890625 -87.160156 91.890625 -80.015625 L 91.890625 -73.359375 C 91.890625 -69.304688 91.285156 -65.859375 90.078125 -63.015625 C 88.867188 -60.171875 86.769531 -58.125 83.78125 -56.875 C 88.988281 -56.289062 93.207031 -54.164062 96.4375 -50.5 C 99.675781 -46.832031 101.296875 -41.960938 101.296875 -35.890625 L 101.296875 -5.203125 C 101.296875 -3.367188 100.882812 -2.039062 100.0625 -1.21875 C 99.238281 -0.40625 97.910156 0 96.078125 0 L 73.65625 0 C 71.820312 0 70.492188 -0.40625 69.671875 -1.21875 C 68.847656 -2.039062 68.4375 -3.367188 68.4375 -5.203125 L 68.4375 -27.34375 C 68.4375 -29.46875 68.023438 -31.035156 67.203125 -32.046875 C 66.390625 -33.066406 64.972656 -33.578125 62.953125 -33.578125 L 42.6875 -33.578125 L 42.6875 -5.203125 C 42.6875 -3.367188 42.273438 -2.039062 41.453125 -1.21875 C 40.640625 -0.40625 39.316406 0 37.484375 0 Z M 37.484375 0 "/></g></g><g style="fill:#000000;fill-opacity:1;"><g transform="translate(508.305856, 125.606299)"><path style="stroke:none" d="M 47.75 -73.796875 L 40.953125 -51.796875 L 63.671875 -51.796875 L 56.875 -73.796875 C 56.488281 -74.660156 56.078125 -75.285156 55.640625 -75.671875 C 55.203125 -76.066406 54.695312 -76.265625 54.125 -76.265625 L 50.5 -76.265625 C 49.925781 -76.265625 49.421875 -76.066406 48.984375 -75.671875 C 48.546875 -75.285156 48.132812 -74.660156 47.75 -73.796875 Z M 39.5 -5.203125 C 39.5 -3.367188 39.085938 -2.039062 38.265625 -1.21875 C 37.453125 -0.40625 36.128906 0 34.296875 0 L 13.015625 0 C 11.191406 0 9.867188 -0.40625 9.046875 -1.21875 C 8.222656 -2.039062 7.8125 -3.367188 7.8125 -5.203125 L 7.8125 -43.40625 C 7.8125 -46.300781 8.269531 -49.628906 9.1875 -53.390625 C 10.101562 -57.148438 11.523438 -61.539062 13.453125 -66.5625 L 26.046875 -99.40625 C 26.628906 -101.050781 27.519531 -102.257812 28.71875 -103.03125 C 29.925781 -103.800781 31.492188 -104.1875 33.421875 -104.1875 L 72.359375 -104.1875 C 74.179688 -104.1875 75.695312 -103.800781 76.90625 -103.03125 C 78.113281 -102.257812 79.007812 -101.050781 79.59375 -99.40625 L 92.171875 -66.5625 C 94.097656 -61.539062 95.519531 -57.148438 96.4375 -53.390625 C 97.351562 -49.628906 97.8125 -46.300781 97.8125 -43.40625 L 97.8125 -5.203125 C 97.8125 -3.367188 97.398438 -2.039062 96.578125 -1.21875 C 95.765625 -0.40625 94.441406 0 92.609375 0 L 70.765625 0 C 68.828125 0 67.398438 -0.40625 66.484375 -1.21875 C 65.566406 -2.039062 65.109375 -3.367188 65.109375 -5.203125 L 65.109375 -25.46875 L 39.5 -25.46875 Z M 39.5 -5.203125 "/></g></g><g style="fill:#000000;fill-opacity:1;"><g transform="translate(613.934453, 125.606299)"><path style="stroke:none" d="M 12.875 0 C 11.039062 0 9.710938 -0.40625 8.890625 -1.21875 C 8.078125 -2.039062 7.671875 -3.367188 7.671875 -5.203125 L 7.671875 -22.421875 C 7.671875 -24.253906 8.078125 -25.582031 8.890625 -26.40625 C 9.710938 -27.226562 11.039062 -27.640625 12.875 -27.640625 L 27.203125 -27.640625 L 27.203125 -76.265625 L 12.875 -76.265625 C 11.039062 -76.265625 9.710938 -76.671875 8.890625 -77.484375 C 8.078125 -78.304688 7.671875 -79.632812 7.671875 -81.46875 L 7.671875 -98.984375 C 7.671875 -100.804688 8.078125 -102.128906 8.890625 -102.953125 C 9.710938 -103.773438 11.039062 -104.1875 12.875 -104.1875 L 74.515625 -104.1875 C 76.347656 -104.1875 77.675781 -103.773438 78.5 -102.953125 C 79.320312 -102.128906 79.734375 -100.804688 79.734375 -98.984375 L 79.734375 -81.46875 C 79.734375 -79.632812 79.320312 -78.304688 78.5 -77.484375 C 77.675781 -76.671875 76.347656 -76.265625 74.515625 -76.265625 L 60.484375 -76.265625 L 60.484375 -27.640625 L 74.515625 -27.640625 C 76.347656 -27.640625 77.675781 -27.226562 78.5 -26.40625 C 79.320312 -25.582031 79.734375 -24.253906 79.734375 -22.421875 L 79.734375 -5.203125 C 79.734375 -3.367188 79.320312 -2.039062 78.5 -1.21875 C 77.675781 -0.40625 76.347656 0 74.515625 0 Z M 12.875 0 "/></g></g><g style="fill:#000000;fill-opacity:1;"><g transform="translate(701.475973, 125.606299)"><path style="stroke:none" d="M 36.90625 0 L 15.1875 0 C 13.351562 0 12.023438 -0.40625 11.203125 -1.21875 C 10.390625 -2.039062 9.984375 -3.367188 9.984375 -5.203125 L 9.984375 -98.984375 C 9.984375 -100.804688 10.390625 -102.128906 11.203125 -102.953125 C 12.023438 -103.773438 13.351562 -104.1875 15.1875 -104.1875 L 30.25 -104.1875 C 32.082031 -104.1875 33.648438 -103.894531 34.953125 -103.3125 C 36.253906 -102.738281 37.53125 -101.726562 38.78125 -100.28125 L 66.859375 -68.15625 L 66.859375 -98.984375 C 66.859375 -100.804688 67.265625 -102.128906 68.078125 -102.953125 C 68.898438 -103.773438 70.226562 -104.1875 72.0625 -104.1875 L 93.765625 -104.1875 C 95.597656 -104.1875 96.925781 -103.773438 97.75 -102.953125 C 98.570312 -102.128906 98.984375 -100.804688 98.984375 -98.984375 L 98.984375 -5.203125 C 98.984375 -3.367188 98.570312 -2.039062 97.75 -1.21875 C 96.925781 -0.40625 95.597656 0 93.765625 0 L 72.0625 0 C 70.226562 0 68.898438 -0.40625 68.078125 -1.21875 C 67.265625 -2.039062 66.859375 -3.367188 66.859375 -5.203125 L 66.859375 -23 L 42.109375 -52.96875 L 42.109375 -5.203125 C 42.109375 -3.367188 41.695312 -2.039062 40.875 -1.21875 C 40.0625 -0.40625 38.738281 0 36.90625 0 Z M 36.90625 0 "/></g></g><g style="fill:#ff00ff;fill-opacity:1;"><g transform="translate(806.668731, 129.122003)"><path style="stroke:none" d=""/></g></g><g style="fill:#00ffff;fill-opacity:1;"><g transform="translate(814.209001, 122.090595)"><path style="stroke:none" d=""/></g></g><g style="fill:#000000;fill-opacity:1;"><g transform="translate(810.438866, 125.606299)"><path style="stroke:none" d=""/></g></g></g></g></g></svg>