<svg xmlns="http://www.w3.org/2000/svg" xmlns:xlink="http://www.w3.org/1999/xlink" width="1467" zoomAndPan="magnify" viewBox="0 0 1100.25 462.749982" height="617" preserveAspectRatio="xMidYMid meet" version="1.2"><defs><clipPath id="84d066cdd2"><rect x="0" width="816" y="0" height="147"/></clipPath></defs><g id="755edd5f59"><g transform="matrix(1,0,0,1,144,157)"><g clip-path="url(#84d066cdd2)"><g style="fill:#ff00ff;fill-opacity:1;"><g transform="translate(-2.77092, 129.122003)"><path style="stroke:none" d="M 70.765625 0 L 15.1875 0 C 13.351562 0 12.023438 -0.40625 11.203125 -1.21875 C 10.390625 -2.039062 9.984375 -3.367188 9.984375 -5.203125 L 9.984375 -98.984375 C 9.984375 -100.804688 10.390625 -102.128906 11.203125 -102.953125 C 12.023438 -103.773438 13.351562 -104.1875 15.1875 -104.1875 L 61.359375 -104.1875 C 70.804688 -104.1875 77.796875 -102.375 82.328125 -98.75 C 86.867188 -95.132812 89.140625 -89.566406 89.140625 -82.046875 L 89.140625 -75.09375 C 89.140625 -71.039062 88.4375 -67.738281 87.03125 -65.1875 C 85.632812 -62.632812 83.488281 -60.726562 80.59375 -59.46875 C 86.769531 -58.894531 91.351562 -56.773438 94.34375 -53.109375 C 97.332031 -49.441406 98.828125 -44.085938 98.828125 -37.046875 L 98.828125 -23.734375 C 98.828125 -15.628906 96.535156 -9.644531 91.953125 -5.78125 C 87.367188 -1.925781 80.304688 0 70.765625 0 Z M 42.546875 -79.59375 L 42.546875 -63.953125 L 54.84375 -63.953125 C 56.675781 -63.953125 58.050781 -64.4375 58.96875 -65.40625 C 59.882812 -66.375 60.34375 -67.820312 60.34375 -69.75 L 60.34375 -73.796875 C 60.34375 -75.722656 59.882812 -77.171875 58.96875 -78.140625 C 58.050781 -79.109375 56.675781 -79.59375 54.84375 -79.59375 Z M 42.546875 -41.671875 L 42.546875 -24.59375 L 61.359375 -24.59375 C 63.191406 -24.59375 64.566406 -25.078125 65.484375 -26.046875 C 66.398438 -27.015625 66.859375 -28.460938 66.859375 -30.390625 L 66.859375 -36.03125 C 66.859375 -37.957031 66.398438 -39.378906 65.484375 -40.296875 C 64.566406 -41.210938 63.191406 -41.671875 61.359375 -41.671875 Z M 42.546875 -41.671875 "/></g></g><g style="fill:#ff00ff;fill-opacity:1;"><g transform="translate(102.134194, 129.122003)"><path style="stroke:none" d="M 12.875 0 C 11.039062 0 9.710938 -0.40625 8.890625 -1.21875 C 8.078125 -2.039062 7.671875 -3.367188 7.671875 -5.203125 L 7.671875 -22.421875 C 7.671875 -24.253906 8.078125 -25.582031 8.890625 -26.40625 C 9.710938 -27.226562 11.039062 -27.640625 12.875 -27.640625 L 27.203125 -27.640625 L 27.203125 -76.265625 L 12.875 -76.265625 C 11.039062 -76.265625 9.710938 -76.671875 8.890625 -77.484375 C 8.078125 -78.304688 7.671875 -79.632812 7.671875 -81.46875 L 7.671875 -98.984375 C 7.671875 -100.804688 8.078125 -102.128906 8.890625 -102.953125 C 9.710938 -103.773438 11.039062 -104.1875 12.875 -104.1875 L 74.515625 -104.1875 C 76.347656 -104.1875 77.675781 -103.773438 78.5 -102.953125 C 79.320312 -102.128906 79.734375 -100.804688 79.734375 -98.984375 L 79.734375 -81.46875 C 79.734375 -79.632812 79.320312 -78.304688 78.5 -77.484375 C 77.675781 -76.671875 76.347656 -76.265625 74.515625 -76.265625 L 60.484375 -76.265625 L 60.484375 -27.640625 L 74.515625 -27.640625 C 76.347656 -27.640625 77.675781 -27.226562 78.5 -26.40625 C 79.320312 -25.582031 79.734375 -24.253906 79.734375 -22.421875 L 79.734375 -5.203125 C 79.734375 -3.367188 79.320312 -2.039062 78.5 -1.21875 C 77.675781 -0.40625 76.347656 0 74.515625 0 Z M 12.875 0 "/></g></g><g style="fill:#ff00ff;fill-opacity:1;"><g transform="translate(189.675697, 129.122003)"><path style="stroke:none" d="M 89.578125 0 L 43.984375 0 C 31.929688 0 22.984375 -2.410156 17.140625 -7.234375 C 11.304688 -12.054688 8.390625 -19.484375 8.390625 -29.515625 L 8.390625 -74.671875 C 8.390625 -84.703125 11.304688 -92.128906 17.140625 -96.953125 C 22.984375 -101.773438 31.929688 -104.1875 43.984375 -104.1875 L 80.171875 -104.1875 C 82.003906 -104.1875 83.328125 -103.773438 84.140625 -102.953125 C 84.960938 -102.128906 85.375 -100.804688 85.375 -98.984375 L 85.375 -81.46875 C 85.375 -79.632812 84.960938 -78.304688 84.140625 -77.484375 C 83.328125 -76.671875 82.003906 -76.265625 80.171875 -76.265625 L 50.0625 -76.265625 C 47.070312 -76.265625 44.851562 -75.660156 43.40625 -74.453125 C 41.957031 -73.242188 41.234375 -71.429688 41.234375 -69.015625 L 41.234375 -34.4375 C 41.234375 -32.03125 41.785156 -30.242188 42.890625 -29.078125 C 44.003906 -27.921875 45.671875 -27.34375 47.890625 -27.34375 L 61.9375 -27.34375 L 61.9375 -49.921875 C 61.9375 -51.753906 62.34375 -53.078125 63.15625 -53.890625 C 63.976562 -54.710938 65.304688 -55.125 67.140625 -55.125 L 89.578125 -55.125 C 91.410156 -55.125 92.734375 -54.710938 93.546875 -53.890625 C 94.367188 -53.078125 94.78125 -51.753906 94.78125 -49.921875 L 94.78125 -5.203125 C 94.78125 -3.367188 94.367188 -2.039062 93.546875 -1.21875 C 92.734375 -0.40625 91.410156 0 89.578125 0 Z M 89.578125 0 "/></g></g><g style="fill:#ff00ff;fill-opacity:1;"><g transform="translate(292.120959, 129.122003)"><path style="stroke:none" d="M 70.765625 0 L 15.1875 0 C 13.351562 0 12.023438 -0.40625 11.203125 -1.21875 C 10.390625 -2.039062 9.984375 -3.367188 9.984375 -5.203125 L 9.984375 -98.984375 C 9.984375 -100.804688 10.390625 -102.128906 11.203125 -102.953125 C 12.023438 -103.773438 13.351562 -104.1875 15.1875 -104.1875 L 61.359375 -104.1875 C 70.804688 -104.1875 77.796875 -102.375 82.328125 -98.75 C 86.867188 -95.132812 89.140625 -89.566406 89.140625 -82.046875 L 89.140625 -75.09375 C 89.140625 -71.039062 88.4375 -67.738281 87.03125 -65.1875 C 85.632812 -62.632812 83.488281 -60.726562 80.59375 -59.46875 C 86.769531 -58.894531 91.351562 -56.773438 94.34375 -53.109375 C 97.332031 -49.441406 98.828125 -44.085938 98.828125 -37.046875 L 98.828125 -23.734375 C 98.828125 -15.628906 96.535156 -9.644531 91.953125 -5.78125 C 87.367188 -1.925781 80.304688 0 70.765625 0 Z M 42.546875 -79.59375 L 42.546875 -63.953125 L 54.84375 -63.953125 C 56.675781 -63.953125 58.050781 -64.4375 58.96875 -65.40625 C 59.882812 -66.375 60.34375 -67.820312 60.34375 -69.75 L 60.34375 -73.796875 C 60.34375 -75.722656 59.882812 -77.171875 58.96875 -78.140625 C 58.050781 -79.109375 56.675781 -79.59375 54.84375 -79.59375 Z M 42.546875 -41.671875 L 42.546875 -24.59375 L 61.359375 -24.59375 C 63.191406 -24.59375 64.566406 -25.078125 65.484375 -26.046875 C 66.398438 -27.015625 66.859375 -28.460938 66.859375 -30.390625 L 66.859375 -36.03125 C 66.859375 -37.957031 66.398438 -39.378906 65.484375 -40.296875 C 64.566406 -41.210938 63.191406 -41.671875 61.359375 -41.671875 Z M 42.546875 -41.671875 "/></g></g><g style="fill:#ff00ff;fill-opacity:1;"><g transform="translate(397.026056, 129.122003)"><path style="stroke:none" d="M 42.6875 -78.140625 L 42.6875 -59.625 L 53.546875 -59.625 C 56.046875 -59.625 57.726562 -60.273438 58.59375 -61.578125 C 59.46875 -62.878906 59.90625 -64.492188 59.90625 -66.421875 L 59.90625 -71.34375 C 59.90625 -73.269531 59.46875 -74.882812 58.59375 -76.1875 C 57.726562 -77.488281 56.046875 -78.140625 53.546875 -78.140625 Z M 37.484375 0 L 15.1875 0 C 13.351562 0 12.023438 -0.40625 11.203125 -1.21875 C 10.390625 -2.039062 9.984375 -3.367188 9.984375 -5.203125 L 9.984375 -98.984375 C 9.984375 -100.804688 10.390625 -102.128906 11.203125 -102.953125 C 12.023438 -103.773438 13.351562 -104.1875 15.1875 -104.1875 L 63.375 -104.1875 C 74.1875 -104.1875 81.640625 -101.941406 85.734375 -97.453125 C 89.835938 -92.972656 91.890625 -87.160156 91.890625 -80.015625 L 91.890625 -73.359375 C 91.890625 -69.304688 91.285156 -65.859375 90.078125 -63.015625 C 88.867188 -60.171875 86.769531 -58.125 83.78125 -56.875 C 88.988281 -56.289062 93.207031 -54.164062 96.4375 -50.5 C 99.675781 -46.832031 101.296875 -41.960938 101.296875 -35.890625 L 101.296875 -5.203125 C 101.296875 -3.367188 100.882812 -2.039062 100.0625 -1.21875 C 99.238281 -0.40625 97.910156 0 96.078125 0 L 73.65625 0 C 71.820312 0 70.492188 -0.40625 69.671875 -1.21875 C 68.847656 -2.039062 68.4375 -3.367188 68.4375 -5.203125 L 68.4375 -27.34375 C 68.4375 -29.46875 68.023438 -31.035156 67.203125 -32.046875 C 66.390625 -33.066406 64.972656 -33.578125 62.953125 -33.578125 L 42.6875 -33.578125 L 42.6875 -5.203125 C 42.6875 -3.367188 42.273438 -2.039062 41.453125 -1.21875 C 40.640625 -0.40625 39.316406 0 37.484375 0 Z M 37.484375 0 "/></g></g><g style="fill:#ff00ff;fill-opacity:1;"><g transform="translate(504.535721, 129.122003)"><path style="stroke:none" d="M 47.75 -73.796875 L 40.953125 -51.796875 L 63.671875 -51.796875 L 56.875 -73.796875 C 56.488281 -74.660156 56.078125 -75.285156 55.640625 -75.671875 C 55.203125 -76.066406 54.695312 -76.265625 54.125 -76.265625 L 50.5 -76.265625 C 49.925781 -76.265625 49.421875 -76.066406 48.984375 -75.671875 C 48.546875 -75.285156 48.132812 -74.660156 47.75 -73.796875 Z M 39.5 -5.203125 C 39.5 -3.367188 39.085938 -2.039062 38.265625 -1.21875 C 37.453125 -0.40625 36.128906 0 34.296875 0 L 13.015625 0 C 11.191406 0 9.867188 -0.40625 9.046875 -1.21875 C 8.222656 -2.039062 7.8125 -3.367188 7.8125 -5.203125 L 7.8125 -43.40625 C 7.8125 -46.300781 8.269531 -49.628906 9.1875 -53.390625 C 10.101562 -57.148438 11.523438 -61.539062 13.453125 -66.5625 L 26.046875 -99.40625 C 26.628906 -101.050781 27.519531 -102.257812 28.71875 -103.03125 C 29.925781 -103.800781 31.492188 -104.1875 33.421875 -104.1875 L 72.359375 -104.1875 C 74.179688 -104.1875 75.695312 -103.800781 76.90625 -103.03125 C 78.113281 -102.257812 79.007812 -101.050781 79.59375 -99.40625 L 92.171875 -66.5625 C 94.097656 -61.539062 95.519531 -57.148438 96.4375 -53.390625 C 97.351562 -49.628906 97.8125 -46.300781 97.8125 -43.40625 L 97.8125 -5.203125 C 97.8125 -3.367188 97.398438 -2.039062 96.578125 -1.21875 C 95.765625 -0.40625 94.441406 0 92.609375 0 L 70.765625 0 C 68.828125 0 67.398438 -0.40625 66.484375 -1.21875 C 65.566406 -2.039062 65.109375 -3.367188 65.109375 -5.203125 L 65.109375 -25.46875 L 39.5 -25.46875 Z M 39.5 -5.203125 "/></g></g><g style="fill:#ff00ff;fill-opacity:1;"><g transform="translate(610.164318, 129.122003)"><path style="stroke:none" d="M 12.875 0 C 11.039062 0 9.710938 -0.40625 8.890625 -1.21875 C 8.078125 -2.039062 7.671875 -3.367188 7.671875 -5.203125 L 7.671875 -22.421875 C 7.671875 -24.253906 8.078125 -25.582031 8.890625 -26.40625 C 9.710938 -27.226562 11.039062 -27.640625 12.875 -27.640625 L 27.203125 -27.640625 L 27.203125 -76.265625 L 12.875 -76.265625 C 11.039062 -76.265625 9.710938 -76.671875 8.890625 -77.484375 C 8.078125 -78.304688 7.671875 -79.632812 7.671875 -81.46875 L 7.671875 -98.984375 C 7.671875 -100.804688 8.078125 -102.128906 8.890625 -102.953125 C 9.710938 -103.773438 11.039062 -104.1875 12.875 -104.1875 L 74.515625 -104.1875 C 76.347656 -104.1875 77.675781 -103.773438 78.5 -102.953125 C 79.320312 -102.128906 79.734375 -100.804688 79.734375 -98.984375 L 79.734375 -81.46875 C 79.734375 -79.632812 79.320312 -78.304688 78.5 -77.484375 C 77.675781 -76.671875 76.347656 -76.265625 74.515625 -76.265625 L 60.484375 -76.265625 L 60.484375 -27.640625 L 74.515625 -27.640625 C 76.347656 -27.640625 77.675781 -27.226562 78.5 -26.40625 C 79.320312 -25.582031 79.734375 -24.253906 79.734375 -22.421875 L 79.734375 -5.203125 C 79.734375 -3.367188 79.320312 -2.039062 78.5 -1.21875 C 77.675781 -0.40625 76.347656 0 74.515625 0 Z M 12.875 0 "/></g></g><g style="fill:#ff00ff;fill-opacity:1;"><g transform="translate(697.705838, 129.122003)"><path style="stroke:none" d="M 36.90625 0 L 15.1875 0 C 13.351562 0 12.023438 -0.40625 11.203125 -1.21875 C 10.390625 -2.039062 9.984375 -3.367188 9.984375 -5.203125 L 9.984375 -98.984375 C 9.984375 -100.804688 10.390625 -102.128906 11.203125 -102.953125 C 12.023438 -103.773438 13.351562 -104.1875 15.1875 -104.1875 L 30.25 -104.1875 C 32.082031 -104.1875 33.648438 -103.894531 34.953125 -103.3125 C 36.253906 -102.738281 37.53125 -101.726562 38.78125 -100.28125 L 66.859375 -68.15625 L 66.859375 -98.984375 C 66.859375 -100.804688 67.265625 -102.128906 68.078125 -102.953125 C 68.898438 -103.773438 70.226562 -104.1875 72.0625 -104.1875 L 93.765625 -104.1875 C 95.597656 -104.1875 96.925781 -103.773438 97.75 -102.953125 C 98.570312 -102.128906 98.984375 -100.804688 98.984375 -98.984375 L 98.984375 -5.203125 C 98.984375 -3.367188 98.570312 -2.039062 97.75 -1.21875 C 96.925781 -0.40625 95.597656 0 93.765625 0 L 72.0625 0 C 70.226562 0 68.898438 -0.40625 68.078125 -1.21875 C 67.265625 -2.039062 66.859375 -3.367188 66.859375 -5.203125 L 66.859375 -23 L 42.109375 -52.96875 L 42.109375 -5.203125 C 42.109375 -3.367188 41.695312 -2.039062 40.875 -1.21875 C 40.0625 -0.40625 38.738281 0 36.90625 0 Z M 36.90625 0 "/></g></g><g style="fill:#00ffff;fill-opacity:1;"><g transform="translate(4.76935, 122.090595)"><path style="stroke:none" d="M 70.765625 0 L 15.1875 0 C 13.351562 0 12.023438 -0.40625 11.203125 -1.21875 C 10.390625 -2.039062 9.984375 -3.367188 9.984375 -5.203125 L 9.984375 -98.984375 C 9.984375 -100.804688 10.390625 -102.128906 11.203125 -102.953125 C 12.023438 -103.773438 13.351562 -104.1875 15.1875 -104.1875 L 61.359375 -104.1875 C 70.804688 -104.1875 77.796875 -102.375 82.328125 -98.75 C 86.867188 -95.132812 89.140625 -89.566406 89.140625 -82.046875 L 89.140625 -75.09375 C 89.140625 -71.039062 88.4375 -67.738281 87.03125 -65.1875 C 85.632812 -62.632812 83.488281 -60.726562 80.59375 -59.46875 C 86.769531 -58.894531 91.351562 -56.773438 94.34375 -53.109375 C 97.332031 -49.441406 98.828125 -44.085938 98.828125 -37.046875 L 98.828125 -23.734375 C 98.828125 -15.628906 96.535156 -9.644531 91.953125 -5.78125 C 87.367188 -1.925781 80.304688 0 70.765625 0 Z M 42.546875 -79.59375 L 42.546875 -63.953125 L 54.84375 -63.953125 C 56.675781 -63.953125 58.050781 -64.4375 58.96875 -65.40625 C 59.882812 -66.375 60.34375 -67.820312 60.34375 -69.75 L 60.34375 -73.796875 C 60.34375 -75.722656 59.882812 -77.171875 58.96875 -78.140625 C 58.050781 -79.109375 56.675781 -79.59375 54.84375 -79.59375 Z M 42.546875 -41.671875 L 42.546875 -24.59375 L 61.359375 -24.59375 C 63.191406 -24.59375 64.566406 -25.078125 65.484375 -26.046875 C 66.398438 -27.015625 66.859375 -28.460938 66.859375 -30.390625 L 66.859375 -36.03125 C 66.859375 -37.957031 66.398438 -39.378906 65.484375 -40.296875 C 64.566406 -41.210938 63.191406 -41.671875 61.359375 -41.671875 Z M 42.546875 -41.671875 "/></g></g><g style="fill:#00ffff;fill-opacity:1;"><g transform="translate(109.674464, 122.090595)"><path style="stroke:none" d="M 12.875 0 C 11.039062 0 9.710938 -0.40625 8.890625 -1.21875 C 8.078125 -2.039062 7.671875 -3.367188 7.671875 -5.203125 L 7.671875 -22.421875 C 7.671875 -24.253906 8.078125 -25.582031 8.890625 -26.40625 C 9.710938 -27.226562 11.039062 -27.640625 12.875 -27.640625 L 27.203125 -27.640625 L 27.203125 -76.265625 L 12.875 -76.265625 C 11.039062 -76.265625 9.710938 -76.671875 8.890625 -77.484375 C 8.078125 -78.304688 7.671875 -79.632812 7.671875 -81.46875 L 7.671875 -98.984375 C 7.671875 -100.804688 8.078125 -102.128906 8.890625 -102.953125 C 9.710938 -103.773438 11.039062 -104.1875 12.875 -104.1875 L 74.515625 -104.1875 C 76.347656 -104.1875 77.675781 -103.773438 78.5 -102.953125 C 79.320312 -102.128906 79.734375 -100.804688 79.734375 -98.984375 L 79.734375 -81.46875 C 79.734375 -79.632812 79.320312 -78.304688 78.5 -77.484375 C 77.675781 -76.671875 76.347656 -76.265625 74.515625 -76.265625 L 60.484375 -76.265625 L 60.484375 -27.640625 L 74.515625 -27.640625 C 76.347656 -27.640625 77.675781 -27.226562 78.5 -26.40625 C 79.320312 -25.582031 79.734375 -24.253906 79.734375 -22.421875 L 79.734375 -5.203125 C 79.734375 -3.367188 79.320312 -2.039062 78.5 -1.21875 C 77.675781 -0.40625 76.347656 0 74.515625 0 Z M 12.875 0 "/></g></g><g style="fill:#00ffff;fill-opacity:1;"><g transform="translate(197.215967, 122.090595)"><path style="stroke:none" d="M 89.578125 0 L 43.984375 0 C 31.929688 0 22.984375 -2.410156 17.140625 -7.234375 C 11.304688 -12.054688 8.390625 -19.484375 8.390625 -29.515625 L 8.390625 -74.671875 C 8.390625 -84.703125 11.304688 -92.128906 17.140625 -96.953125 C 22.984375 -101.773438 31.929688 -104.1875 43.984375 -104.1875 L 80.171875 -104.1875 C 82.003906 -104.1875 83.328125 -103.773438 84.140625 -102.953125 C 84.960938 -102.128906 85.375 -100.804688 85.375 -98.984375 L 85.375 -81.46875 C 85.375 -79.632812 84.960938 -78.304688 84.140625 -77.484375 C 83.328125 -76.671875 82.003906 -76.265625 80.171875 -76.265625 L 50.0625 -76.265625 C 47.070312 -76.265625 44.851562 -75.660156 43.40625 -74.453125 C 41.957031 -73.242188 41.234375 -71.429688 41.234375 -69.015625 L 41.234375 -34.4375 C 41.234375 -32.03125 41.785156 -30.242188 42.890625 -29.078125 C 44.003906 -27.921875 45.671875 -27.34375 47.890625 -27.34375 L 61.9375 -27.34375 L 61.9375 -49.921875 C 61.9375 -51.753906 62.34375 -53.078125 63.15625 -53.890625 C 63.976562 -54.710938 65.304688 -55.125 67.140625 -55.125 L 89.578125 -55.125 C 91.410156 -55.125 92.734375 -54.710938 93.546875 -53.890625 C 94.367188 -53.078125 94.78125 -51.753906 94.78125 -49.921875 L 94.78125 -5.203125 C 94.78125 -3.367188 94.367188 -2.039062 93.546875 -1.21875 C 92.734375 -0.40625 91.410156 0 89.578125 0 Z M 89.578125 0 "/></g></g><g style="fill:#00ffff;fill-opacity:1;"><g transform="translate(299.661229, 122.090595)"><path style="stroke:none" d="M 70.765625 0 L 15.1875 0 C 13.351562 0 12.023438 -0.40625 11.203125 -1.21875 C 10.390625 -2.039062 9.984375 -3.367188 9.984375 -5.203125 L 9.984375 -98.984375 C 9.984375 -100.804688 10.390625 -102.128906 11.203125 -102.953125 C 12.023438 -103.773438 13.351562 -104.1875 15.1875 -104.1875 L 61.359375 -104.1875 C 70.804688 -104.1875 77.796875 -102.375 82.328125 -98.75 C 86.867188 -95.132812 89.140625 -89.566406 89.140625 -82.046875 L 89.140625 -75.09375 C 89.140625 -71.039062 88.4375 -67.738281 87.03125 -65.1875 C 85.632812 -62.632812 83.488281 -60.726562 80.59375 -59.46875 C 86.769531 -58.894531 91.351562 -56.773438 94.34375 -53.109375 C 97.332031 -49.441406 98.828125 -44.085938 98.828125 -37.046875 L 98.828125 -23.734375 C 98.828125 -15.628906 96.535156 -9.644531 91.953125 -5.78125 C 87.367188 -1.925781 80.304688 0 70.765625 0 Z M 42.546875 -79.59375 L 42.546875 -63.953125 L 54.84375 -63.953125 C 56.675781 -63.953125 58.050781 -64.4375 58.96875 -65.40625 C 59.882812 -66.375 60.34375 -67.820312 60.34375 -69.75 L 60.34375 -73.796875 C 60.34375 -75.722656 59.882812 -77.171875 58.96875 -78.140625 C 58.050781 -79.109375 56.675781 -79.59375 54.84375 -79.59375 Z M 42.546875 -41.671875 L 42.546875 -24.59375 L 61.359375 -24.59375 C 63.191406 -24.59375 64.566406 -25.078125 65.484375 -26.046875 C 66.398438 -27.015625 66.859375 -28.460938 66.859375 -30.390625 L 66.859375 -36.03125 C 66.859375 -37.957031 66.398438 -39.378906 65.484375 -40.296875 C 64.566406 -41.210938 63.191406 -41.671875 61.359375 -41.671875 Z M 42.546875 -41.671875 "/></g></g><g style="fill:#00ffff;fill-opacity:1;"><g transform="translate(404.566326, 122.090595)"><path style="stroke:none" d="M 42.6875 -78.140625 L 42.6875 -59.625 L 53.546875 -59.625 C 56.046875 -59.625 57.726562 -60.273438 58.59375 -61.578125 C 59.46875 -62.878906 59.90625 -64.492188 59.90625 -66.421875 L 59.90625 -71.34375 C 59.90625 -73.269531 59.46875 -74.882812 58.59375 -76.1875 C 57.726562 -77.488281 56.046875 -78.140625 53.546875 -78.140625 Z M 37.484375 0 L 15.1875 0 C 13.351562 0 12.023438 -0.40625 11.203125 -1.21875 C 10.390625 -2.039062 9.984375 -3.367188 9.984375 -5.203125 L 9.984375 -98.984375 C 9.984375 -100.804688 10.390625 -102.128906 11.203125 -102.953125 C 12.023438 -103.773438 13.351562 -104.1875 15.1875 -104.1875 L 63.375 -104.1875 C 74.1875 -104.1875 81.640625 -101.941406 85.734375 -97.453125 C 89.835938 -92.972656 91.890625 -87.160156 91.890625 -80.015625 L 91.890625 -73.359375 C 91.890625 -69.304688 91.285156 -65.859375 90.078125 -63.015625 C 88.867188 -60.171875 86.769531 -58.125 83.78125 -56.875 C 88.988281 -56.289062 93.207031 -54.164062 96.4375 -50.5 C 99.675781 -46.832031 101.296875 -41.960938 101.296875 -35.890625 L 101.296875 -5.203125 C 101.296875 -3.367188 100.882812 -2.039062 100.0625 -1.21875 C 99.238281 -0.40625 97.910156 0 96.078125 0 L 73.65625 0 C 71.820312 0 70.492188 -0.40625 69.671875 -1.21875 C 68.847656 -2.039062 68.4375 -3.367188 68.4375 -5.203125 L 68.4375 -27.34375 C 68.4375 -29.46875 68.023438 -31.035156 67.203125 -32.046875 C 66.390625 -33.066406 64.972656 -33.578125 62.953125 -33.578125 L 42.6875 -33.578125 L 42.6875 -5.203125 C 42.6875 -3.367188 42.273438 -2.039062 41.453125 -1.21875 C 40.640625 -0.40625 39.316406 0 37.484375 0 Z M 37.484375 0 "/></g></g><g style="fill:#00ffff;fill-opacity:1;"><g transform="translate(512.075991, 122.090595)"><path style="stroke:none" d="M 47.75 -73.796875 L 40.953125 -51.796875 L 63.671875 -51.796875 L 56.875 -73.796875 C 56.488281 -74.660156 56.078125 -75.285156 55.640625 -75.671875 C 55.203125 -76.066406 54.695312 -76.265625 54.125 -76.265625 L 50.5 -76.265625 C 49.925781 -76.265625 49.421875 -76.066406 48.984375 -75.671875 C 48.546875 -75.285156 48.132812 -74.660156 47.75 -73.796875 Z M 39.5 -5.203125 C 39.5 -3.367188 39.085938 -2.039062 38.265625 -1.21875 C 37.453125 -0.40625 36.128906 0 34.296875 0 L 13.015625 0 C 11.191406 0 9.867188 -0.40625 9.046875 -1.21875 C 8.222656 -2.039062 7.8125 -3.367188 7.8125 -5.203125 L 7.8125 -43.40625 C 7.8125 -46.300781 8.269531 -49.628906 9.1875 -53.390625 C 10.101562 -57.148438 11.523438 -61.539062 13.453125 -66.5625 L 26.046875 -99.40625 C 26.628906 -101.050781 27.519531 -102.257812 28.71875 -103.03125 C 29.925781 -103.800781 31.492188 -104.1875 33.421875 -104.1875 L 72.359375 -104.1875 C 74.179688 -104.1875 75.695312 -103.800781 76.90625 -103.03125 C 78.113281 -102.257812 79.007812 -101.050781 79.59375 -99.40625 L 92.171875 -66.5625 C 94.097656 -61.539062 95.519531 -57.148438 96.4375 -53.390625 C 97.351562 -49.628906 97.8125 -46.300781 97.8125 -43.40625 L 97.8125 -5.203125 C 97.8125 -3.367188 97.398438 -2.039062 96.578125 -1.21875 C 95.765625 -0.40625 94.441406 0 92.609375 0 L 70.765625 0 C 68.828125 0 67.398438 -0.40625 66.484375 -1.21875 C 65.566406 -2.039062 65.109375 -3.367188 65.109375 -5.203125 L 65.109375 -25.46875 L 39.5 -25.46875 Z M 39.5 -5.203125 "/></g></g><g style="fill:#00ffff;fill-opacity:1;"><g transform="translate(617.704588, 122.090595)"><path style="stroke:none" d="M 12.875 0 C 11.039062 0 9.710938 -0.40625 8.890625 -1.21875 C 8.078125 -2.039062 7.671875 -3.367188 7.671875 -5.203125 L 7.671875 -22.421875 C 7.671875 -24.253906 8.078125 -25.582031 8.890625 -26.40625 C 9.710938 -27.226562 11.039062 -27.640625 12.875 -27.640625 L 27.203125 -27.640625 L 27.203125 -76.265625 L 12.875 -76.265625 C 11.039062 -76.265625 9.710938 -76.671875 8.890625 -77.484375 C 8.078125 -78.304688 7.671875 -79.632812 7.671875 -81.46875 L 7.671875 -98.984375 C 7.671875 -100.804688 8.078125 -102.128906 8.890625 -102.953125 C 9.710938 -103.773438 11.039062 -104.1875 12.875 -104.1875 L 74.515625 -104.1875 C 76.347656 -104.1875 77.675781 -103.773438 78.5 -102.953125 C 79.320312 -102.128906 79.734375 -100.804688 79.734375 -98.984375 L 79.734375 -81.46875 C 79.734375 -79.632812 79.320312 -78.304688 78.5 -77.484375 C 77.675781 -76.671875 76.347656 -76.265625 74.515625 -76.265625 L 60.484375 -76.265625 L 60.484375 -27.640625 L 74.515625 -27.640625 C 76.347656 -27.640625 77.675781 -27.226562 78.5 -26.40625 C 79.320312 -25.582031 79.734375 -24.253906 79.734375 -22.421875 L 79.734375 -5.203125 C 79.734375 -3.367188 79.320312 -2.039062 78.5 -1.21875 C 77.675781 -0.40625 76.347656 0 74.515625 0 Z M 12.875 0 "/></g></g><g style="fill:#00ffff;fill-opacity:1;"><g transform="translate(705.246108, 122.090595)"><path style="stroke:none" d="M 36.90625 0 L 15.1875 0 C 13.351562 0 12.023438 -0.40625 11.203125 -1.21875 C 10.390625 -2.039062 9.984375 -3.367188 9.984375 -5.203125 L 9.984375 -98.984375 C 9.984375 -100.804688 10.390625 -102.128906 11.203125 -102.953125 C 12.023438 -103.773438 13.351562 -104.1875 15.1875 -104.1875 L 30.25 -104.1875 C 32.082031 -104.1875 33.648438 -103.894531 34.953125 -103.3125 C 36.253906 -102.738281 37.53125 -101.726562 38.78125 -100.28125 L 66.859375 -68.15625 L 66.859375 -98.984375 C 66.859375 -100.804688 67.265625 -102.128906 68.078125 -102.953125 C 68.898438 -103.773438 70.226562 -104.1875 72.0625 -104.1875 L 93.765625 -104.1875 C 95.597656 -104.1875 96.925781 -103.773438 97.75 -102.953125 C 98.570312 -102.128906 98.984375 -100.804688 98.984375 -98.984375 L 98.984375 -5.203125 C 98.984375 -3.367188 98.570312 -2.039062 97.75 -1.21875 C 96.925781 -0.40625 95.597656 0 93.765625 0 L 72.0625 0 C 70.226562 0 68.898438 -0.40625 68.078125 -1.21875 C 67.265625 -2.039062 66.859375 -3.367188 66.859375 -5.203125 L 66.859375 -23 L 42.109375 -52.96875 L 42.109375 -5.203125 C 42.109375 -3.367188 41.695312 -2.039062 40.875 -1.21875 C 40.0625 -0.40625 38.738281 0 36.90625 0 Z M 36.90625 0 "/></g></g><g style="fill:#000000;fill-opacity:1;"><g transform="translate(0.999215, 125.606299)"><path style="stroke:none" d="M 70.765625 0 L 15.1875 0 C 13.351562 0 12.023438 -0.40625 11.203125 -1.21875 C 10.390625 -2.039062 9.984375 -3.367188 9.984375 -5.203125 L 9.984375 -98.984375 C 9.984375 -100.804688 10.390625 -102.128906 11.203125 -102.953125 C 12.023438 -103.773438 13.351562 -104.1875 15.1875 -104.1875 L 61.359375 -104.1875 C 70.804688 -104.1875 77.796875 -102.375 82.328125 -98.75 C 86.867188 -95.132812 89.140625 -89.566406 89.140625 -82.046875 L 89.140625 -75.09375 C 89.140625 -71.039062 88.4375 -67.738281 87.03125 -65.1875 C 85.632812 -62.632812 83.488281 -60.726562 80.59375 -59.46875 C 86.769531 -58.894531 91.351562 -56.773438 94.34375 -53.109375 C 97.332031 -49.441406 98.828125 -44.085938 98.828125 -37.046875 L 98.828125 -23.734375 C 98.828125 -15.628906 96.535156 -9.644531 91.953125 -5.78125 C 87.367188 -1.925781 80.304688 0 70.765625 0 Z M 42.546875 -79.59375 L 42.546875 -63.953125 L 54.84375 -63.953125 C 56.675781 -63.953125 58.050781 -64.4375 58.96875 -65.40625 C 59.882812 -66.375 60.34375 -67.820312 60.34375 -69.75 L 60.34375 -73.796875 C 60.34375 -75.722656 59.882812 -77.171875 58.96875 -78.140625 C 58.050781 -79.109375 56.675781 -79.59375 54.84375 -79.59375 Z M 42.546875 -41.671875 L 42.546875 -24.59375 L 61.359375 -24.59375 C 63.191406 -24.59375 64.566406 -25.078125 65.484375 -26.046875 C 66.398438 -27.015625 66.859375 -28.460938 66.859375 -30.390625 L 66.859375 -36.03125 C 66.859375 -37.957031 66.398438 -39.378906 65.484375 -40.296875 C 64.566406 -41.210938 63.191406 -41.671875 61.359375 -41.671875 Z M 42.546875 -41.671875 "/></g></g><g style="fill:#000000;fill-opacity:1;"><g transform="translate(105.904329, 125.606299)"><path style="stroke:none" d="M 12.875 0 C 11.039062 0 9.710938 -0.40625 8.890625 -1.21875 C 8.078125 -2.039062 7.671875 -3.367188 7.671875 -5.203125 L 7.671875 -22.421875 C 7.671875 -24.253906 8.078125 -25.582031 8.890625 -26.40625 C 9.710938 -27.226562 11.039062 -27.640625 12.875 -27.640625 L 27.203125 -27.640625 L 27.203125 -76.265625 L 12.875 -76.265625 C 11.039062 -76.265625 9.710938 -76.671875 8.890625 -77.484375 C 8.078125 -78.304688 7.671875 -79.632812 7.671875 -81.46875 L 7.671875 -98.984375 C 7.671875 -100.804688 8.078125 -102.128906 8.890625 -102.953125 C 9.710938 -103.773438 11.039062 -104.1875 12.875 -104.1875 L 74.515625 -104.1875 C 76.347656 -104.1875 77.675781 -103.773438 78.5 -102.953125 C 79.320312 -102.128906 79.734375 -100.804688 79.734375 -98.984375 L 79.734375 -81.46875 C 79.734375 -79.632812 79.320312 -78.304688 78.5 -77.484375 C 77.675781 -76.671875 76.347656 -76.265625 74.515625 -76.265625 L 60.484375 -76.265625 L 60.484375 -27.640625 L 74.515625 -27.640625 C 76.347656 -27.640625 77.675781 -27.226562 78.5 -26.40625 C 79.320312 -25.582031 79.734375 -24.253906 79.734375 -22.421875 L 79.734375 -5.203125 C 79.734375 -3.367188 79.320312 -2.039062 78.5 -1.21875 C 77.675781 -0.40625 76.347656 0 74.515625 0 Z M 12.875 0 "/></g></g><g style="fill:#000000;fill-opacity:1;"><g transform="translate(193.445832, 125.606299)"><path style="stroke:none" d="M 89.578125 0 L 43.984375 0 C 31.929688 0 22.984375 -2.410156 17.140625 -7.234375 C 11.304688 -12.054688 8.390625 -19.484375 8.390625 -29.515625 L 8.390625 -74.671875 C 8.390625 -84.703125 11.304688 -92.128906 17.140625 -96.953125 C 22.984375 -101.773438 31.929688 -104.1875 43.984375 -104.1875 L 80.171875 -104.1875 C 82.003906 -104.1875 83.328125 -103.773438 84.140625 -102.953125 C 84.960938 -102.128906 85.375 -100.804688 85.375 -98.984375 L 85.375 -81.46875 C 85.375 -79.632812 84.960938 -78.304688 84.140625 -77.484375 C 83.328125 -76.671875 82.003906 -76.265625 80.171875 -76.265625 L 50.0625 -76.265625 C 47.070312 -76.265625 44.851562 -75.660156 43.40625 -74.453125 C 41.957031 -73.242188 41.234375 -71.429688 41.234375 -69.015625 L 41.234375 -34.4375 C 41.234375 -32.03125 41.785156 -30.242188 42.890625 -29.078125 C 44.003906 -27.921875 45.671875 -27.34375 47.890625 -27.34375 L 61.9375 -27.34375 L 61.9375 -49.921875 C 61.9375 -51.753906 62.34375 -53.078125 63.15625 -53.890625 C 63.976562 -54.710938 65.304688 -55.125 67.140625 -55.125 L 89.578125 -55.125 C 91.410156 -55.125 92.734375 -54.710938 93.546875 -53.890625 C 94.367188 -53.078125 94.78125 -51.753906 94.78125 -49.921875 L 94.78125 -5.203125 C 94.78125 -3.367188 94.367188 -2.039062 93.546875 -1.21875 C 92.734375 -0.40625 91.410156 0 89.578125 0 Z M 89.578125 0 "/></g></g><g style="fill:#000000;fill-opacity:1;"><g transform="translate(295.891094, 125.606299)"><path style="stroke:none" d="M 70.765625 0 L 15.1875 0 C 13.351562 0 12.023438 -0.40625 11.203125 -1.21875 C 10.390625 -2.039062 9.984375 -3.367188 9.984375 -5.203125 L 9.984375 -98.984375 C 9.984375 -100.804688 10.390625 -102.128906 11.203125 -102.953125 C 12.023438 -103.773438 13.351562 -104.1875 15.1875 -104.1875 L 61.359375 -104.1875 C 70.804688 -104.1875 77.796875 -102.375 82.328125 -98.75 C 86.867188 -95.132812 89.140625 -89.566406 89.140625 -82.046875 L 89.140625 -75.09375 C 89.140625 -71.039062 88.4375 -67.738281 87.03125 -65.1875 C 85.632812 -62.632812 83.488281 -60.726562 80.59375 -59.46875 C 86.769531 -58.894531 91.351562 -56.773438 94.34375 -53.109375 C 97.332031 -49.441406 98.828125 -44.085938 98.828125 -37.046875 L 98.828125 -23.734375 C 98.828125 -15.628906 96.535156 -9.644531 91.953125 -5.78125 C 87.367188 -1.925781 80.304688 0 70.765625 0 Z M 42.546875 -79.59375 L 42.546875 -63.953125 L 54.84375 -63.953125 C 56.675781 -63.953125 58.050781 -64.4375 58.96875 -65.40625 C 59.882812 -66.375 60.34375 -67.820312 60.34375 -69.75 L 60.34375 -73.796875 C 60.34375 -75.722656 59.882812 -77.171875 58.96875 -78.140625 C 58.050781 -79.109375 56.675781 -79.59375 54.84375 -79.59375 Z M 42.546875 -41.671875 L 42.546875 -24.59375 L 61.359375 -24.59375 C 63.191406 -24.59375 64.566406 -25.078125 65.484375 -26.046875 C 66.398438 -27.015625 66.859375 -28.460938 66.859375 -30.390625 L 66.859375 -36.03125 C 66.859375 -37.957031 66.398438 -39.378906 65.484375 -40.296875 C 64.566406 -41.210938 63.191406 -41.671875 61.359375 -41.671875 Z M 42.546875 -41.671875 "/></g></g><g style="fill:#000000;fill-opacity:1;"><g transform="translate(400.796191, 125.606299)"><path style="stroke:none" d="M 42.6875 -78.140625 L 42.6875 -59.625 L 53.546875 -59.625 C 56.046875 -59.625 57.726562 -60.273438 58.59375 -61.578125 C 59.46875 -62.878906 59.90625 -64.492188 59.90625 -66.421875 L 59.90625 -71.34375 C 59.90625 -73.269531 59.46875 -74.882812 58.59375 -76.1875 C 57.726562 -77.488281 56.046875 -78.140625 53.546875 -78.140625 Z M 37.484375 0 L 15.1875 0 C 13.351562 0 12.023438 -0.40625 11.203125 -1.21875 C 10.390625 -2.039062 9.984375 -3.367188 9.984375 -5.203125 L 9.984375 -98.984375 C 9.984375 -100.804688 10.390625 -102.128906 11.203125 -102.953125 C 12.023438 -103.773438 13.351562 -104.1875 15.1875 -104.1875 L 63.375 -104.1875 C 74.1875 -104.1875 81.640625 -101.941406 85.734375 -97.453125 C 89.835938 -92.972656 91.890625 -87.160156 91.890625 -80.015625 L 91.890625 -73.359375 C 91.890625 -69.304688 91.285156 -65.859375 90.078125 -63.015625 C 88.867188 -60.171875 86.769531 -58.125 83.78125 -56.875 C 88.988281 -56.289062 93.207031 -54.164062 96.4375 -50.5 C 99.675781 -46.832031 101.296875 -41.960938 101.296875 -35.890625 L 101.296875 -5.203125 C 101.296875 -3.367188 100.882812 -2.039062 100.0625 -1.21875 C 99.238281 -0.40625 97.910156 0 96.078125 0 L 73.65625 0 C 71.820312 0 70.492188 -0.40625 69.671875 -1.21875 C 68.847656 -2.039062 68.4375 -3.367188 68.4375 -5.203125 L 68.4375 -27.34375 C 68.4375 -29.46875 68.023438 -31.035156 67.203125 -32.046875 C 66.390625 -33.066406 64.972656 -33.578125 62.953125 -33.578125 L 42.6875 -33.578125 L 42.6875 -5.203125 C 42.6875 -3.367188 42.273438 -2.039062 41.453125 -1.21875 C 40.640625 -0.40625 39.316406 0 37.484375 0 Z M 37.484375 0 "/></g></g><g style="fill:#000000;fill-opacity:1;"><g transform="translate(508.305856, 125.606299)"><path style="stroke:none" d="M 47.75 -73.796875 L 40.953125 -51.796875 L 63.671875 -51.796875 L 56.875 -73.796875 C 56.488281 -74.660156 56.078125 -75.285156 55.640625 -75.671875 C 55.203125 -76.066406 54.695312 -76.265625 54.125 -76.265625 L 50.5 -76.265625 C 49.925781 -76.265625 49.421875 -76.066406 48.984375 -75.671875 C 48.546875 -75.285156 48.132812 -74.660156 47.75 -73.796875 Z M 39.5 -5.203125 C 39.5 -3.367188 39.085938 -2.039062 38.265625 -1.21875 C 37.453125 -0.40625 36.128906 0 34.296875 0 L 13.015625 0 C 11.191406 0 9.867188 -0.40625 9.046875 -1.21875 C 8.222656 -2.039062 7.8125 -3.367188 7.8125 -5.203125 L 7.8125 -43.40625 C 7.8125 -46.300781 8.269531 -49.628906 9.1875 -53.390625 C 10.101562 -57.148438 11.523438 -61.539062 13.453125 -66.5625 L 26.046875 -99.40625 C 26.628906 -101.050781 27.519531 -102.257812 28.71875 -103.03125 C 29.925781 -103.800781 31.492188 -104.1875 33.421875 -104.1875 L 72.359375 -104.1875 C 74.179688 -104.1875 75.695312 -103.800781 76.90625 -103.03125 C 78.113281 -102.257812 79.007812 -101.050781 79.59375 -99.40625 L 92.171875 -66.5625 C 94.097656 -61.539062 95.519531 -57.148438 96.4375 -53.390625 C 97.351562 -49.628906 97.8125 -46.300781 97.8125 -43.40625 L 97.8125 -5.203125 C 97.8125 -3.367188 97.398438 -2.039062 96.578125 -1.21875 C 95.765625 -0.40625 94.441406 0 92.609375 0 L 70.765625 0 C 68.828125 0 67.398438 -0.40625 66.484375 -1.21875 C 65.566406 -2.039062 65.109375 -3.367188 65.109375 -5.203125 L 65.109375 -25.46875 L 39.5 -25.46875 Z M 39.5 -5.203125 "/></g></g><g style="fill:#000000;fill-opacity:1;"><g transform="translate(613.934453, 125.606299)"><path style="stroke:none" d="M 12.875 0 C 11.039062 0 9.710938 -0.40625 8.890625 -1.21875 C 8.078125 -2.039062 7.671875 -3.367188 7.671875 -5.203125 L 7.671875 -22.421875 C 7.671875 -24.253906 8.078125 -25.582031 8.890625 -26.40625 C 9.710938 -27.226562 11.039062 -27.640625 12.875 -27.640625 L 27.203125 -27.640625 L 27.203125 -76.265625 L 12.875 -76.265625 C 11.039062 -76.265625 9.710938 -76.671875 8.890625 -77.484375 C 8.078125 -78.304688 7.671875 -79.632812 7.671875 -81.46875 L 7.671875 -98.984375 C 7.671875 -100.804688 8.078125 -102.128906 8.890625 -102.953125 C 9.710938 -103.773438 11.039062 -104.1875 12.875 -104.1875 L 74.515625 -104.1875 C 76.347656 -104.1875 77.675781 -103.773438 78.5 -102.953125 C 79.320312 -102.128906 79.734375 -100.804688 79.734375 -98.984375 L 79.734375 -81.46875 C 79.734375 -79.632812 79.320312 -78.304688 78.5 -77.484375 C 77.675781 -76.671875 76.347656 -76.265625 74.515625 -76.265625 L 60.484375 -76.265625 L 60.484375 -27.640625 L 74.515625 -27.640625 C 76.347656 -27.640625 77.675781 -27.226562 78.5 -26.40625 C 79.320312 -25.582031 79.734375 -24.253906 79.734375 -22.421875 L 79.734375 -5.203125 C 79.734375 -3.367188 79.320312 -2.039062 78.5 -1.21875 C 77.675781 -0.40625 76.347656 0 74.515625 0 Z M 12.875 0 "/></g></g><g style="fill:#000000;fill-opacity:1;"><g transform="translate(701.475973, 125.606299)"><path style="stroke:none" d="M 36.90625 0 L 15.1875 0 C 13.351562 0 12.023438 -0.40625 11.203125 -1.21875 C 10.390625 -2.039062 9.984375 -3.367188 9.984375 -5.203125 L 9.984375 -98.984375 C 9.984375 -100.804688 10.390625 -102.128906 11.203125 -102.953125 C 12.023438 -103.773438 13.351562 -104.1875 15.1875 -104.1875 L 30.25 -104.1875 C 32.082031 -104.1875 33.648438 -103.894531 34.953125 -103.3125 C 36.253906 -102.738281 37.53125 -101.726562 38.78125 -100.28125 L 66.859375 -68.15625 L 66.859375 -98.984375 C 66.859375 -100.804688 67.265625 -102.128906 68.078125 -102.953125 C 68.898438 -103.773438 70.226562 -104.1875 72.0625 -104.1875 L 93.765625 -104.1875 C 95.597656 -104.1875 96.925781 -103.773438 97.75 -102.953125 C 98.570312 -102.128906 98.984375 -100.804688 98.984375 -98.984375 L 98.984375 -5.203125 C 98.984375 -3.367188 98.570312 -2.039062 97.75 -1.21875 C 96.925781 -0.40625 95.597656 0 93.765625 0 L 72.0625 0 C 70.226562 0 68.898438 -0.40625 68.078125 -1.21875 C 67.265625 -2.039062 66.859375 -3.367188 66.859375 -5.203125 L 66.859375 -23 L 42.109375 -52.96875 L 42.109375 -5.203125 C 42.109375 -3.367188 41.695312 -2.039062 40.875 -1.21875 C 40.0625 -0.40625 38.738281 0 36.90625 0 Z M 36.90625 0 "/></g></g><g style="fill:#ff00ff;fill-opacity:1;"><g transform="translate(806.668731, 129.122003)"><path style="stroke:none" d=""/></g></g><g style="fill:#00ffff;fill-opacity:1;"><g transform="translate(814.209001, 122.090595)"><path style="stroke:none" d=""/></g></g><g style="fill:#000000;fill-opacity:1;"><g transform="translate(810.438866, 125.606299)"><path style="stroke:none" d=""/></g></g></g></g><g style="fill:#ff00ff;fill-opacity:1;"><g transform="translate(163.514157, 166.715669)"><path style="stroke:none" d="M 13.28125 12.546875 C 13.070312 13.734375 12.753906 14.820312 12.328125 15.8125 C 12.046875 16.445312 11.675781 17.046875 11.21875 17.609375 C 10.769531 18.171875 10.265625 18.660156 9.703125 19.078125 C 9.347656 19.359375 8.921875 19.617188 8.421875 19.859375 C 7.929688 20.109375 7.375 20.335938 6.75 20.546875 C 6.1875 20.765625 5.550781 20.90625 4.84375 20.96875 C 4.144531 21.039062 3.375 21.148438 2.53125 21.296875 C 2.039062 21.359375 1.476562 21.40625 0.84375 21.4375 C 0.207031 21.476562 -0.492188 21.5 -1.265625 21.5 L -6.328125 21.5 C -5.691406 20.9375 -5.160156 20.5 -4.734375 20.1875 C -4.316406 19.875 -4.003906 19.609375 -3.796875 19.390625 C -3.085938 18.691406 -2.664062 18.203125 -2.53125 17.921875 C -2.175781 17.566406 -1.929688 17.109375 -1.796875 16.546875 C -1.648438 16.191406 -1.539062 15.628906 -1.46875 14.859375 L 0.421875 0 L 5.0625 -33.515625 L 5.59375 -37.421875 C 5.875 -39.316406 6.097656 -40.878906 6.265625 -42.109375 C 6.441406 -43.335938 6.566406 -44.269531 6.640625 -44.90625 C 7.128906 -47.15625 7.757812 -48.769531 8.53125 -49.75 C 9.59375 -51.019531 11.382812 -51.757812 13.90625 -51.96875 C 15.382812 -52.175781 18.195312 -52.28125 22.34375 -52.28125 L 46.0625 -52.28125 C 47.882812 -52.28125 49.394531 -52.28125 50.59375 -52.28125 C 51.789062 -52.28125 52.703125 -52.210938 53.328125 -52.078125 C 56.640625 -51.859375 58.609375 -51.046875 59.234375 -49.640625 C 59.441406 -49.296875 59.582031 -48.859375 59.65625 -48.328125 C 59.726562 -47.796875 59.765625 -47.21875 59.765625 -46.59375 C 59.765625 -46.3125 59.765625 -46.007812 59.765625 -45.6875 C 59.765625 -45.375 59.726562 -45.007812 59.65625 -44.59375 C 59.65625 -43.394531 59.34375 -41.003906 58.71875 -37.421875 C 58.570312 -36.148438 58.234375 -33.632812 57.703125 -29.875 C 57.179688 -26.125 56.460938 -21.117188 55.546875 -14.859375 C 55.265625 -12.890625 55.019531 -11.238281 54.8125 -9.90625 C 54.601562 -8.570312 54.425781 -7.519531 54.28125 -6.75 C 53.863281 -4.570312 53.128906 -2.988281 52.078125 -2 C 51.296875 -1.226562 49.921875 -0.664062 47.953125 -0.3125 C 46.484375 -0.101562 43.816406 0 39.953125 0 L 15.390625 0 Z M 17.390625 -14.859375 L 38.46875 -14.859375 C 38.6875 -14.929688 38.878906 -14.96875 39.046875 -14.96875 C 39.222656 -14.96875 39.347656 -14.96875 39.421875 -14.96875 C 39.628906 -15.101562 39.875 -15.242188 40.15625 -15.390625 C 40.507812 -15.742188 40.722656 -16.164062 40.796875 -16.65625 C 40.929688 -17.070312 41.035156 -17.738281 41.109375 -18.65625 L 43.75 -37.421875 L 24.875 -37.421875 C 23.613281 -37.421875 22.84375 -37.382812 22.5625 -37.3125 C 21.925781 -37.3125 21.429688 -37.132812 21.078125 -36.78125 C 20.941406 -36.644531 20.765625 -36.257812 20.546875 -35.625 C 20.484375 -35.488281 20.414062 -35.242188 20.34375 -34.890625 C 20.269531 -34.535156 20.164062 -34.078125 20.03125 -33.515625 Z M 17.390625 -14.859375 "/></g></g><g style="fill:#ff00ff;fill-opacity:1;"><g transform="translate(224.222771, 166.715669)"><path style="stroke:none" d="M 26.359375 -73.890625 L 24.140625 -57.765625 L 21.1875 -36.6875 L 18.125 -14.75 C 17.84375 -12.789062 17.597656 -11.160156 17.390625 -9.859375 C 17.179688 -8.554688 16.972656 -7.550781 16.765625 -6.84375 C 16.335938 -4.8125 15.703125 -3.300781 14.859375 -2.3125 C 14.015625 -1.46875 12.71875 -0.835938 10.96875 -0.421875 C 9.488281 -0.210938 6.429688 -0.109375 1.796875 -0.109375 L -3.15625 -0.109375 C -2.382812 -0.878906 -1.753906 -1.472656 -1.265625 -1.890625 C -0.773438 -2.316406 -0.421875 -2.632812 -0.203125 -2.84375 C 0.566406 -3.613281 1.054688 -4.210938 1.265625 -4.640625 C 1.398438 -4.847656 1.503906 -5.039062 1.578125 -5.21875 C 1.648438 -5.394531 1.722656 -5.585938 1.796875 -5.796875 C 1.929688 -6.222656 2.035156 -6.851562 2.109375 -7.6875 L 4.84375 -27.296875 L 6.953125 -41.84375 L 9.28125 -59.03125 C 9.625 -61.28125 9.921875 -63.125 10.171875 -64.5625 C 10.421875 -66 10.613281 -67.070312 10.75 -67.78125 C 11.238281 -69.601562 11.941406 -70.972656 12.859375 -71.890625 C 13.703125 -72.734375 14.929688 -73.257812 16.546875 -73.46875 C 17.316406 -73.601562 18.507812 -73.707031 20.125 -73.78125 C 21.75 -73.851562 23.828125 -73.890625 26.359375 -73.890625 Z M 26.359375 -73.890625 "/></g></g><g style="fill:#ff00ff;fill-opacity:1;"><g transform="translate(248.464058, 166.715669)"><path style="stroke:none" d="M 48.0625 -52.28125 C 51.15625 -52.28125 53.332031 -52.175781 54.59375 -51.96875 C 56.144531 -51.757812 57.203125 -51.40625 57.765625 -50.90625 C 58.816406 -50.207031 59.34375 -48.734375 59.34375 -46.484375 C 59.34375 -46.273438 59.34375 -46.0625 59.34375 -45.84375 C 59.34375 -45.632812 59.304688 -45.359375 59.234375 -45.015625 C 59.234375 -44.378906 59.160156 -43.425781 59.015625 -42.15625 C 58.878906 -40.894531 58.671875 -39.316406 58.390625 -37.421875 L 56.703125 -25.609375 L 55.234375 -14.859375 C 54.953125 -12.328125 54.648438 -10.269531 54.328125 -8.6875 C 54.015625 -7.113281 53.71875 -5.941406 53.4375 -5.171875 C 53.019531 -3.691406 52.316406 -2.566406 51.328125 -1.796875 C 50.554688 -1.234375 49.398438 -0.773438 47.859375 -0.421875 C 47.148438 -0.347656 45.953125 -0.257812 44.265625 -0.15625 C 42.578125 -0.0507812 40.398438 0 37.734375 0 L 14.859375 0 C 12.328125 0 10.253906 -0.0507812 8.640625 -0.15625 C 7.023438 -0.257812 5.832031 -0.347656 5.0625 -0.421875 C 3.582031 -0.773438 2.523438 -1.300781 1.890625 -2 C 1.328125 -2.769531 1.046875 -4 1.046875 -5.6875 L 1.046875 -6.328125 C 1.191406 -7.796875 1.507812 -10.640625 2 -14.859375 L 2.640625 -18.765625 C 2.921875 -20.660156 3.164062 -22.238281 3.375 -23.5 C 3.582031 -24.769531 3.722656 -25.722656 3.796875 -26.359375 C 4.285156 -28.816406 4.988281 -30.5 5.90625 -31.40625 C 6.882812 -32.394531 8.253906 -32.992188 10.015625 -33.203125 C 11.492188 -33.410156 14.195312 -33.515625 18.125 -33.515625 L 40.15625 -33.515625 C 40.582031 -33.515625 40.953125 -33.53125 41.265625 -33.5625 C 41.578125 -33.601562 41.769531 -33.625 41.84375 -33.625 C 42.195312 -33.695312 42.515625 -33.875 42.796875 -34.15625 C 43.003906 -34.363281 43.109375 -34.675781 43.109375 -35.09375 C 43.253906 -35.519531 43.359375 -36.296875 43.421875 -37.421875 L 20.234375 -37.421875 C 18.335938 -37.421875 16.738281 -37.4375 15.4375 -37.46875 C 14.132812 -37.507812 13.171875 -37.5625 12.546875 -37.625 C 10.710938 -37.90625 9.410156 -38.539062 8.640625 -39.53125 C 8.003906 -40.507812 7.582031 -42.125 7.375 -44.375 C 7.375 -45.007812 7.351562 -45.851562 7.3125 -46.90625 C 7.28125 -47.957031 7.265625 -49.148438 7.265625 -50.484375 L 7.265625 -52.28125 Z M 20.03125 -18.765625 C 19.113281 -18.765625 18.585938 -18.726562 18.453125 -18.65625 C 18.234375 -18.65625 17.984375 -18.515625 17.703125 -18.234375 C 17.566406 -18.097656 17.425781 -17.570312 17.28125 -16.65625 C 17.28125 -16.300781 17.175781 -15.703125 16.96875 -14.859375 L 37.625 -14.859375 C 38.050781 -14.859375 38.421875 -14.875 38.734375 -14.90625 C 39.054688 -14.945312 39.25 -14.96875 39.3125 -14.96875 C 39.738281 -15.039062 39.984375 -15.179688 40.046875 -15.390625 C 40.191406 -15.523438 40.332031 -15.875 40.46875 -16.4375 C 40.613281 -16.863281 40.722656 -17.640625 40.796875 -18.765625 Z M 20.03125 -18.765625 "/></g></g><g style="fill:#ff00ff;fill-opacity:1;"><g transform="translate(308.751085, 166.715669)"><path style="stroke:none" d="M 2.953125 -52.390625 L 12.015625 -52.390625 C 14.617188 -52.390625 16.445312 -52.285156 17.5 -52.078125 C 18.90625 -51.859375 19.851562 -51.4375 20.34375 -50.8125 C 20.90625 -50.25 21.1875 -49.15625 21.1875 -47.53125 L 21.1875 -46.265625 C 21.1875 -45.847656 21.097656 -44.898438 20.921875 -43.421875 C 20.742188 -41.953125 20.476562 -39.988281 20.125 -37.53125 L 16.96875 -14.859375 L 36.15625 -14.859375 C 37.5625 -14.859375 38.472656 -14.929688 38.890625 -15.078125 C 39.242188 -15.140625 39.523438 -15.28125 39.734375 -15.5 C 40.015625 -15.914062 40.191406 -16.335938 40.265625 -16.765625 C 40.335938 -16.972656 40.40625 -17.234375 40.46875 -17.546875 C 40.539062 -17.867188 40.613281 -18.238281 40.6875 -18.65625 L 43.328125 -37.53125 L 45.4375 -52.390625 C 47.332031 -52.390625 48.894531 -52.390625 50.125 -52.390625 C 51.351562 -52.390625 52.28125 -52.351562 52.90625 -52.28125 C 55.09375 -52.207031 56.640625 -51.820312 57.546875 -51.125 C 58.609375 -50.488281 59.140625 -49.328125 59.140625 -47.640625 C 59.203125 -47.503906 59.234375 -47.15625 59.234375 -46.59375 C 59.234375 -45.1875 58.921875 -42.164062 58.296875 -37.53125 L 55.125 -14.859375 L 53.015625 0 L 52.078125 6.75 C 51.859375 8.644531 51.644531 10.222656 51.4375 11.484375 C 51.226562 12.753906 51.050781 13.738281 50.90625 14.4375 C 50.488281 16.40625 49.820312 17.988281 48.90625 19.1875 C 48.34375 19.957031 47.289062 20.550781 45.75 20.96875 C 44.269531 21.394531 40.6875 21.609375 35 21.609375 L -3.15625 21.609375 C -2.664062 19.359375 -2.257812 17.53125 -1.9375 16.125 C -1.625 14.71875 -1.363281 13.664062 -1.15625 12.96875 C -0.3125 10.507812 0.738281 8.890625 2 8.109375 C 3.125 7.410156 4.53125 7.023438 6.21875 6.953125 C 6.851562 6.816406 7.75 6.75 8.90625 6.75 C 10.0625 6.75 11.414062 6.75 12.96875 6.75 L 31.203125 6.75 C 32.179688 6.75 32.953125 6.726562 33.515625 6.6875 C 34.078125 6.65625 34.5 6.640625 34.78125 6.640625 C 35.769531 6.429688 36.367188 6.148438 36.578125 5.796875 C 37.066406 5.304688 37.347656 4.675781 37.421875 3.90625 C 37.628906 3.269531 37.835938 1.96875 38.046875 0 L 13.8125 0 C 9.800781 0 7.0625 -0.101562 5.59375 -0.3125 C 3.550781 -0.738281 2.210938 -1.515625 1.578125 -2.640625 C 1.160156 -3.410156 0.953125 -4.460938 0.953125 -5.796875 C 0.953125 -6.710938 1.054688 -7.90625 1.265625 -9.375 C 1.335938 -9.9375 1.425781 -10.675781 1.53125 -11.59375 C 1.632812 -12.507812 1.753906 -13.597656 1.890625 -14.859375 L 5.0625 -37.53125 L 6.109375 -44.6875 C 6.253906 -45.25 6.328125 -45.707031 6.328125 -46.0625 C 6.328125 -46.414062 6.328125 -46.695312 6.328125 -46.90625 C 6.328125 -47.601562 6.253906 -48.09375 6.109375 -48.375 C 6.046875 -48.65625 5.925781 -48.953125 5.75 -49.265625 C 5.570312 -49.585938 5.304688 -49.890625 4.953125 -50.171875 C 4.816406 -50.378906 4.585938 -50.675781 4.265625 -51.0625 C 3.953125 -51.457031 3.515625 -51.898438 2.953125 -52.390625 Z M 2.953125 -52.390625 "/></g></g><g style="fill:#00ffff;fill-opacity:1;"><g transform="translate(158.243872, 166.715669)"><path style="stroke:none" d="M 13.28125 12.546875 C 13.070312 13.734375 12.753906 14.820312 12.328125 15.8125 C 12.046875 16.445312 11.675781 17.046875 11.21875 17.609375 C 10.769531 18.171875 10.265625 18.660156 9.703125 19.078125 C 9.347656 19.359375 8.921875 19.617188 8.421875 19.859375 C 7.929688 20.109375 7.375 20.335938 6.75 20.546875 C 6.1875 20.765625 5.550781 20.90625 4.84375 20.96875 C 4.144531 21.039062 3.375 21.148438 2.53125 21.296875 C 2.039062 21.359375 1.476562 21.40625 0.84375 21.4375 C 0.207031 21.476562 -0.492188 21.5 -1.265625 21.5 L -6.328125 21.5 C -5.691406 20.9375 -5.160156 20.5 -4.734375 20.1875 C -4.316406 19.875 -4.003906 19.609375 -3.796875 19.390625 C -3.085938 18.691406 -2.664062 18.203125 -2.53125 17.921875 C -2.175781 17.566406 -1.929688 17.109375 -1.796875 16.546875 C -1.648438 16.191406 -1.539062 15.628906 -1.46875 14.859375 L 0.421875 0 L 5.0625 -33.515625 L 5.59375 -37.421875 C 5.875 -39.316406 6.097656 -40.878906 6.265625 -42.109375 C 6.441406 -43.335938 6.566406 -44.269531 6.640625 -44.90625 C 7.128906 -47.15625 7.757812 -48.769531 8.53125 -49.75 C 9.59375 -51.019531 11.382812 -51.757812 13.90625 -51.96875 C 15.382812 -52.175781 18.195312 -52.28125 22.34375 -52.28125 L 46.0625 -52.28125 C 47.882812 -52.28125 49.394531 -52.28125 50.59375 -52.28125 C 51.789062 -52.28125 52.703125 -52.210938 53.328125 -52.078125 C 56.640625 -51.859375 58.609375 -51.046875 59.234375 -49.640625 C 59.441406 -49.296875 59.582031 -48.859375 59.65625 -48.328125 C 59.726562 -47.796875 59.765625 -47.21875 59.765625 -46.59375 C 59.765625 -46.3125 59.765625 -46.007812 59.765625 -45.6875 C 59.765625 -45.375 59.726562 -45.007812 59.65625 -44.59375 C 59.65625 -43.394531 59.34375 -41.003906 58.71875 -37.421875 C 58.570312 -36.148438 58.234375 -33.632812 57.703125 -29.875 C 57.179688 -26.125 56.460938 -21.117188 55.546875 -14.859375 C 55.265625 -12.890625 55.019531 -11.238281 54.8125 -9.90625 C 54.601562 -8.570312 54.425781 -7.519531 54.28125 -6.75 C 53.863281 -4.570312 53.128906 -2.988281 52.078125 -2 C 51.296875 -1.226562 49.921875 -0.664062 47.953125 -0.3125 C 46.484375 -0.101562 43.816406 0 39.953125 0 L 15.390625 0 Z M 17.390625 -14.859375 L 38.46875 -14.859375 C 38.6875 -14.929688 38.878906 -14.96875 39.046875 -14.96875 C 39.222656 -14.96875 39.347656 -14.96875 39.421875 -14.96875 C 39.628906 -15.101562 39.875 -15.242188 40.15625 -15.390625 C 40.507812 -15.742188 40.722656 -16.164062 40.796875 -16.65625 C 40.929688 -17.070312 41.035156 -17.738281 41.109375 -18.65625 L 43.75 -37.421875 L 24.875 -37.421875 C 23.613281 -37.421875 22.84375 -37.382812 22.5625 -37.3125 C 21.925781 -37.3125 21.429688 -37.132812 21.078125 -36.78125 C 20.941406 -36.644531 20.765625 -36.257812 20.546875 -35.625 C 20.484375 -35.488281 20.414062 -35.242188 20.34375 -34.890625 C 20.269531 -34.535156 20.164062 -34.078125 20.03125 -33.515625 Z M 17.390625 -14.859375 "/></g></g><g style="fill:#00ffff;fill-opacity:1;"><g transform="translate(218.952486, 166.715669)"><path style="stroke:none" d="M 26.359375 -73.890625 L 24.140625 -57.765625 L 21.1875 -36.6875 L 18.125 -14.75 C 17.84375 -12.789062 17.597656 -11.160156 17.390625 -9.859375 C 17.179688 -8.554688 16.972656 -7.550781 16.765625 -6.84375 C 16.335938 -4.8125 15.703125 -3.300781 14.859375 -2.3125 C 14.015625 -1.46875 12.71875 -0.835938 10.96875 -0.421875 C 9.488281 -0.210938 6.429688 -0.109375 1.796875 -0.109375 L -3.15625 -0.109375 C -2.382812 -0.878906 -1.753906 -1.472656 -1.265625 -1.890625 C -0.773438 -2.316406 -0.421875 -2.632812 -0.203125 -2.84375 C 0.566406 -3.613281 1.054688 -4.210938 1.265625 -4.640625 C 1.398438 -4.847656 1.503906 -5.039062 1.578125 -5.21875 C 1.648438 -5.394531 1.722656 -5.585938 1.796875 -5.796875 C 1.929688 -6.222656 2.035156 -6.851562 2.109375 -7.6875 L 4.84375 -27.296875 L 6.953125 -41.84375 L 9.28125 -59.03125 C 9.625 -61.28125 9.921875 -63.125 10.171875 -64.5625 C 10.421875 -66 10.613281 -67.070312 10.75 -67.78125 C 11.238281 -69.601562 11.941406 -70.972656 12.859375 -71.890625 C 13.703125 -72.734375 14.929688 -73.257812 16.546875 -73.46875 C 17.316406 -73.601562 18.507812 -73.707031 20.125 -73.78125 C 21.75 -73.851562 23.828125 -73.890625 26.359375 -73.890625 Z M 26.359375 -73.890625 "/></g></g><g style="fill:#00ffff;fill-opacity:1;"><g transform="translate(243.193773, 166.715669)"><path style="stroke:none" d="M 48.0625 -52.28125 C 51.15625 -52.28125 53.332031 -52.175781 54.59375 -51.96875 C 56.144531 -51.757812 57.203125 -51.40625 57.765625 -50.90625 C 58.816406 -50.207031 59.34375 -48.734375 59.34375 -46.484375 C 59.34375 -46.273438 59.34375 -46.0625 59.34375 -45.84375 C 59.34375 -45.632812 59.304688 -45.359375 59.234375 -45.015625 C 59.234375 -44.378906 59.160156 -43.425781 59.015625 -42.15625 C 58.878906 -40.894531 58.671875 -39.316406 58.390625 -37.421875 L 56.703125 -25.609375 L 55.234375 -14.859375 C 54.953125 -12.328125 54.648438 -10.269531 54.328125 -8.6875 C 54.015625 -7.113281 53.71875 -5.941406 53.4375 -5.171875 C 53.019531 -3.691406 52.316406 -2.566406 51.328125 -1.796875 C 50.554688 -1.234375 49.398438 -0.773438 47.859375 -0.421875 C 47.148438 -0.347656 45.953125 -0.257812 44.265625 -0.15625 C 42.578125 -0.0507812 40.398438 0 37.734375 0 L 14.859375 0 C 12.328125 0 10.253906 -0.0507812 8.640625 -0.15625 C 7.023438 -0.257812 5.832031 -0.347656 5.0625 -0.421875 C 3.582031 -0.773438 2.523438 -1.300781 1.890625 -2 C 1.328125 -2.769531 1.046875 -4 1.046875 -5.6875 L 1.046875 -6.328125 C 1.191406 -7.796875 1.507812 -10.640625 2 -14.859375 L 2.640625 -18.765625 C 2.921875 -20.660156 3.164062 -22.238281 3.375 -23.5 C 3.582031 -24.769531 3.722656 -25.722656 3.796875 -26.359375 C 4.285156 -28.816406 4.988281 -30.5 5.90625 -31.40625 C 6.882812 -32.394531 8.253906 -32.992188 10.015625 -33.203125 C 11.492188 -33.410156 14.195312 -33.515625 18.125 -33.515625 L 40.15625 -33.515625 C 40.582031 -33.515625 40.953125 -33.53125 41.265625 -33.5625 C 41.578125 -33.601562 41.769531 -33.625 41.84375 -33.625 C 42.195312 -33.695312 42.515625 -33.875 42.796875 -34.15625 C 43.003906 -34.363281 43.109375 -34.675781 43.109375 -35.09375 C 43.253906 -35.519531 43.359375 -36.296875 43.421875 -37.421875 L 20.234375 -37.421875 C 18.335938 -37.421875 16.738281 -37.4375 15.4375 -37.46875 C 14.132812 -37.507812 13.171875 -37.5625 12.546875 -37.625 C 10.710938 -37.90625 9.410156 -38.539062 8.640625 -39.53125 C 8.003906 -40.507812 7.582031 -42.125 7.375 -44.375 C 7.375 -45.007812 7.351562 -45.851562 7.3125 -46.90625 C 7.28125 -47.957031 7.265625 -49.148438 7.265625 -50.484375 L 7.265625 -52.28125 Z M 20.03125 -18.765625 C 19.113281 -18.765625 18.585938 -18.726562 18.453125 -18.65625 C 18.234375 -18.65625 17.984375 -18.515625 17.703125 -18.234375 C 17.566406 -18.097656 17.425781 -17.570312 17.28125 -16.65625 C 17.28125 -16.300781 17.175781 -15.703125 16.96875 -14.859375 L 37.625 -14.859375 C 38.050781 -14.859375 38.421875 -14.875 38.734375 -14.90625 C 39.054688 -14.945312 39.25 -14.96875 39.3125 -14.96875 C 39.738281 -15.039062 39.984375 -15.179688 40.046875 -15.390625 C 40.191406 -15.523438 40.332031 -15.875 40.46875 -16.4375 C 40.613281 -16.863281 40.722656 -17.640625 40.796875 -18.765625 Z M 20.03125 -18.765625 "/></g></g><g style="fill:#00ffff;fill-opacity:1;"><g transform="translate(303.480801, 166.715669)"><path style="stroke:none" d="M 2.953125 -52.390625 L 12.015625 -52.390625 C 14.617188 -52.390625 16.445312 -52.285156 17.5 -52.078125 C 18.90625 -51.859375 19.851562 -51.4375 20.34375 -50.8125 C 20.90625 -50.25 21.1875 -49.15625 21.1875 -47.53125 L 21.1875 -46.265625 C 21.1875 -45.847656 21.097656 -44.898438 20.921875 -43.421875 C 20.742188 -41.953125 20.476562 -39.988281 20.125 -37.53125 L 16.96875 -14.859375 L 36.15625 -14.859375 C 37.5625 -14.859375 38.472656 -14.929688 38.890625 -15.078125 C 39.242188 -15.140625 39.523438 -15.28125 39.734375 -15.5 C 40.015625 -15.914062 40.191406 -16.335938 40.265625 -16.765625 C 40.335938 -16.972656 40.40625 -17.234375 40.46875 -17.546875 C 40.539062 -17.867188 40.613281 -18.238281 40.6875 -18.65625 L 43.328125 -37.53125 L 45.4375 -52.390625 C 47.332031 -52.390625 48.894531 -52.390625 50.125 -52.390625 C 51.351562 -52.390625 52.28125 -52.351562 52.90625 -52.28125 C 55.09375 -52.207031 56.640625 -51.820312 57.546875 -51.125 C 58.609375 -50.488281 59.140625 -49.328125 59.140625 -47.640625 C 59.203125 -47.503906 59.234375 -47.15625 59.234375 -46.59375 C 59.234375 -45.1875 58.921875 -42.164062 58.296875 -37.53125 L 55.125 -14.859375 L 53.015625 0 L 52.078125 6.75 C 51.859375 8.644531 51.644531 10.222656 51.4375 11.484375 C 51.226562 12.753906 51.050781 13.738281 50.90625 14.4375 C 50.488281 16.40625 49.820312 17.988281 48.90625 19.1875 C 48.34375 19.957031 47.289062 20.550781 45.75 20.96875 C 44.269531 21.394531 40.6875 21.609375 35 21.609375 L -3.15625 21.609375 C -2.664062 19.359375 -2.257812 17.53125 -1.9375 16.125 C -1.625 14.71875 -1.363281 13.664062 -1.15625 12.96875 C -0.3125 10.507812 0.738281 8.890625 2 8.109375 C 3.125 7.410156 4.53125 7.023438 6.21875 6.953125 C 6.851562 6.816406 7.75 6.75 8.90625 6.75 C 10.0625 6.75 11.414062 6.75 12.96875 6.75 L 31.203125 6.75 C 32.179688 6.75 32.953125 6.726562 33.515625 6.6875 C 34.078125 6.65625 34.5 6.640625 34.78125 6.640625 C 35.769531 6.429688 36.367188 6.148438 36.578125 5.796875 C 37.066406 5.304688 37.347656 4.675781 37.421875 3.90625 C 37.628906 3.269531 37.835938 1.96875 38.046875 0 L 13.8125 0 C 9.800781 0 7.0625 -0.101562 5.59375 -0.3125 C 3.550781 -0.738281 2.210938 -1.515625 1.578125 -2.640625 C 1.160156 -3.410156 0.953125 -4.460938 0.953125 -5.796875 C 0.953125 -6.710938 1.054688 -7.90625 1.265625 -9.375 C 1.335938 -9.9375 1.425781 -10.675781 1.53125 -11.59375 C 1.632812 -12.507812 1.753906 -13.597656 1.890625 -14.859375 L 5.0625 -37.53125 L 6.109375 -44.6875 C 6.253906 -45.25 6.328125 -45.707031 6.328125 -46.0625 C 6.328125 -46.414062 6.328125 -46.695312 6.328125 -46.90625 C 6.328125 -47.601562 6.253906 -48.09375 6.109375 -48.375 C 6.046875 -48.65625 5.925781 -48.953125 5.75 -49.265625 C 5.570312 -49.585938 5.304688 -49.890625 4.953125 -50.171875 C 4.816406 -50.378906 4.585938 -50.675781 4.265625 -51.0625 C 3.953125 -51.457031 3.515625 -51.898438 2.953125 -52.390625 Z M 2.953125 -52.390625 "/></g></g><g style="fill:#ee3ec9;fill-opacity:1;"><g transform="translate(160.879015, 166.715669)"><path style="stroke:none" d="M 13.28125 12.546875 C 13.070312 13.734375 12.753906 14.820312 12.328125 15.8125 C 12.046875 16.445312 11.675781 17.046875 11.21875 17.609375 C 10.769531 18.171875 10.265625 18.660156 9.703125 19.078125 C 9.347656 19.359375 8.921875 19.617188 8.421875 19.859375 C 7.929688 20.109375 7.375 20.335938 6.75 20.546875 C 6.1875 20.765625 5.550781 20.90625 4.84375 20.96875 C 4.144531 21.039062 3.375 21.148438 2.53125 21.296875 C 2.039062 21.359375 1.476562 21.40625 0.84375 21.4375 C 0.207031 21.476562 -0.492188 21.5 -1.265625 21.5 L -6.328125 21.5 C -5.691406 20.9375 -5.160156 20.5 -4.734375 20.1875 C -4.316406 19.875 -4.003906 19.609375 -3.796875 19.390625 C -3.085938 18.691406 -2.664062 18.203125 -2.53125 17.921875 C -2.175781 17.566406 -1.929688 17.109375 -1.796875 16.546875 C -1.648438 16.191406 -1.539062 15.628906 -1.46875 14.859375 L 0.421875 0 L 5.0625 -33.515625 L 5.59375 -37.421875 C 5.875 -39.316406 6.097656 -40.878906 6.265625 -42.109375 C 6.441406 -43.335938 6.566406 -44.269531 6.640625 -44.90625 C 7.128906 -47.15625 7.757812 -48.769531 8.53125 -49.75 C 9.59375 -51.019531 11.382812 -51.757812 13.90625 -51.96875 C 15.382812 -52.175781 18.195312 -52.28125 22.34375 -52.28125 L 46.0625 -52.28125 C 47.882812 -52.28125 49.394531 -52.28125 50.59375 -52.28125 C 51.789062 -52.28125 52.703125 -52.210938 53.328125 -52.078125 C 56.640625 -51.859375 58.609375 -51.046875 59.234375 -49.640625 C 59.441406 -49.296875 59.582031 -48.859375 59.65625 -48.328125 C 59.726562 -47.796875 59.765625 -47.21875 59.765625 -46.59375 C 59.765625 -46.3125 59.765625 -46.007812 59.765625 -45.6875 C 59.765625 -45.375 59.726562 -45.007812 59.65625 -44.59375 C 59.65625 -43.394531 59.34375 -41.003906 58.71875 -37.421875 C 58.570312 -36.148438 58.234375 -33.632812 57.703125 -29.875 C 57.179688 -26.125 56.460938 -21.117188 55.546875 -14.859375 C 55.265625 -12.890625 55.019531 -11.238281 54.8125 -9.90625 C 54.601562 -8.570312 54.425781 -7.519531 54.28125 -6.75 C 53.863281 -4.570312 53.128906 -2.988281 52.078125 -2 C 51.296875 -1.226562 49.921875 -0.664062 47.953125 -0.3125 C 46.484375 -0.101562 43.816406 0 39.953125 0 L 15.390625 0 Z M 17.390625 -14.859375 L 38.46875 -14.859375 C 38.6875 -14.929688 38.878906 -14.96875 39.046875 -14.96875 C 39.222656 -14.96875 39.347656 -14.96875 39.421875 -14.96875 C 39.628906 -15.101562 39.875 -15.242188 40.15625 -15.390625 C 40.507812 -15.742188 40.722656 -16.164062 40.796875 -16.65625 C 40.929688 -17.070312 41.035156 -17.738281 41.109375 -18.65625 L 43.75 -37.421875 L 24.875 -37.421875 C 23.613281 -37.421875 22.84375 -37.382812 22.5625 -37.3125 C 21.925781 -37.3125 21.429688 -37.132812 21.078125 -36.78125 C 20.941406 -36.644531 20.765625 -36.257812 20.546875 -35.625 C 20.484375 -35.488281 20.414062 -35.242188 20.34375 -34.890625 C 20.269531 -34.535156 20.164062 -34.078125 20.03125 -33.515625 Z M 17.390625 -14.859375 "/></g></g><g style="fill:#ee3ec9;fill-opacity:1;"><g transform="translate(221.58763, 166.715669)"><path style="stroke:none" d="M 26.359375 -73.890625 L 24.140625 -57.765625 L 21.1875 -36.6875 L 18.125 -14.75 C 17.84375 -12.789062 17.597656 -11.160156 17.390625 -9.859375 C 17.179688 -8.554688 16.972656 -7.550781 16.765625 -6.84375 C 16.335938 -4.8125 15.703125 -3.300781 14.859375 -2.3125 C 14.015625 -1.46875 12.71875 -0.835938 10.96875 -0.421875 C 9.488281 -0.210938 6.429688 -0.109375 1.796875 -0.109375 L -3.15625 -0.109375 C -2.382812 -0.878906 -1.753906 -1.472656 -1.265625 -1.890625 C -0.773438 -2.316406 -0.421875 -2.632812 -0.203125 -2.84375 C 0.566406 -3.613281 1.054688 -4.210938 1.265625 -4.640625 C 1.398438 -4.847656 1.503906 -5.039062 1.578125 -5.21875 C 1.648438 -5.394531 1.722656 -5.585938 1.796875 -5.796875 C 1.929688 -6.222656 2.035156 -6.851562 2.109375 -7.6875 L 4.84375 -27.296875 L 6.953125 -41.84375 L 9.28125 -59.03125 C 9.625 -61.28125 9.921875 -63.125 10.171875 -64.5625 C 10.421875 -66 10.613281 -67.070312 10.75 -67.78125 C 11.238281 -69.601562 11.941406 -70.972656 12.859375 -71.890625 C 13.703125 -72.734375 14.929688 -73.257812 16.546875 -73.46875 C 17.316406 -73.601562 18.507812 -73.707031 20.125 -73.78125 C 21.75 -73.851562 23.828125 -73.890625 26.359375 -73.890625 Z M 26.359375 -73.890625 "/></g></g><g style="fill:#ee3ec9;fill-opacity:1;"><g transform="translate(245.828917, 166.715669)"><path style="stroke:none" d="M 48.0625 -52.28125 C 51.15625 -52.28125 53.332031 -52.175781 54.59375 -51.96875 C 56.144531 -51.757812 57.203125 -51.40625 57.765625 -50.90625 C 58.816406 -50.207031 59.34375 -48.734375 59.34375 -46.484375 C 59.34375 -46.273438 59.34375 -46.0625 59.34375 -45.84375 C 59.34375 -45.632812 59.304688 -45.359375 59.234375 -45.015625 C 59.234375 -44.378906 59.160156 -43.425781 59.015625 -42.15625 C 58.878906 -40.894531 58.671875 -39.316406 58.390625 -37.421875 L 56.703125 -25.609375 L 55.234375 -14.859375 C 54.953125 -12.328125 54.648438 -10.269531 54.328125 -8.6875 C 54.015625 -7.113281 53.71875 -5.941406 53.4375 -5.171875 C 53.019531 -3.691406 52.316406 -2.566406 51.328125 -1.796875 C 50.554688 -1.234375 49.398438 -0.773438 47.859375 -0.421875 C 47.148438 -0.347656 45.953125 -0.257812 44.265625 -0.15625 C 42.578125 -0.0507812 40.398438 0 37.734375 0 L 14.859375 0 C 12.328125 0 10.253906 -0.0507812 8.640625 -0.15625 C 7.023438 -0.257812 5.832031 -0.347656 5.0625 -0.421875 C 3.582031 -0.773438 2.523438 -1.300781 1.890625 -2 C 1.328125 -2.769531 1.046875 -4 1.046875 -5.6875 L 1.046875 -6.328125 C 1.191406 -7.796875 1.507812 -10.640625 2 -14.859375 L 2.640625 -18.765625 C 2.921875 -20.660156 3.164062 -22.238281 3.375 -23.5 C 3.582031 -24.769531 3.722656 -25.722656 3.796875 -26.359375 C 4.285156 -28.816406 4.988281 -30.5 5.90625 -31.40625 C 6.882812 -32.394531 8.253906 -32.992188 10.015625 -33.203125 C 11.492188 -33.410156 14.195312 -33.515625 18.125 -33.515625 L 40.15625 -33.515625 C 40.582031 -33.515625 40.953125 -33.53125 41.265625 -33.5625 C 41.578125 -33.601562 41.769531 -33.625 41.84375 -33.625 C 42.195312 -33.695312 42.515625 -33.875 42.796875 -34.15625 C 43.003906 -34.363281 43.109375 -34.675781 43.109375 -35.09375 C 43.253906 -35.519531 43.359375 -36.296875 43.421875 -37.421875 L 20.234375 -37.421875 C 18.335938 -37.421875 16.738281 -37.4375 15.4375 -37.46875 C 14.132812 -37.507812 13.171875 -37.5625 12.546875 -37.625 C 10.710938 -37.90625 9.410156 -38.539062 8.640625 -39.53125 C 8.003906 -40.507812 7.582031 -42.125 7.375 -44.375 C 7.375 -45.007812 7.351562 -45.851562 7.3125 -46.90625 C 7.28125 -47.957031 7.265625 -49.148438 7.265625 -50.484375 L 7.265625 -52.28125 Z M 20.03125 -18.765625 C 19.113281 -18.765625 18.585938 -18.726562 18.453125 -18.65625 C 18.234375 -18.65625 17.984375 -18.515625 17.703125 -18.234375 C 17.566406 -18.097656 17.425781 -17.570312 17.28125 -16.65625 C 17.28125 -16.300781 17.175781 -15.703125 16.96875 -14.859375 L 37.625 -14.859375 C 38.050781 -14.859375 38.421875 -14.875 38.734375 -14.90625 C 39.054688 -14.945312 39.25 -14.96875 39.3125 -14.96875 C 39.738281 -15.039062 39.984375 -15.179688 40.046875 -15.390625 C 40.191406 -15.523438 40.332031 -15.875 40.46875 -16.4375 C 40.613281 -16.863281 40.722656 -17.640625 40.796875 -18.765625 Z M 20.03125 -18.765625 "/></g></g><g style="fill:#ee3ec9;fill-opacity:1;"><g transform="translate(306.115944, 166.715669)"><path style="stroke:none" d="M 2.953125 -52.390625 L 12.015625 -52.390625 C 14.617188 -52.390625 16.445312 -52.285156 17.5 -52.078125 C 18.90625 -51.859375 19.851562 -51.4375 20.34375 -50.8125 C 20.90625 -50.25 21.1875 -49.15625 21.1875 -47.53125 L 21.1875 -46.265625 C 21.1875 -45.847656 21.097656 -44.898438 20.921875 -43.421875 C 20.742188 -41.953125 20.476562 -39.988281 20.125 -37.53125 L 16.96875 -14.859375 L 36.15625 -14.859375 C 37.5625 -14.859375 38.472656 -14.929688 38.890625 -15.078125 C 39.242188 -15.140625 39.523438 -15.28125 39.734375 -15.5 C 40.015625 -15.914062 40.191406 -16.335938 40.265625 -16.765625 C 40.335938 -16.972656 40.40625 -17.234375 40.46875 -17.546875 C 40.539062 -17.867188 40.613281 -18.238281 40.6875 -18.65625 L 43.328125 -37.53125 L 45.4375 -52.390625 C 47.332031 -52.390625 48.894531 -52.390625 50.125 -52.390625 C 51.351562 -52.390625 52.28125 -52.351562 52.90625 -52.28125 C 55.09375 -52.207031 56.640625 -51.820312 57.546875 -51.125 C 58.609375 -50.488281 59.140625 -49.328125 59.140625 -47.640625 C 59.203125 -47.503906 59.234375 -47.15625 59.234375 -46.59375 C 59.234375 -45.1875 58.921875 -42.164062 58.296875 -37.53125 L 55.125 -14.859375 L 53.015625 0 L 52.078125 6.75 C 51.859375 8.644531 51.644531 10.222656 51.4375 11.484375 C 51.226562 12.753906 51.050781 13.738281 50.90625 14.4375 C 50.488281 16.40625 49.820312 17.988281 48.90625 19.1875 C 48.34375 19.957031 47.289062 20.550781 45.75 20.96875 C 44.269531 21.394531 40.6875 21.609375 35 21.609375 L -3.15625 21.609375 C -2.664062 19.359375 -2.257812 17.53125 -1.9375 16.125 C -1.625 14.71875 -1.363281 13.664062 -1.15625 12.96875 C -0.3125 10.507812 0.738281 8.890625 2 8.109375 C 3.125 7.410156 4.53125 7.023438 6.21875 6.953125 C 6.851562 6.816406 7.75 6.75 8.90625 6.75 C 10.0625 6.75 11.414062 6.75 12.96875 6.75 L 31.203125 6.75 C 32.179688 6.75 32.953125 6.726562 33.515625 6.6875 C 34.078125 6.65625 34.5 6.640625 34.78125 6.640625 C 35.769531 6.429688 36.367188 6.148438 36.578125 5.796875 C 37.066406 5.304688 37.347656 4.675781 37.421875 3.90625 C 37.628906 3.269531 37.835938 1.96875 38.046875 0 L 13.8125 0 C 9.800781 0 7.0625 -0.101562 5.59375 -0.3125 C 3.550781 -0.738281 2.210938 -1.515625 1.578125 -2.640625 C 1.160156 -3.410156 0.953125 -4.460938 0.953125 -5.796875 C 0.953125 -6.710938 1.054688 -7.90625 1.265625 -9.375 C 1.335938 -9.9375 1.425781 -10.675781 1.53125 -11.59375 C 1.632812 -12.507812 1.753906 -13.597656 1.890625 -14.859375 L 5.0625 -37.53125 L 6.109375 -44.6875 C 6.253906 -45.25 6.328125 -45.707031 6.328125 -46.0625 C 6.328125 -46.414062 6.328125 -46.695312 6.328125 -46.90625 C 6.328125 -47.601562 6.253906 -48.09375 6.109375 -48.375 C 6.046875 -48.65625 5.925781 -48.953125 5.75 -49.265625 C 5.570312 -49.585938 5.304688 -49.890625 4.953125 -50.171875 C 4.816406 -50.378906 4.585938 -50.675781 4.265625 -51.0625 C 3.953125 -51.457031 3.515625 -51.898438 2.953125 -52.390625 Z M 2.953125 -52.390625 "/></g></g></g></svg>