<svg xmlns="http://www.w3.org/2000/svg" xmlns:xlink="http://www.w3.org/1999/xlink" width="1260" zoomAndPan="magnify" viewBox="0 0 944.88 397.499983" height="530" preserveAspectRatio="xMidYMid meet" version="1.2"><defs><clipPath id="664f23970c"><path d="M 114 0.191406 L 813.65625 0.191406 L 813.65625 125.3125 L 114 125.3125 Z M 114 0.191406 "/></clipPath><clipPath id="96751f0020"><rect x="0" width="700" y="0" height="126"/></clipPath><clipPath id="8fb45f1592"><rect x="0" width="814" y="0" height="126"/></clipPath></defs><g id="b41de72863"><g transform="matrix(1,0,0,1,10,135)"><g clip-path="url(#8fb45f1592)"><g clip-rule="nonzero" clip-path="url(#664f23970c)"><g transform="matrix(1,0,0,1,114,-0.000000000000028422)"><g id="68a10f7596" clip-path="url(#96751f0020)"><g style="fill:#ff00ff;fill-opacity:1;"><g transform="translate(-2.247926, 110.553574)"><path style="stroke:none" d="M 60.734375 0 L 13.046875 0 C 11.472656 0 10.332031 -0.347656 9.625 -1.046875 C 8.914062 -1.753906 8.5625 -2.894531 8.5625 -4.46875 L 8.5625 -84.953125 C 8.5625 -86.523438 8.914062 -87.660156 9.625 -88.359375 C 10.332031 -89.066406 11.472656 -89.421875 13.046875 -89.421875 L 52.65625 -89.421875 C 60.769531 -89.421875 66.773438 -87.867188 70.671875 -84.765625 C 74.566406 -81.660156 76.515625 -76.878906 76.515625 -70.421875 L 76.515625 -64.46875 C 76.515625 -60.988281 75.910156 -58.148438 74.703125 -55.953125 C 73.503906 -53.753906 71.664062 -52.117188 69.1875 -51.046875 C 74.476562 -50.546875 78.40625 -48.722656 80.96875 -45.578125 C 83.539062 -42.429688 84.828125 -37.835938 84.828125 -31.796875 L 84.828125 -20.375 C 84.828125 -13.414062 82.859375 -8.28125 78.921875 -4.96875 C 74.992188 -1.65625 68.929688 0 60.734375 0 Z M 36.515625 -68.3125 L 36.515625 -54.890625 L 47.078125 -54.890625 C 48.648438 -54.890625 49.828125 -55.300781 50.609375 -56.125 C 51.398438 -56.957031 51.796875 -58.203125 51.796875 -59.859375 L 51.796875 -63.34375 C 51.796875 -65 51.398438 -66.238281 50.609375 -67.0625 C 49.828125 -67.894531 48.648438 -68.3125 47.078125 -68.3125 Z M 36.515625 -35.765625 L 36.515625 -21.109375 L 52.65625 -21.109375 C 54.226562 -21.109375 55.40625 -21.519531 56.1875 -22.34375 C 56.976562 -23.175781 57.375 -24.421875 57.375 -26.078125 L 57.375 -30.921875 C 57.375 -32.578125 56.976562 -33.796875 56.1875 -34.578125 C 55.40625 -35.367188 54.226562 -35.765625 52.65625 -35.765625 Z M 36.515625 -35.765625 "/></g></g><g style="fill:#ff00ff;fill-opacity:1;"><g transform="translate(87.793275, 110.553574)"><path style="stroke:none" d="M 11.046875 0 C 9.472656 0 8.332031 -0.347656 7.625 -1.046875 C 6.925781 -1.753906 6.578125 -2.894531 6.578125 -4.46875 L 6.578125 -19.25 C 6.578125 -20.820312 6.925781 -21.957031 7.625 -22.65625 C 8.332031 -23.363281 9.472656 -23.71875 11.046875 -23.71875 L 23.34375 -23.71875 L 23.34375 -65.453125 L 11.046875 -65.453125 C 9.472656 -65.453125 8.332031 -65.800781 7.625 -66.5 C 6.925781 -67.207031 6.578125 -68.347656 6.578125 -69.921875 L 6.578125 -84.953125 C 6.578125 -86.523438 6.925781 -87.660156 7.625 -88.359375 C 8.332031 -89.066406 9.472656 -89.421875 11.046875 -89.421875 L 63.96875 -89.421875 C 65.539062 -89.421875 66.675781 -89.066406 67.375 -88.359375 C 68.082031 -87.660156 68.4375 -86.523438 68.4375 -84.953125 L 68.4375 -69.921875 C 68.4375 -68.347656 68.082031 -67.207031 67.375 -66.5 C 66.675781 -65.800781 65.539062 -65.453125 63.96875 -65.453125 L 51.921875 -65.453125 L 51.921875 -23.71875 L 63.96875 -23.71875 C 65.539062 -23.71875 66.675781 -23.363281 67.375 -22.65625 C 68.082031 -21.957031 68.4375 -20.820312 68.4375 -19.25 L 68.4375 -4.46875 C 68.4375 -2.894531 68.082031 -1.753906 67.375 -1.046875 C 66.675781 -0.347656 65.539062 0 63.96875 0 Z M 11.046875 0 "/></g></g><g style="fill:#ff00ff;fill-opacity:1;"><g transform="translate(162.9311, 110.553574)"><path style="stroke:none" d="M 76.875 0 L 37.75 0 C 27.40625 0 19.726562 -2.066406 14.71875 -6.203125 C 9.707031 -10.347656 7.203125 -16.726562 7.203125 -25.34375 L 7.203125 -64.09375 C 7.203125 -72.695312 9.707031 -79.066406 14.71875 -83.203125 C 19.726562 -87.347656 27.40625 -89.421875 37.75 -89.421875 L 68.8125 -89.421875 C 70.382812 -89.421875 71.519531 -89.066406 72.21875 -88.359375 C 72.925781 -87.660156 73.28125 -86.523438 73.28125 -84.953125 L 73.28125 -69.921875 C 73.28125 -68.347656 72.925781 -67.207031 72.21875 -66.5 C 71.519531 -65.800781 70.382812 -65.453125 68.8125 -65.453125 L 42.96875 -65.453125 C 40.40625 -65.453125 38.5 -64.929688 37.25 -63.890625 C 36.007812 -62.859375 35.390625 -61.3125 35.390625 -59.25 L 35.390625 -29.5625 C 35.390625 -27.488281 35.863281 -25.953125 36.8125 -24.953125 C 37.769531 -23.960938 39.203125 -23.46875 41.109375 -23.46875 L 53.15625 -23.46875 L 53.15625 -42.84375 C 53.15625 -44.414062 53.503906 -45.554688 54.203125 -46.265625 C 54.910156 -46.972656 56.050781 -47.328125 57.625 -47.328125 L 76.875 -47.328125 C 78.445312 -47.328125 79.585938 -46.972656 80.296875 -46.265625 C 81.003906 -45.554688 81.359375 -44.414062 81.359375 -42.84375 L 81.359375 -4.46875 C 81.359375 -2.894531 81.003906 -1.753906 80.296875 -1.046875 C 79.585938 -0.347656 78.445312 0 76.875 0 Z M 76.875 0 "/></g></g><g style="fill:#ff00ff;fill-opacity:1;"><g transform="translate(250.860983, 110.553574)"><path style="stroke:none" d="M 60.734375 0 L 13.046875 0 C 11.472656 0 10.332031 -0.347656 9.625 -1.046875 C 8.914062 -1.753906 8.5625 -2.894531 8.5625 -4.46875 L 8.5625 -84.953125 C 8.5625 -86.523438 8.914062 -87.660156 9.625 -88.359375 C 10.332031 -89.066406 11.472656 -89.421875 13.046875 -89.421875 L 52.65625 -89.421875 C 60.769531 -89.421875 66.773438 -87.867188 70.671875 -84.765625 C 74.566406 -81.660156 76.515625 -76.878906 76.515625 -70.421875 L 76.515625 -64.46875 C 76.515625 -60.988281 75.910156 -58.148438 74.703125 -55.953125 C 73.503906 -53.753906 71.664062 -52.117188 69.1875 -51.046875 C 74.476562 -50.546875 78.40625 -48.722656 80.96875 -45.578125 C 83.539062 -42.429688 84.828125 -37.835938 84.828125 -31.796875 L 84.828125 -20.375 C 84.828125 -13.414062 82.859375 -8.28125 78.921875 -4.96875 C 74.992188 -1.65625 68.929688 0 60.734375 0 Z M 36.515625 -68.3125 L 36.515625 -54.890625 L 47.078125 -54.890625 C 48.648438 -54.890625 49.828125 -55.300781 50.609375 -56.125 C 51.398438 -56.957031 51.796875 -58.203125 51.796875 -59.859375 L 51.796875 -63.34375 C 51.796875 -65 51.398438 -66.238281 50.609375 -67.0625 C 49.828125 -67.894531 48.648438 -68.3125 47.078125 -68.3125 Z M 36.515625 -35.765625 L 36.515625 -21.109375 L 52.65625 -21.109375 C 54.226562 -21.109375 55.40625 -21.519531 56.1875 -22.34375 C 56.976562 -23.175781 57.375 -24.421875 57.375 -26.078125 L 57.375 -30.921875 C 57.375 -32.578125 56.976562 -33.796875 56.1875 -34.578125 C 55.40625 -35.367188 54.226562 -35.765625 52.65625 -35.765625 Z M 36.515625 -35.765625 "/></g></g><g style="fill:#ff00ff;fill-opacity:1;"><g transform="translate(340.902169, 110.553574)"><path style="stroke:none" d="M 36.640625 -67.0625 L 36.640625 -51.171875 L 45.953125 -51.171875 C 48.109375 -51.171875 49.554688 -51.726562 50.296875 -52.84375 C 51.046875 -53.96875 51.421875 -55.359375 51.421875 -57.015625 L 51.421875 -61.234375 C 51.421875 -62.890625 51.046875 -64.273438 50.296875 -65.390625 C 49.554688 -66.503906 48.109375 -67.0625 45.953125 -67.0625 Z M 32.171875 0 L 13.046875 0 C 11.472656 0 10.332031 -0.347656 9.625 -1.046875 C 8.914062 -1.753906 8.5625 -2.894531 8.5625 -4.46875 L 8.5625 -84.953125 C 8.5625 -86.523438 8.914062 -87.660156 9.625 -88.359375 C 10.332031 -89.066406 11.472656 -89.421875 13.046875 -89.421875 L 54.40625 -89.421875 C 63.675781 -89.421875 70.070312 -87.492188 73.59375 -83.640625 C 77.113281 -79.796875 78.875 -74.8125 78.875 -68.6875 L 78.875 -62.96875 C 78.875 -59.488281 78.351562 -56.523438 77.3125 -54.078125 C 76.28125 -51.640625 74.476562 -49.882812 71.90625 -48.8125 C 76.382812 -48.3125 80.007812 -46.488281 82.78125 -43.34375 C 85.550781 -40.195312 86.9375 -36.015625 86.9375 -30.796875 L 86.9375 -4.46875 C 86.9375 -2.894531 86.582031 -1.753906 85.875 -1.046875 C 85.175781 -0.347656 84.039062 0 82.46875 0 L 63.21875 0 C 61.644531 0 60.503906 -0.347656 59.796875 -1.046875 C 59.097656 -1.753906 58.75 -2.894531 58.75 -4.46875 L 58.75 -23.46875 C 58.75 -25.289062 58.394531 -26.632812 57.6875 -27.5 C 56.988281 -28.375 55.769531 -28.8125 54.03125 -28.8125 L 36.640625 -28.8125 L 36.640625 -4.46875 C 36.640625 -2.894531 36.285156 -1.753906 35.578125 -1.046875 C 34.878906 -0.347656 33.742188 0 32.171875 0 Z M 32.171875 0 "/></g></g><g style="fill:#ff00ff;fill-opacity:1;"><g transform="translate(433.178884, 110.553574)"><path style="stroke:none" d="M 40.984375 -63.34375 L 35.15625 -44.46875 L 54.65625 -44.46875 L 48.8125 -63.34375 C 48.476562 -64.09375 48.125 -64.628906 47.75 -64.953125 C 47.382812 -65.285156 46.953125 -65.453125 46.453125 -65.453125 L 43.34375 -65.453125 C 42.851562 -65.453125 42.421875 -65.285156 42.046875 -64.953125 C 41.671875 -64.628906 41.316406 -64.09375 40.984375 -63.34375 Z M 33.90625 -4.46875 C 33.90625 -2.894531 33.550781 -1.753906 32.84375 -1.046875 C 32.144531 -0.347656 31.007812 0 29.4375 0 L 11.171875 0 C 9.597656 0 8.457031 -0.347656 7.75 -1.046875 C 7.050781 -1.753906 6.703125 -2.894531 6.703125 -4.46875 L 6.703125 -37.265625 C 6.703125 -39.742188 7.09375 -42.597656 7.875 -45.828125 C 8.664062 -49.054688 9.890625 -52.828125 11.546875 -57.140625 L 22.359375 -85.328125 C 22.859375 -86.734375 23.625 -87.765625 24.65625 -88.421875 C 25.6875 -89.085938 27.03125 -89.421875 28.6875 -89.421875 L 62.109375 -89.421875 C 63.679688 -89.421875 64.984375 -89.085938 66.015625 -88.421875 C 67.046875 -87.765625 67.8125 -86.734375 68.3125 -85.328125 L 79.125 -57.140625 C 80.769531 -52.828125 81.988281 -49.054688 82.78125 -45.828125 C 83.570312 -42.597656 83.96875 -39.742188 83.96875 -37.265625 L 83.96875 -4.46875 C 83.96875 -2.894531 83.613281 -1.753906 82.90625 -1.046875 C 82.195312 -0.347656 81.054688 0 79.484375 0 L 60.734375 0 C 59.078125 0 57.851562 -0.347656 57.0625 -1.046875 C 56.28125 -1.753906 55.890625 -2.894531 55.890625 -4.46875 L 55.890625 -21.859375 L 33.90625 -21.859375 Z M 33.90625 -4.46875 "/></g></g><g style="fill:#ff00ff;fill-opacity:1;"><g transform="translate(523.841059, 110.553574)"><path style="stroke:none" d="M 11.046875 0 C 9.472656 0 8.332031 -0.347656 7.625 -1.046875 C 6.925781 -1.753906 6.578125 -2.894531 6.578125 -4.46875 L 6.578125 -19.25 C 6.578125 -20.820312 6.925781 -21.957031 7.625 -22.65625 C 8.332031 -23.363281 9.472656 -23.71875 11.046875 -23.71875 L 23.34375 -23.71875 L 23.34375 -65.453125 L 11.046875 -65.453125 C 9.472656 -65.453125 8.332031 -65.800781 7.625 -66.5 C 6.925781 -67.207031 6.578125 -68.347656 6.578125 -69.921875 L 6.578125 -84.953125 C 6.578125 -86.523438 6.925781 -87.660156 7.625 -88.359375 C 8.332031 -89.066406 9.472656 -89.421875 11.046875 -89.421875 L 63.96875 -89.421875 C 65.539062 -89.421875 66.675781 -89.066406 67.375 -88.359375 C 68.082031 -87.660156 68.4375 -86.523438 68.4375 -84.953125 L 68.4375 -69.921875 C 68.4375 -68.347656 68.082031 -67.207031 67.375 -66.5 C 66.675781 -65.800781 65.539062 -65.453125 63.96875 -65.453125 L 51.921875 -65.453125 L 51.921875 -23.71875 L 63.96875 -23.71875 C 65.539062 -23.71875 66.675781 -23.363281 67.375 -22.65625 C 68.082031 -21.957031 68.4375 -20.820312 68.4375 -19.25 L 68.4375 -4.46875 C 68.4375 -2.894531 68.082031 -1.753906 67.375 -1.046875 C 66.675781 -0.347656 65.539062 0 63.96875 0 Z M 11.046875 0 "/></g></g><g style="fill:#ff00ff;fill-opacity:1;"><g transform="translate(598.978898, 110.553574)"><path style="stroke:none" d="M 31.671875 0 L 13.046875 0 C 11.472656 0 10.332031 -0.347656 9.625 -1.046875 C 8.914062 -1.753906 8.5625 -2.894531 8.5625 -4.46875 L 8.5625 -84.953125 C 8.5625 -86.523438 8.914062 -87.660156 9.625 -88.359375 C 10.332031 -89.066406 11.472656 -89.421875 13.046875 -89.421875 L 25.953125 -89.421875 C 27.523438 -89.421875 28.867188 -89.171875 29.984375 -88.671875 C 31.109375 -88.179688 32.207031 -87.316406 33.28125 -86.078125 L 57.375 -58.5 L 57.375 -84.953125 C 57.375 -86.523438 57.726562 -87.660156 58.4375 -88.359375 C 59.144531 -89.066406 60.285156 -89.421875 61.859375 -89.421875 L 80.484375 -89.421875 C 82.054688 -89.421875 83.191406 -89.066406 83.890625 -88.359375 C 84.597656 -87.660156 84.953125 -86.523438 84.953125 -84.953125 L 84.953125 -4.46875 C 84.953125 -2.894531 84.597656 -1.753906 83.890625 -1.046875 C 83.191406 -0.347656 82.054688 0 80.484375 0 L 61.859375 0 C 60.285156 0 59.144531 -0.347656 58.4375 -1.046875 C 57.726562 -1.753906 57.375 -2.894531 57.375 -4.46875 L 57.375 -19.75 L 36.140625 -45.453125 L 36.140625 -4.46875 C 36.140625 -2.894531 35.785156 -1.753906 35.078125 -1.046875 C 34.378906 -0.347656 33.242188 0 31.671875 0 Z M 31.671875 0 "/></g></g><g style="fill:#00ffff;fill-opacity:1;"><g transform="translate(4.223962, 104.518451)"><path style="stroke:none" d="M 60.734375 0 L 13.046875 0 C 11.472656 0 10.332031 -0.347656 9.625 -1.046875 C 8.914062 -1.753906 8.5625 -2.894531 8.5625 -4.46875 L 8.5625 -84.953125 C 8.5625 -86.523438 8.914062 -87.660156 9.625 -88.359375 C 10.332031 -89.066406 11.472656 -89.421875 13.046875 -89.421875 L 52.65625 -89.421875 C 60.769531 -89.421875 66.773438 -87.867188 70.671875 -84.765625 C 74.566406 -81.660156 76.515625 -76.878906 76.515625 -70.421875 L 76.515625 -64.46875 C 76.515625 -60.988281 75.910156 -58.148438 74.703125 -55.953125 C 73.503906 -53.753906 71.664062 -52.117188 69.1875 -51.046875 C 74.476562 -50.546875 78.40625 -48.722656 80.96875 -45.578125 C 83.539062 -42.429688 84.828125 -37.835938 84.828125 -31.796875 L 84.828125 -20.375 C 84.828125 -13.414062 82.859375 -8.28125 78.921875 -4.96875 C 74.992188 -1.65625 68.929688 0 60.734375 0 Z M 36.515625 -68.3125 L 36.515625 -54.890625 L 47.078125 -54.890625 C 48.648438 -54.890625 49.828125 -55.300781 50.609375 -56.125 C 51.398438 -56.957031 51.796875 -58.203125 51.796875 -59.859375 L 51.796875 -63.34375 C 51.796875 -65 51.398438 -66.238281 50.609375 -67.0625 C 49.828125 -67.894531 48.648438 -68.3125 47.078125 -68.3125 Z M 36.515625 -35.765625 L 36.515625 -21.109375 L 52.65625 -21.109375 C 54.226562 -21.109375 55.40625 -21.519531 56.1875 -22.34375 C 56.976562 -23.175781 57.375 -24.421875 57.375 -26.078125 L 57.375 -30.921875 C 57.375 -32.578125 56.976562 -33.796875 56.1875 -34.578125 C 55.40625 -35.367188 54.226562 -35.765625 52.65625 -35.765625 Z M 36.515625 -35.765625 "/></g></g><g style="fill:#00ffff;fill-opacity:1;"><g transform="translate(94.265163, 104.518451)"><path style="stroke:none" d="M 11.046875 0 C 9.472656 0 8.332031 -0.347656 7.625 -1.046875 C 6.925781 -1.753906 6.578125 -2.894531 6.578125 -4.46875 L 6.578125 -19.25 C 6.578125 -20.820312 6.925781 -21.957031 7.625 -22.65625 C 8.332031 -23.363281 9.472656 -23.71875 11.046875 -23.71875 L 23.34375 -23.71875 L 23.34375 -65.453125 L 11.046875 -65.453125 C 9.472656 -65.453125 8.332031 -65.800781 7.625 -66.5 C 6.925781 -67.207031 6.578125 -68.347656 6.578125 -69.921875 L 6.578125 -84.953125 C 6.578125 -86.523438 6.925781 -87.660156 7.625 -88.359375 C 8.332031 -89.066406 9.472656 -89.421875 11.046875 -89.421875 L 63.96875 -89.421875 C 65.539062 -89.421875 66.675781 -89.066406 67.375 -88.359375 C 68.082031 -87.660156 68.4375 -86.523438 68.4375 -84.953125 L 68.4375 -69.921875 C 68.4375 -68.347656 68.082031 -67.207031 67.375 -66.5 C 66.675781 -65.800781 65.539062 -65.453125 63.96875 -65.453125 L 51.921875 -65.453125 L 51.921875 -23.71875 L 63.96875 -23.71875 C 65.539062 -23.71875 66.675781 -23.363281 67.375 -22.65625 C 68.082031 -21.957031 68.4375 -20.820312 68.4375 -19.25 L 68.4375 -4.46875 C 68.4375 -2.894531 68.082031 -1.753906 67.375 -1.046875 C 66.675781 -0.347656 65.539062 0 63.96875 0 Z M 11.046875 0 "/></g></g><g style="fill:#00ffff;fill-opacity:1;"><g transform="translate(169.402988, 104.518451)"><path style="stroke:none" d="M 76.875 0 L 37.75 0 C 27.40625 0 19.726562 -2.066406 14.71875 -6.203125 C 9.707031 -10.347656 7.203125 -16.726562 7.203125 -25.34375 L 7.203125 -64.09375 C 7.203125 -72.695312 9.707031 -79.066406 14.71875 -83.203125 C 19.726562 -87.347656 27.40625 -89.421875 37.75 -89.421875 L 68.8125 -89.421875 C 70.382812 -89.421875 71.519531 -89.066406 72.21875 -88.359375 C 72.925781 -87.660156 73.28125 -86.523438 73.28125 -84.953125 L 73.28125 -69.921875 C 73.28125 -68.347656 72.925781 -67.207031 72.21875 -66.5 C 71.519531 -65.800781 70.382812 -65.453125 68.8125 -65.453125 L 42.96875 -65.453125 C 40.40625 -65.453125 38.5 -64.929688 37.25 -63.890625 C 36.007812 -62.859375 35.390625 -61.3125 35.390625 -59.25 L 35.390625 -29.5625 C 35.390625 -27.488281 35.863281 -25.953125 36.8125 -24.953125 C 37.769531 -23.960938 39.203125 -23.46875 41.109375 -23.46875 L 53.15625 -23.46875 L 53.15625 -42.84375 C 53.15625 -44.414062 53.503906 -45.554688 54.203125 -46.265625 C 54.910156 -46.972656 56.050781 -47.328125 57.625 -47.328125 L 76.875 -47.328125 C 78.445312 -47.328125 79.585938 -46.972656 80.296875 -46.265625 C 81.003906 -45.554688 81.359375 -44.414062 81.359375 -42.84375 L 81.359375 -4.46875 C 81.359375 -2.894531 81.003906 -1.753906 80.296875 -1.046875 C 79.585938 -0.347656 78.445312 0 76.875 0 Z M 76.875 0 "/></g></g><g style="fill:#00ffff;fill-opacity:1;"><g transform="translate(257.332871, 104.518451)"><path style="stroke:none" d="M 60.734375 0 L 13.046875 0 C 11.472656 0 10.332031 -0.347656 9.625 -1.046875 C 8.914062 -1.753906 8.5625 -2.894531 8.5625 -4.46875 L 8.5625 -84.953125 C 8.5625 -86.523438 8.914062 -87.660156 9.625 -88.359375 C 10.332031 -89.066406 11.472656 -89.421875 13.046875 -89.421875 L 52.65625 -89.421875 C 60.769531 -89.421875 66.773438 -87.867188 70.671875 -84.765625 C 74.566406 -81.660156 76.515625 -76.878906 76.515625 -70.421875 L 76.515625 -64.46875 C 76.515625 -60.988281 75.910156 -58.148438 74.703125 -55.953125 C 73.503906 -53.753906 71.664062 -52.117188 69.1875 -51.046875 C 74.476562 -50.546875 78.40625 -48.722656 80.96875 -45.578125 C 83.539062 -42.429688 84.828125 -37.835938 84.828125 -31.796875 L 84.828125 -20.375 C 84.828125 -13.414062 82.859375 -8.28125 78.921875 -4.96875 C 74.992188 -1.65625 68.929688 0 60.734375 0 Z M 36.515625 -68.3125 L 36.515625 -54.890625 L 47.078125 -54.890625 C 48.648438 -54.890625 49.828125 -55.300781 50.609375 -56.125 C 51.398438 -56.957031 51.796875 -58.203125 51.796875 -59.859375 L 51.796875 -63.34375 C 51.796875 -65 51.398438 -66.238281 50.609375 -67.0625 C 49.828125 -67.894531 48.648438 -68.3125 47.078125 -68.3125 Z M 36.515625 -35.765625 L 36.515625 -21.109375 L 52.65625 -21.109375 C 54.226562 -21.109375 55.40625 -21.519531 56.1875 -22.34375 C 56.976562 -23.175781 57.375 -24.421875 57.375 -26.078125 L 57.375 -30.921875 C 57.375 -32.578125 56.976562 -33.796875 56.1875 -34.578125 C 55.40625 -35.367188 54.226562 -35.765625 52.65625 -35.765625 Z M 36.515625 -35.765625 "/></g></g><g style="fill:#00ffff;fill-opacity:1;"><g transform="translate(347.374057, 104.518451)"><path style="stroke:none" d="M 36.640625 -67.0625 L 36.640625 -51.171875 L 45.953125 -51.171875 C 48.109375 -51.171875 49.554688 -51.726562 50.296875 -52.84375 C 51.046875 -53.96875 51.421875 -55.359375 51.421875 -57.015625 L 51.421875 -61.234375 C 51.421875 -62.890625 51.046875 -64.273438 50.296875 -65.390625 C 49.554688 -66.503906 48.109375 -67.0625 45.953125 -67.0625 Z M 32.171875 0 L 13.046875 0 C 11.472656 0 10.332031 -0.347656 9.625 -1.046875 C 8.914062 -1.753906 8.5625 -2.894531 8.5625 -4.46875 L 8.5625 -84.953125 C 8.5625 -86.523438 8.914062 -87.660156 9.625 -88.359375 C 10.332031 -89.066406 11.472656 -89.421875 13.046875 -89.421875 L 54.40625 -89.421875 C 63.675781 -89.421875 70.070312 -87.492188 73.59375 -83.640625 C 77.113281 -79.796875 78.875 -74.8125 78.875 -68.6875 L 78.875 -62.96875 C 78.875 -59.488281 78.351562 -56.523438 77.3125 -54.078125 C 76.28125 -51.640625 74.476562 -49.882812 71.90625 -48.8125 C 76.382812 -48.3125 80.007812 -46.488281 82.78125 -43.34375 C 85.550781 -40.195312 86.9375 -36.015625 86.9375 -30.796875 L 86.9375 -4.46875 C 86.9375 -2.894531 86.582031 -1.753906 85.875 -1.046875 C 85.175781 -0.347656 84.039062 0 82.46875 0 L 63.21875 0 C 61.644531 0 60.503906 -0.347656 59.796875 -1.046875 C 59.097656 -1.753906 58.75 -2.894531 58.75 -4.46875 L 58.75 -23.46875 C 58.75 -25.289062 58.394531 -26.632812 57.6875 -27.5 C 56.988281 -28.375 55.769531 -28.8125 54.03125 -28.8125 L 36.640625 -28.8125 L 36.640625 -4.46875 C 36.640625 -2.894531 36.285156 -1.753906 35.578125 -1.046875 C 34.878906 -0.347656 33.742188 0 32.171875 0 Z M 32.171875 0 "/></g></g><g style="fill:#00ffff;fill-opacity:1;"><g transform="translate(439.650772, 104.518451)"><path style="stroke:none" d="M 40.984375 -63.34375 L 35.15625 -44.46875 L 54.65625 -44.46875 L 48.8125 -63.34375 C 48.476562 -64.09375 48.125 -64.628906 47.75 -64.953125 C 47.382812 -65.285156 46.953125 -65.453125 46.453125 -65.453125 L 43.34375 -65.453125 C 42.851562 -65.453125 42.421875 -65.285156 42.046875 -64.953125 C 41.671875 -64.628906 41.316406 -64.09375 40.984375 -63.34375 Z M 33.90625 -4.46875 C 33.90625 -2.894531 33.550781 -1.753906 32.84375 -1.046875 C 32.144531 -0.347656 31.007812 0 29.4375 0 L 11.171875 0 C 9.597656 0 8.457031 -0.347656 7.75 -1.046875 C 7.050781 -1.753906 6.703125 -2.894531 6.703125 -4.46875 L 6.703125 -37.265625 C 6.703125 -39.742188 7.09375 -42.597656 7.875 -45.828125 C 8.664062 -49.054688 9.890625 -52.828125 11.546875 -57.140625 L 22.359375 -85.328125 C 22.859375 -86.734375 23.625 -87.765625 24.65625 -88.421875 C 25.6875 -89.085938 27.03125 -89.421875 28.6875 -89.421875 L 62.109375 -89.421875 C 63.679688 -89.421875 64.984375 -89.085938 66.015625 -88.421875 C 67.046875 -87.765625 67.8125 -86.734375 68.3125 -85.328125 L 79.125 -57.140625 C 80.769531 -52.828125 81.988281 -49.054688 82.78125 -45.828125 C 83.570312 -42.597656 83.96875 -39.742188 83.96875 -37.265625 L 83.96875 -4.46875 C 83.96875 -2.894531 83.613281 -1.753906 82.90625 -1.046875 C 82.195312 -0.347656 81.054688 0 79.484375 0 L 60.734375 0 C 59.078125 0 57.851562 -0.347656 57.0625 -1.046875 C 56.28125 -1.753906 55.890625 -2.894531 55.890625 -4.46875 L 55.890625 -21.859375 L 33.90625 -21.859375 Z M 33.90625 -4.46875 "/></g></g><g style="fill:#00ffff;fill-opacity:1;"><g transform="translate(530.312947, 104.518451)"><path style="stroke:none" d="M 11.046875 0 C 9.472656 0 8.332031 -0.347656 7.625 -1.046875 C 6.925781 -1.753906 6.578125 -2.894531 6.578125 -4.46875 L 6.578125 -19.25 C 6.578125 -20.820312 6.925781 -21.957031 7.625 -22.65625 C 8.332031 -23.363281 9.472656 -23.71875 11.046875 -23.71875 L 23.34375 -23.71875 L 23.34375 -65.453125 L 11.046875 -65.453125 C 9.472656 -65.453125 8.332031 -65.800781 7.625 -66.5 C 6.925781 -67.207031 6.578125 -68.347656 6.578125 -69.921875 L 6.578125 -84.953125 C 6.578125 -86.523438 6.925781 -87.660156 7.625 -88.359375 C 8.332031 -89.066406 9.472656 -89.421875 11.046875 -89.421875 L 63.96875 -89.421875 C 65.539062 -89.421875 66.675781 -89.066406 67.375 -88.359375 C 68.082031 -87.660156 68.4375 -86.523438 68.4375 -84.953125 L 68.4375 -69.921875 C 68.4375 -68.347656 68.082031 -67.207031 67.375 -66.5 C 66.675781 -65.800781 65.539062 -65.453125 63.96875 -65.453125 L 51.921875 -65.453125 L 51.921875 -23.71875 L 63.96875 -23.71875 C 65.539062 -23.71875 66.675781 -23.363281 67.375 -22.65625 C 68.082031 -21.957031 68.4375 -20.820312 68.4375 -19.25 L 68.4375 -4.46875 C 68.4375 -2.894531 68.082031 -1.753906 67.375 -1.046875 C 66.675781 -0.347656 65.539062 0 63.96875 0 Z M 11.046875 0 "/></g></g><g style="fill:#00ffff;fill-opacity:1;"><g transform="translate(605.450786, 104.518451)"><path style="stroke:none" d="M 31.671875 0 L 13.046875 0 C 11.472656 0 10.332031 -0.347656 9.625 -1.046875 C 8.914062 -1.753906 8.5625 -2.894531 8.5625 -4.46875 L 8.5625 -84.953125 C 8.5625 -86.523438 8.914062 -87.660156 9.625 -88.359375 C 10.332031 -89.066406 11.472656 -89.421875 13.046875 -89.421875 L 25.953125 -89.421875 C 27.523438 -89.421875 28.867188 -89.171875 29.984375 -88.671875 C 31.109375 -88.179688 32.207031 -87.316406 33.28125 -86.078125 L 57.375 -58.5 L 57.375 -84.953125 C 57.375 -86.523438 57.726562 -87.660156 58.4375 -88.359375 C 59.144531 -89.066406 60.285156 -89.421875 61.859375 -89.421875 L 80.484375 -89.421875 C 82.054688 -89.421875 83.191406 -89.066406 83.890625 -88.359375 C 84.597656 -87.660156 84.953125 -86.523438 84.953125 -84.953125 L 84.953125 -4.46875 C 84.953125 -2.894531 84.597656 -1.753906 83.890625 -1.046875 C 83.191406 -0.347656 82.054688 0 80.484375 0 L 61.859375 0 C 60.285156 0 59.144531 -0.347656 58.4375 -1.046875 C 57.726562 -1.753906 57.375 -2.894531 57.375 -4.46875 L 57.375 -19.75 L 36.140625 -45.453125 L 36.140625 -4.46875 C 36.140625 -2.894531 35.785156 -1.753906 35.078125 -1.046875 C 34.378906 -0.347656 33.242188 0 31.671875 0 Z M 31.671875 0 "/></g></g><g style="fill:#000000;fill-opacity:1;"><g transform="translate(0.988018, 107.536013)"><path style="stroke:none" d="M 60.734375 0 L 13.046875 0 C 11.472656 0 10.332031 -0.347656 9.625 -1.046875 C 8.914062 -1.753906 8.5625 -2.894531 8.5625 -4.46875 L 8.5625 -84.953125 C 8.5625 -86.523438 8.914062 -87.660156 9.625 -88.359375 C 10.332031 -89.066406 11.472656 -89.421875 13.046875 -89.421875 L 52.65625 -89.421875 C 60.769531 -89.421875 66.773438 -87.867188 70.671875 -84.765625 C 74.566406 -81.660156 76.515625 -76.878906 76.515625 -70.421875 L 76.515625 -64.46875 C 76.515625 -60.988281 75.910156 -58.148438 74.703125 -55.953125 C 73.503906 -53.753906 71.664062 -52.117188 69.1875 -51.046875 C 74.476562 -50.546875 78.40625 -48.722656 80.96875 -45.578125 C 83.539062 -42.429688 84.828125 -37.835938 84.828125 -31.796875 L 84.828125 -20.375 C 84.828125 -13.414062 82.859375 -8.28125 78.921875 -4.96875 C 74.992188 -1.65625 68.929688 0 60.734375 0 Z M 36.515625 -68.3125 L 36.515625 -54.890625 L 47.078125 -54.890625 C 48.648438 -54.890625 49.828125 -55.300781 50.609375 -56.125 C 51.398438 -56.957031 51.796875 -58.203125 51.796875 -59.859375 L 51.796875 -63.34375 C 51.796875 -65 51.398438 -66.238281 50.609375 -67.0625 C 49.828125 -67.894531 48.648438 -68.3125 47.078125 -68.3125 Z M 36.515625 -35.765625 L 36.515625 -21.109375 L 52.65625 -21.109375 C 54.226562 -21.109375 55.40625 -21.519531 56.1875 -22.34375 C 56.976562 -23.175781 57.375 -24.421875 57.375 -26.078125 L 57.375 -30.921875 C 57.375 -32.578125 56.976562 -33.796875 56.1875 -34.578125 C 55.40625 -35.367188 54.226562 -35.765625 52.65625 -35.765625 Z M 36.515625 -35.765625 "/></g></g><g style="fill:#000000;fill-opacity:1;"><g transform="translate(91.029219, 107.536013)"><path style="stroke:none" d="M 11.046875 0 C 9.472656 0 8.332031 -0.347656 7.625 -1.046875 C 6.925781 -1.753906 6.578125 -2.894531 6.578125 -4.46875 L 6.578125 -19.25 C 6.578125 -20.820312 6.925781 -21.957031 7.625 -22.65625 C 8.332031 -23.363281 9.472656 -23.71875 11.046875 -23.71875 L 23.34375 -23.71875 L 23.34375 -65.453125 L 11.046875 -65.453125 C 9.472656 -65.453125 8.332031 -65.800781 7.625 -66.5 C 6.925781 -67.207031 6.578125 -68.347656 6.578125 -69.921875 L 6.578125 -84.953125 C 6.578125 -86.523438 6.925781 -87.660156 7.625 -88.359375 C 8.332031 -89.066406 9.472656 -89.421875 11.046875 -89.421875 L 63.96875 -89.421875 C 65.539062 -89.421875 66.675781 -89.066406 67.375 -88.359375 C 68.082031 -87.660156 68.4375 -86.523438 68.4375 -84.953125 L 68.4375 -69.921875 C 68.4375 -68.347656 68.082031 -67.207031 67.375 -66.5 C 66.675781 -65.800781 65.539062 -65.453125 63.96875 -65.453125 L 51.921875 -65.453125 L 51.921875 -23.71875 L 63.96875 -23.71875 C 65.539062 -23.71875 66.675781 -23.363281 67.375 -22.65625 C 68.082031 -21.957031 68.4375 -20.820312 68.4375 -19.25 L 68.4375 -4.46875 C 68.4375 -2.894531 68.082031 -1.753906 67.375 -1.046875 C 66.675781 -0.347656 65.539062 0 63.96875 0 Z M 11.046875 0 "/></g></g><g style="fill:#000000;fill-opacity:1;"><g transform="translate(166.167044, 107.536013)"><path style="stroke:none" d="M 76.875 0 L 37.75 0 C 27.40625 0 19.726562 -2.066406 14.71875 -6.203125 C 9.707031 -10.347656 7.203125 -16.726562 7.203125 -25.34375 L 7.203125 -64.09375 C 7.203125 -72.695312 9.707031 -79.066406 14.71875 -83.203125 C 19.726562 -87.347656 27.40625 -89.421875 37.75 -89.421875 L 68.8125 -89.421875 C 70.382812 -89.421875 71.519531 -89.066406 72.21875 -88.359375 C 72.925781 -87.660156 73.28125 -86.523438 73.28125 -84.953125 L 73.28125 -69.921875 C 73.28125 -68.347656 72.925781 -67.207031 72.21875 -66.5 C 71.519531 -65.800781 70.382812 -65.453125 68.8125 -65.453125 L 42.96875 -65.453125 C 40.40625 -65.453125 38.5 -64.929688 37.25 -63.890625 C 36.007812 -62.859375 35.390625 -61.3125 35.390625 -59.25 L 35.390625 -29.5625 C 35.390625 -27.488281 35.863281 -25.953125 36.8125 -24.953125 C 37.769531 -23.960938 39.203125 -23.46875 41.109375 -23.46875 L 53.15625 -23.46875 L 53.15625 -42.84375 C 53.15625 -44.414062 53.503906 -45.554688 54.203125 -46.265625 C 54.910156 -46.972656 56.050781 -47.328125 57.625 -47.328125 L 76.875 -47.328125 C 78.445312 -47.328125 79.585938 -46.972656 80.296875 -46.265625 C 81.003906 -45.554688 81.359375 -44.414062 81.359375 -42.84375 L 81.359375 -4.46875 C 81.359375 -2.894531 81.003906 -1.753906 80.296875 -1.046875 C 79.585938 -0.347656 78.445312 0 76.875 0 Z M 76.875 0 "/></g></g><g style="fill:#000000;fill-opacity:1;"><g transform="translate(254.096927, 107.536013)"><path style="stroke:none" d="M 60.734375 0 L 13.046875 0 C 11.472656 0 10.332031 -0.347656 9.625 -1.046875 C 8.914062 -1.753906 8.5625 -2.894531 8.5625 -4.46875 L 8.5625 -84.953125 C 8.5625 -86.523438 8.914062 -87.660156 9.625 -88.359375 C 10.332031 -89.066406 11.472656 -89.421875 13.046875 -89.421875 L 52.65625 -89.421875 C 60.769531 -89.421875 66.773438 -87.867188 70.671875 -84.765625 C 74.566406 -81.660156 76.515625 -76.878906 76.515625 -70.421875 L 76.515625 -64.46875 C 76.515625 -60.988281 75.910156 -58.148438 74.703125 -55.953125 C 73.503906 -53.753906 71.664062 -52.117188 69.1875 -51.046875 C 74.476562 -50.546875 78.40625 -48.722656 80.96875 -45.578125 C 83.539062 -42.429688 84.828125 -37.835938 84.828125 -31.796875 L 84.828125 -20.375 C 84.828125 -13.414062 82.859375 -8.28125 78.921875 -4.96875 C 74.992188 -1.65625 68.929688 0 60.734375 0 Z M 36.515625 -68.3125 L 36.515625 -54.890625 L 47.078125 -54.890625 C 48.648438 -54.890625 49.828125 -55.300781 50.609375 -56.125 C 51.398438 -56.957031 51.796875 -58.203125 51.796875 -59.859375 L 51.796875 -63.34375 C 51.796875 -65 51.398438 -66.238281 50.609375 -67.0625 C 49.828125 -67.894531 48.648438 -68.3125 47.078125 -68.3125 Z M 36.515625 -35.765625 L 36.515625 -21.109375 L 52.65625 -21.109375 C 54.226562 -21.109375 55.40625 -21.519531 56.1875 -22.34375 C 56.976562 -23.175781 57.375 -24.421875 57.375 -26.078125 L 57.375 -30.921875 C 57.375 -32.578125 56.976562 -33.796875 56.1875 -34.578125 C 55.40625 -35.367188 54.226562 -35.765625 52.65625 -35.765625 Z M 36.515625 -35.765625 "/></g></g><g style="fill:#000000;fill-opacity:1;"><g transform="translate(344.138113, 107.536013)"><path style="stroke:none" d="M 36.640625 -67.0625 L 36.640625 -51.171875 L 45.953125 -51.171875 C 48.109375 -51.171875 49.554688 -51.726562 50.296875 -52.84375 C 51.046875 -53.96875 51.421875 -55.359375 51.421875 -57.015625 L 51.421875 -61.234375 C 51.421875 -62.890625 51.046875 -64.273438 50.296875 -65.390625 C 49.554688 -66.503906 48.109375 -67.0625 45.953125 -67.0625 Z M 32.171875 0 L 13.046875 0 C 11.472656 0 10.332031 -0.347656 9.625 -1.046875 C 8.914062 -1.753906 8.5625 -2.894531 8.5625 -4.46875 L 8.5625 -84.953125 C 8.5625 -86.523438 8.914062 -87.660156 9.625 -88.359375 C 10.332031 -89.066406 11.472656 -89.421875 13.046875 -89.421875 L 54.40625 -89.421875 C 63.675781 -89.421875 70.070312 -87.492188 73.59375 -83.640625 C 77.113281 -79.796875 78.875 -74.8125 78.875 -68.6875 L 78.875 -62.96875 C 78.875 -59.488281 78.351562 -56.523438 77.3125 -54.078125 C 76.28125 -51.640625 74.476562 -49.882812 71.90625 -48.8125 C 76.382812 -48.3125 80.007812 -46.488281 82.78125 -43.34375 C 85.550781 -40.195312 86.9375 -36.015625 86.9375 -30.796875 L 86.9375 -4.46875 C 86.9375 -2.894531 86.582031 -1.753906 85.875 -1.046875 C 85.175781 -0.347656 84.039062 0 82.46875 0 L 63.21875 0 C 61.644531 0 60.503906 -0.347656 59.796875 -1.046875 C 59.097656 -1.753906 58.75 -2.894531 58.75 -4.46875 L 58.75 -23.46875 C 58.75 -25.289062 58.394531 -26.632812 57.6875 -27.5 C 56.988281 -28.375 55.769531 -28.8125 54.03125 -28.8125 L 36.640625 -28.8125 L 36.640625 -4.46875 C 36.640625 -2.894531 36.285156 -1.753906 35.578125 -1.046875 C 34.878906 -0.347656 33.742188 0 32.171875 0 Z M 32.171875 0 "/></g></g><g style="fill:#000000;fill-opacity:1;"><g transform="translate(436.414828, 107.536013)"><path style="stroke:none" d="M 40.984375 -63.34375 L 35.15625 -44.46875 L 54.65625 -44.46875 L 48.8125 -63.34375 C 48.476562 -64.09375 48.125 -64.628906 47.75 -64.953125 C 47.382812 -65.285156 46.953125 -65.453125 46.453125 -65.453125 L 43.34375 -65.453125 C 42.851562 -65.453125 42.421875 -65.285156 42.046875 -64.953125 C 41.671875 -64.628906 41.316406 -64.09375 40.984375 -63.34375 Z M 33.90625 -4.46875 C 33.90625 -2.894531 33.550781 -1.753906 32.84375 -1.046875 C 32.144531 -0.347656 31.007812 0 29.4375 0 L 11.171875 0 C 9.597656 0 8.457031 -0.347656 7.75 -1.046875 C 7.050781 -1.753906 6.703125 -2.894531 6.703125 -4.46875 L 6.703125 -37.265625 C 6.703125 -39.742188 7.09375 -42.597656 7.875 -45.828125 C 8.664062 -49.054688 9.890625 -52.828125 11.546875 -57.140625 L 22.359375 -85.328125 C 22.859375 -86.734375 23.625 -87.765625 24.65625 -88.421875 C 25.6875 -89.085938 27.03125 -89.421875 28.6875 -89.421875 L 62.109375 -89.421875 C 63.679688 -89.421875 64.984375 -89.085938 66.015625 -88.421875 C 67.046875 -87.765625 67.8125 -86.734375 68.3125 -85.328125 L 79.125 -57.140625 C 80.769531 -52.828125 81.988281 -49.054688 82.78125 -45.828125 C 83.570312 -42.597656 83.96875 -39.742188 83.96875 -37.265625 L 83.96875 -4.46875 C 83.96875 -2.894531 83.613281 -1.753906 82.90625 -1.046875 C 82.195312 -0.347656 81.054688 0 79.484375 0 L 60.734375 0 C 59.078125 0 57.851562 -0.347656 57.0625 -1.046875 C 56.28125 -1.753906 55.890625 -2.894531 55.890625 -4.46875 L 55.890625 -21.859375 L 33.90625 -21.859375 Z M 33.90625 -4.46875 "/></g></g><g style="fill:#000000;fill-opacity:1;"><g transform="translate(527.077003, 107.536013)"><path style="stroke:none" d="M 11.046875 0 C 9.472656 0 8.332031 -0.347656 7.625 -1.046875 C 6.925781 -1.753906 6.578125 -2.894531 6.578125 -4.46875 L 6.578125 -19.25 C 6.578125 -20.820312 6.925781 -21.957031 7.625 -22.65625 C 8.332031 -23.363281 9.472656 -23.71875 11.046875 -23.71875 L 23.34375 -23.71875 L 23.34375 -65.453125 L 11.046875 -65.453125 C 9.472656 -65.453125 8.332031 -65.800781 7.625 -66.5 C 6.925781 -67.207031 6.578125 -68.347656 6.578125 -69.921875 L 6.578125 -84.953125 C 6.578125 -86.523438 6.925781 -87.660156 7.625 -88.359375 C 8.332031 -89.066406 9.472656 -89.421875 11.046875 -89.421875 L 63.96875 -89.421875 C 65.539062 -89.421875 66.675781 -89.066406 67.375 -88.359375 C 68.082031 -87.660156 68.4375 -86.523438 68.4375 -84.953125 L 68.4375 -69.921875 C 68.4375 -68.347656 68.082031 -67.207031 67.375 -66.5 C 66.675781 -65.800781 65.539062 -65.453125 63.96875 -65.453125 L 51.921875 -65.453125 L 51.921875 -23.71875 L 63.96875 -23.71875 C 65.539062 -23.71875 66.675781 -23.363281 67.375 -22.65625 C 68.082031 -21.957031 68.4375 -20.820312 68.4375 -19.25 L 68.4375 -4.46875 C 68.4375 -2.894531 68.082031 -1.753906 67.375 -1.046875 C 66.675781 -0.347656 65.539062 0 63.96875 0 Z M 11.046875 0 "/></g></g><g style="fill:#000000;fill-opacity:1;"><g transform="translate(602.214842, 107.536013)"><path style="stroke:none" d="M 31.671875 0 L 13.046875 0 C 11.472656 0 10.332031 -0.347656 9.625 -1.046875 C 8.914062 -1.753906 8.5625 -2.894531 8.5625 -4.46875 L 8.5625 -84.953125 C 8.5625 -86.523438 8.914062 -87.660156 9.625 -88.359375 C 10.332031 -89.066406 11.472656 -89.421875 13.046875 -89.421875 L 25.953125 -89.421875 C 27.523438 -89.421875 28.867188 -89.171875 29.984375 -88.671875 C 31.109375 -88.179688 32.207031 -87.316406 33.28125 -86.078125 L 57.375 -58.5 L 57.375 -84.953125 C 57.375 -86.523438 57.726562 -87.660156 58.4375 -88.359375 C 59.144531 -89.066406 60.285156 -89.421875 61.859375 -89.421875 L 80.484375 -89.421875 C 82.054688 -89.421875 83.191406 -89.066406 83.890625 -88.359375 C 84.597656 -87.660156 84.953125 -86.523438 84.953125 -84.953125 L 84.953125 -4.46875 C 84.953125 -2.894531 84.597656 -1.753906 83.890625 -1.046875 C 83.191406 -0.347656 82.054688 0 80.484375 0 L 61.859375 0 C 60.285156 0 59.144531 -0.347656 58.4375 -1.046875 C 57.726562 -1.753906 57.375 -2.894531 57.375 -4.46875 L 57.375 -19.75 L 36.140625 -45.453125 L 36.140625 -4.46875 C 36.140625 -2.894531 35.785156 -1.753906 35.078125 -1.046875 C 34.378906 -0.347656 33.242188 0 31.671875 0 Z M 31.671875 0 "/></g></g><g style="fill:#ff00ff;fill-opacity:1;"><g transform="translate(692.502934, 110.553574)"><path style="stroke:none" d=""/></g></g><g style="fill:#00ffff;fill-opacity:1;"><g transform="translate(698.974822, 104.518451)"><path style="stroke:none" d=""/></g></g><g style="fill:#000000;fill-opacity:1;"><g transform="translate(695.738878, 107.536013)"><path style="stroke:none" d=""/></g></g></g></g></g><path style="fill:none;stroke-width:2;stroke-linecap:round;stroke-linejoin:round;stroke:#ff00ff;stroke-opacity:1;stroke-miterlimit:4;" d="M 7.000331 14.000043 C 6.891142 14.000043 6.782863 14.006412 6.674584 14.018241 C 6.566305 14.03007 6.458936 14.048268 6.353387 14.071926 C 6.246927 14.095583 6.142288 14.1247 6.039468 14.159277 C 5.935739 14.194763 5.835649 14.234799 5.736469 14.281205 C 5.638199 14.3267 5.542658 14.378565 5.448938 14.434979 C 5.356127 14.491393 5.266956 14.552357 5.180515 14.61878 C 5.094074 14.684294 5.011272 14.755267 4.93211 14.830789 C 4.853858 14.905402 4.779246 14.984564 4.709183 15.068275 C 4.63912 15.151077 4.573606 15.238428 4.513553 15.328509 C 4.452589 15.41859 4.397084 15.51231 4.347039 15.60876 C 4.296085 15.705211 4.251499 15.803481 4.211463 15.90539 C 4.171427 16.00639 4.137761 16.10921 4.109553 16.214759 C 4.080436 16.319399 4.057689 16.425858 4.04131 16.533227 C 4.024022 16.640596 4.013103 16.748875 4.007644 16.857154 C 4.003094 16.966343 4.003094 17.074622 4.010373 17.183811 C 4.016743 17.29209 4.029481 17.400369 4.04768 17.506828 C 4.065878 17.614198 4.090445 17.720657 4.120472 17.825296 C 4.149589 17.929936 4.185986 18.031845 4.226931 18.132845 C 4.267877 18.233845 4.314283 18.332115 4.366147 18.427655 C 4.418012 18.523196 4.474426 18.616006 4.5363 18.705177 C 4.598174 18.795258 4.664597 18.88079 4.73557 18.963591 C 4.807453 19.045483 4.882975 19.123735 4.962137 19.197438 C 5.042209 19.27205 5.125921 19.341203 5.212362 19.405806 C 5.299713 19.47132 5.390704 19.531374 5.484424 19.585968 C 5.578145 19.641473 5.674595 19.691518 5.773775 19.736103 C 5.872955 19.780689 5.974865 19.819815 6.077684 19.853481 C 6.181414 19.887148 6.286963 19.914445 6.393422 19.937193 C 6.499882 19.959031 6.607251 19.975409 6.71553 19.986328 C 6.823809 19.996337 6.932088 20.000886 7.041277 19.999976 C 7.149556 19.998157 7.257835 19.990877 7.366114 19.978139 C 7.474393 19.9654 7.580852 19.946292 7.687312 19.921724 C 7.792861 19.896247 7.8975 19.86622 8.00032 19.829824 " transform="matrix(4.293016,0,0,4.293016,0.76387,14.768679)"/><path style="fill:none;stroke-width:2;stroke-linecap:round;stroke-linejoin:round;stroke:#ff00ff;stroke-opacity:1;stroke-miterlimit:4;" d="M 4.264238 15.605121 C 4.115013 15.533238 3.971247 15.452256 3.832031 15.363085 C 3.692815 15.273004 3.559969 15.175644 3.433492 15.069185 C 3.306105 14.963636 3.185997 14.849897 3.073168 14.728879 C 2.96034 14.607862 2.8557 14.480474 2.75925 14.346718 C 2.66189 14.212052 2.573629 14.072836 2.493557 13.92816 C 2.414395 13.782575 2.343422 13.63335 2.282458 13.479576 C 2.221494 13.325801 2.169629 13.169297 2.128684 13.009153 C 2.086828 12.849009 2.054981 12.687046 2.033143 12.523262 C 2.011306 12.359479 2.000387 12.194786 1.999477 12.029182 C 1.997657 11.863579 2.006756 11.698886 2.026774 11.534192 C 2.045882 11.370409 2.074999 11.207535 2.114125 11.047392 C 2.154161 10.886338 2.203296 10.728924 2.26244 10.574239 C 2.320674 10.419555 2.389827 10.26942 2.467169 10.123835 C 2.544512 9.97734 2.630953 9.837214 2.726493 9.701638 C 2.821124 9.566061 2.923943 9.436854 3.034952 9.314927 C 3.145961 9.192089 3.264249 9.076531 3.389816 8.969162 M 3.419843 8.88818 C 3.338861 8.766252 3.268798 8.637955 3.209654 8.504199 C 3.15051 8.370442 3.104105 8.232136 3.069529 8.090191 C 3.034952 7.947335 3.013114 7.80357 3.004015 7.657074 C 2.994006 7.511489 2.997646 7.364994 3.014024 7.219409 C 3.030402 7.073823 3.05952 6.930968 3.101375 6.790842 C 3.142321 6.650716 3.196006 6.51423 3.261519 6.383203 C 3.326123 6.252176 3.402555 6.128429 3.489906 6.010141 C 3.577257 5.892763 3.673707 5.783574 3.780167 5.683484 C 3.886626 5.582484 4.001274 5.491493 4.123202 5.411421 C 4.24513 5.33044 4.373427 5.261287 4.508093 5.203052 C 4.642759 5.145728 4.781065 5.099323 4.923921 5.065656 C 5.065867 5.03199 5.210542 5.011062 5.357037 5.002873 C 5.502623 4.994684 5.648208 4.999233 5.793793 5.016521 C 5.939378 5.03381 6.082234 5.063837 6.22236 5.105692 C 6.362486 5.148458 6.498062 5.203052 6.628179 5.268566 C 6.759205 5.334989 6.882953 5.412331 7.000331 5.499682 M 7.237817 5.565196 C 7.198691 5.480574 7.163205 5.394133 7.133178 5.305872 C 7.103151 5.217611 7.078583 5.12753 7.058565 5.036539 C 7.038547 4.945548 7.023079 4.852738 7.01398 4.759927 C 7.003971 4.667117 6.999421 4.574306 7.000331 4.480586 C 7.001241 4.387775 7.0067 4.294964 7.017619 4.202154 C 7.029448 4.109343 7.044917 4.017442 7.066754 3.926452 C 7.088592 3.835461 7.11498 3.74629 7.145916 3.658029 C 7.177763 3.570677 7.214159 3.484236 7.255105 3.400525 C 7.296051 3.316813 7.341547 3.235831 7.391592 3.156669 C 7.441636 3.078417 7.496231 3.002895 7.555375 2.930102 C 7.613609 2.85731 7.676393 2.788157 7.742816 2.722643 C 7.809239 2.65713 7.878392 2.595256 7.952095 2.537022 C 8.025797 2.479698 8.10132 2.426013 8.181392 2.376878 C 8.260554 2.327743 8.342445 2.283158 8.426157 2.242212 C 8.510778 2.202176 8.59722 2.167599 8.685481 2.136662 C 8.773742 2.106636 8.862913 2.081158 8.954813 2.06023 C 9.045804 2.040212 9.137705 2.024744 9.230516 2.014735 C 9.323326 2.004726 9.416137 2.000176 9.509857 2.000176 C 9.602668 2.001086 9.695479 2.006546 9.788289 2.017465 C 9.8811 2.027474 9.973001 2.043852 10.063991 2.06478 C 10.154982 2.085708 10.245063 2.112095 10.332414 2.143032 C 10.420675 2.173969 10.507117 2.210365 10.590828 2.251311 C 10.67454 2.291347 10.756431 2.336842 10.834683 2.386887 C 10.913845 2.436932 10.990278 2.490617 11.06307 2.548851 C 11.135863 2.607085 11.205016 2.669869 11.271439 2.736292 C 11.336953 2.801805 11.398826 2.871868 11.45706 2.944661 C 11.515295 3.017453 11.568979 3.093886 11.618114 3.173048 C 11.668159 3.25221 11.712745 3.334101 11.753691 3.417813 C 11.793726 3.502434 11.829213 3.587966 11.86015 3.676227 C 11.891087 3.764488 11.916564 3.853659 11.937492 3.94465 C 11.95842 4.03655 11.973888 4.128451 11.983897 4.220352 C 11.994816 4.313162 12.000276 4.406883 12.000276 4.499694 L 12.000276 19.999976 M 8.00032 19.999976 C 8.00032 20.131003 8.013059 20.26112 8.038536 20.390327 C 8.064014 20.518624 8.10223 20.644191 8.152275 20.765209 C 8.20232 20.887137 8.264193 21.001785 8.336986 21.110974 C 8.409779 21.220163 8.49258 21.321163 8.585391 21.413973 C 8.678201 21.506784 8.780111 21.589586 8.8893 21.663288 C 8.998489 21.736081 9.113137 21.797955 9.235065 21.848 C 9.356083 21.898045 9.48074 21.936261 9.609947 21.961738 C 9.738244 21.987216 9.868361 21.999954 10.000298 21.999954 C 10.131325 21.999954 10.261441 21.987216 10.389738 21.961738 C 10.518945 21.936261 10.643603 21.898045 10.76553 21.848 C 10.886548 21.797955 11.002106 21.736081 11.111295 21.663288 C 11.220484 21.589586 11.321484 21.506784 11.414295 21.413973 C 11.507105 21.321163 11.589907 21.220163 11.6627 21.110974 C 11.735492 21.001785 11.797366 20.887137 11.847411 20.765209 C 11.898366 20.644191 11.935672 20.518624 11.96115 20.390327 C 11.987537 20.26112 12.000276 20.131003 12.000276 19.999976 M 12.000276 7.000121 C 12.000276 7.196661 12.019384 7.392291 12.0576 7.585192 C 12.095816 7.778092 12.15314 7.966443 12.228662 8.148425 C 12.304185 8.330406 12.396086 8.503289 12.505275 8.667072 C 12.615373 8.830856 12.739121 8.9819 12.878337 9.121116 C 13.017553 9.260332 13.169507 9.38499 13.333291 9.494179 C 13.497074 9.604277 13.669957 9.696178 13.851938 9.771701 C 14.03392 9.847223 14.221361 9.903637 14.415171 9.942763 C 14.608072 9.980979 14.802792 10.000087 15.000242 10.000087 M 20.609825 8.969162 C 20.828203 9.156603 21.023833 9.364972 21.196716 9.595178 C 21.370508 9.825385 21.517003 10.07106 21.637111 10.332204 C 21.757219 10.594257 21.8473 10.86541 21.908264 11.146572 C 21.970138 11.427733 22.000165 11.712534 22.000165 12.000065 C 22.000165 12.703424 21.819093 13.364017 21.499715 13.938169 M 20.579798 8.88818 C 20.66169 8.766252 20.731753 8.637955 20.789987 8.504199 C 20.849131 8.370442 20.895536 8.232136 20.931023 8.090191 C 20.965599 7.947335 20.987437 7.80357 20.996536 7.657074 C 21.005635 7.511489 21.001995 7.364994 20.985617 7.219409 C 20.969239 7.073823 20.940122 6.930968 20.899176 6.790842 C 20.85732 6.650716 20.804545 6.51423 20.739032 6.383203 C 20.673519 6.252176 20.597086 6.128429 20.509735 6.010141 C 20.423294 5.892763 20.325934 5.783574 20.219475 5.683484 C 20.113925 5.582484 19.999277 5.491493 19.877349 5.411421 C 19.754512 5.33044 19.626215 5.261287 19.491548 5.203052 C 19.357792 5.145728 19.218576 5.099323 19.07663 5.065656 C 18.933775 5.03199 18.790009 5.011062 18.643514 5.002873 C 18.497019 4.994684 18.351433 4.999233 18.205848 5.016521 C 18.060263 5.03381 17.917407 5.063837 17.777281 5.105692 C 17.637156 5.148458 17.502489 5.203052 17.371463 5.268566 C 17.241346 5.334989 17.116688 5.412331 17.00022 5.499682 M 12.000276 4.499694 C 12.000276 4.406883 12.004825 4.313162 12.015744 4.220352 C 12.025753 4.128451 12.042131 4.03655 12.062149 3.94465 C 12.083077 3.853659 12.108555 3.764488 12.139492 3.676227 C 12.170428 3.587966 12.205915 3.502434 12.246861 3.417813 C 12.286897 3.334101 12.332392 3.25221 12.381527 3.173048 C 12.430662 3.093886 12.485257 3.017453 12.542581 2.944661 C 12.600815 2.871868 12.662689 2.801805 12.729112 2.736292 C 12.794625 2.669869 12.864688 2.607085 12.937481 2.548851 C 13.010273 2.490617 13.085796 2.436932 13.164958 2.386887 C 13.24412 2.336842 13.325102 2.291347 13.409723 2.251311 C 13.493435 2.210365 13.578966 2.173969 13.667227 2.143032 C 13.755488 2.112095 13.844659 2.085708 13.93565 2.06478 C 14.026641 2.043852 14.118541 2.027474 14.211352 2.017465 C 14.304163 2.006546 14.396973 2.001086 14.490694 2.000176 C 14.583504 2.000176 14.677225 2.004726 14.770036 2.014735 C 14.862846 2.024744 14.954747 2.040212 15.045738 2.06023 C 15.136728 2.081158 15.226809 2.106636 15.31507 2.136662 C 15.403332 2.167599 15.488863 2.202176 15.573484 2.242212 C 15.658106 2.283158 15.739997 2.327743 15.819159 2.376878 C 15.898321 2.426013 15.974754 2.479698 16.047546 2.537022 C 16.121249 2.595256 16.191312 2.65713 16.257735 2.722643 C 16.324158 2.788157 16.386032 2.85731 16.445176 2.930102 C 16.50341 3.002895 16.558005 3.078417 16.60805 3.156669 C 16.658095 3.235831 16.7045 3.316813 16.745446 3.400525 C 16.786392 3.484236 16.822788 3.570677 16.853725 3.658029 C 16.885572 3.74629 16.911959 3.835461 16.932887 3.926452 C 16.954725 4.017442 16.971103 4.109343 16.982022 4.202154 C 16.992941 4.294964 16.99931 4.387775 17.00022 4.480586 C 17.00022 4.574306 16.99658 4.667117 16.986571 4.759927 C 16.976562 4.852738 16.962004 4.945548 16.941986 5.036539 C 16.921968 5.12753 16.896491 5.217611 16.866464 5.305872 C 16.836437 5.394133 16.80186 5.480574 16.761824 5.565196 M 14.000253 21.999954 C 13.868317 21.999954 13.7382 21.987216 13.609903 21.961738 C 13.480696 21.936261 13.356039 21.898045 13.235021 21.848 C 13.113093 21.797955 12.998445 21.736081 12.889256 21.663288 C 12.780067 21.589586 12.679067 21.506784 12.585346 21.413973 C 12.492536 21.321163 12.409734 21.220163 12.336942 21.110974 C 12.264149 21.001785 12.202275 20.887137 12.15223 20.765209 C 12.102185 20.644191 12.063969 20.518624 12.038492 20.390327 C 12.013014 20.26112 12.000276 20.131003 12.000276 19.999976 M 18.667172 16.000021 L 17.00022 18.999988 L 21.000176 18.999988 L 19.333224 21.999954 " transform="matrix(4.293016,0,0,4.293016,0.76387,14.768679)"/><path style="fill:none;stroke-width:2;stroke-linecap:round;stroke-linejoin:round;stroke:#00ffff;stroke-opacity:1;stroke-miterlimit:4;" d="M 6.999958 13.999677 C 6.890769 14.000587 6.78249 14.006046 6.67421 14.017875 C 6.566841 14.029704 6.459472 14.047902 6.353013 14.07156 C 6.246554 14.095217 6.141914 14.124334 6.039095 14.159821 C 5.936275 14.194397 5.835275 14.235343 5.737005 14.280839 C 5.637825 14.327244 5.542285 14.378199 5.449474 14.434613 C 5.356664 14.491027 5.266583 14.551991 5.180142 14.618414 C 5.0937 14.684838 5.010899 14.754901 4.932647 14.830423 C 4.853485 14.905945 4.779782 14.985107 4.709719 15.067909 C 4.639656 15.15162 4.574143 15.238062 4.513179 15.328143 C 4.453125 15.419133 4.397621 15.511944 4.346666 15.608394 C 4.296621 15.704845 4.251125 15.804025 4.211089 15.905024 C 4.171963 16.006024 4.137387 16.109754 4.10918 16.214393 C 4.080973 16.319942 4.058225 16.425492 4.040937 16.532861 C 4.023648 16.64114 4.01273 16.748509 4.00818 16.857698 C 4.002721 16.965977 4.00363 17.075166 4.01 17.183445 C 4.016369 17.291724 4.029108 17.400003 4.047306 17.507372 C 4.066414 17.614741 4.090072 17.720291 4.120099 17.82493 C 4.150126 17.92957 4.185612 18.032389 4.226558 18.133389 C 4.267504 18.233479 4.313909 18.331749 4.365774 18.427289 C 4.417639 18.52374 4.474963 18.61564 4.536837 18.705721 C 4.5978 18.794892 4.665134 18.880423 4.736106 18.963225 C 4.807079 19.045117 4.882602 19.123369 4.962673 19.197981 C 5.041835 19.271684 5.125547 19.340837 5.212898 19.40635 C 5.300249 19.470954 5.39033 19.531008 5.484051 19.586512 C 5.577771 19.641107 5.675131 19.691152 5.774311 19.735737 C 5.873491 19.780322 5.974491 19.819449 6.078221 19.853115 C 6.18195 19.886782 6.28659 19.914989 6.393049 19.936827 C 6.499508 19.959574 6.606877 19.975953 6.715156 19.985962 C 6.823435 19.996881 6.931714 20.00143 7.040903 19.99961 C 7.150092 19.9987 7.258371 19.991421 7.365741 19.977773 C 7.47402 19.965034 7.581389 19.945926 7.686938 19.921358 C 7.793397 19.896791 7.897127 19.865854 7.999946 19.830367 " transform="matrix(4.293016,0,0,4.293016,10.11313,8.442126)"/><path style="fill:none;stroke-width:2;stroke-linecap:round;stroke-linejoin:round;stroke:#00ffff;stroke-opacity:1;stroke-miterlimit:4;" d="M 4.263864 15.604755 C 4.114639 15.532872 3.970874 15.4528 3.831658 15.362719 C 3.692442 15.273548 3.559595 15.175278 3.433118 15.069729 C 3.305731 14.96327 3.186533 14.849531 3.073704 14.728513 C 2.960876 14.607495 2.856236 14.480108 2.758876 14.346352 C 2.661516 14.212595 2.573255 14.07247 2.494093 13.927794 C 2.414021 13.783119 2.343958 13.633894 2.282994 13.480119 C 2.221121 13.326345 2.170166 13.168931 2.12831 13.009697 C 2.086454 12.849553 2.054608 12.68759 2.03368 12.522896 C 2.011842 12.359113 2.000013 12.194419 1.999103 12.028816 C 1.998193 11.864123 2.007292 11.69852 2.0264 11.534736 C 2.045508 11.370043 2.074625 11.208079 2.114661 11.047025 C 2.153787 10.886882 2.202923 10.729468 2.262067 10.574783 C 2.321211 10.420099 2.389454 10.269964 2.466796 10.123469 C 2.545048 9.977884 2.630579 9.836848 2.72612 9.701272 C 2.82075 9.566605 2.92448 9.437398 3.035488 9.314561 C 3.146497 9.191723 3.264785 9.077075 3.390352 8.968796 M 3.420379 8.887814 C 3.338488 8.765886 3.268425 8.638499 3.209281 8.504742 C 3.151047 8.370076 3.103731 8.23177 3.069155 8.089824 C 3.034578 7.947879 3.012741 7.803203 3.003642 7.657618 C 2.994542 7.511123 2.998182 7.365538 3.01456 7.219952 C 3.030939 7.074367 3.059146 6.931512 3.101002 6.790476 C 3.142857 6.65035 3.195632 6.514774 3.261146 6.383747 C 3.326659 6.25272 3.403091 6.128063 3.489532 6.010685 C 3.576884 5.893307 3.674244 5.784118 3.779793 5.683118 C 3.886252 5.582118 4.000901 5.492037 4.122828 5.411055 C 4.245666 5.330983 4.373963 5.26183 4.507719 5.203596 C 4.642386 5.145362 4.780692 5.099867 4.923547 5.0662 C 5.066403 5.032534 5.210168 5.011606 5.356664 5.003416 C 5.503159 4.994317 5.648744 4.998867 5.794329 5.016155 C 5.939005 5.033443 6.08186 5.06347 6.221986 5.106236 C 6.362112 5.148092 6.497688 5.202686 6.628715 5.26911 C 6.758832 5.334623 6.882579 5.411965 6.999958 5.500226 M 7.238353 5.56483 C 7.198317 5.480208 7.163741 5.393767 7.132804 5.305506 C 7.102777 5.217245 7.07821 5.127164 7.058192 5.036173 C 7.038174 4.945182 7.023615 4.853282 7.013606 4.760471 C 7.003597 4.66766 6.999048 4.57394 6.999958 4.481129 C 7.000867 4.387409 7.006327 4.294598 7.018156 4.201788 C 7.029075 4.108977 7.045453 4.017076 7.066381 3.926995 C 7.088219 3.836005 7.114606 3.745924 7.146453 3.658572 C 7.17739 3.570311 7.213786 3.48478 7.254732 3.401068 C 7.295678 3.317357 7.341173 3.235465 7.392128 3.157213 C 7.442173 3.078051 7.495857 3.002529 7.555001 2.929736 C 7.613236 2.856944 7.676019 2.787791 7.742442 2.722277 C 7.808866 2.656764 7.878929 2.59489 7.951721 2.537566 C 8.025424 2.479332 8.101856 2.425647 8.181018 2.376512 C 8.26018 2.327377 8.342072 2.282792 8.426693 2.242756 C 8.510405 2.20272 8.596846 2.167233 8.685107 2.137206 C 8.773368 2.106269 8.863449 2.080792 8.95444 2.060774 C 9.045431 2.040756 9.137331 2.025288 9.230142 2.015279 C 9.322953 2.00527 9.415763 1.99981 9.509484 2.00072 C 9.603204 2.00072 9.696015 2.00618 9.788826 2.017098 C 9.881636 2.028017 9.973537 2.043486 10.064528 2.065324 C 10.155518 2.086251 10.244689 2.111729 10.332951 2.143576 C 10.420302 2.174513 10.506743 2.209999 10.590455 2.250945 C 10.675076 2.291891 10.756058 2.336476 10.83522 2.386521 C 10.914382 2.436566 10.989904 2.49116 11.062697 2.549395 C 11.135489 2.607629 11.204642 2.669502 11.271066 2.735926 C 11.336579 2.802349 11.398453 2.871502 11.456687 2.944295 C 11.514921 3.017997 11.568606 3.09352 11.618651 3.172682 C 11.667786 3.251844 11.713281 3.333735 11.753317 3.417447 C 11.794263 3.502068 11.829749 3.58851 11.860686 3.676771 C 11.890713 3.764122 11.9171 3.854203 11.937118 3.945193 C 11.958046 4.036184 11.973515 4.128085 11.984434 4.220896 C 11.994443 4.313706 11.999902 4.406517 11.999902 4.500237 L 11.999902 19.99961 M 7.999946 19.99961 C 7.999946 20.131547 8.012685 20.261664 8.038163 20.389961 C 8.06364 20.519168 8.101856 20.643825 8.151901 20.765753 C 8.202856 20.886771 8.26382 21.002329 8.336612 21.111518 C 8.410315 21.220707 8.493117 21.321707 8.585927 21.414517 C 8.678738 21.507328 8.779738 21.59013 8.888927 21.662922 C 8.998115 21.735715 9.113674 21.797589 9.234692 21.847633 C 9.355709 21.897678 9.481277 21.935895 9.609574 21.961372 C 9.738781 21.986849 9.868897 21.999588 9.999924 21.999588 C 10.130951 21.999588 10.261068 21.986849 10.390275 21.961372 C 10.518572 21.935895 10.644139 21.897678 10.765157 21.847633 C 10.887085 21.797589 11.001733 21.735715 11.110922 21.662922 C 11.220111 21.59013 11.321111 21.507328 11.413921 21.414517 C 11.506732 21.321707 11.589533 21.220707 11.663236 21.111518 C 11.736029 21.002329 11.797902 20.886771 11.847947 20.765753 C 11.897992 20.643825 11.936208 20.519168 11.961686 20.389961 C 11.987163 20.261664 11.999902 20.131547 11.999902 19.99961 M 11.999902 6.999755 C 11.999902 7.197205 12.01901 7.391925 12.057226 7.584826 C 12.096352 7.778636 12.152767 7.966077 12.228289 8.148059 C 12.303811 8.33004 12.395712 8.502923 12.505811 8.666706 C 12.615 8.83049 12.739657 8.982444 12.878873 9.12166 C 13.018089 9.260876 13.169134 9.384624 13.332917 9.494722 C 13.496701 9.603911 13.669583 9.695812 13.851565 9.771334 C 14.033546 9.846857 14.221897 9.904181 14.414798 9.942397 C 14.607698 9.980613 14.803329 9.999721 14.999869 9.999721 M 20.610361 8.968796 C 20.828739 9.156237 21.02437 9.365515 21.197252 9.594812 C 21.370135 9.825019 21.51663 10.070694 21.636738 10.332748 C 21.756846 10.593891 21.846926 10.865044 21.9088 11.146205 C 21.969764 11.427367 22.000701 11.712168 21.999791 11.999699 C 21.999791 12.703058 21.818719 13.363651 21.500251 13.937803 M 20.580334 8.887814 C 20.661316 8.765886 20.731379 8.638499 20.790523 8.504742 C 20.849667 8.370076 20.896073 8.23177 20.930649 8.089824 C 20.965226 7.947879 20.987063 7.803203 20.996162 7.657618 C 21.005262 7.511123 21.002532 7.365538 20.986153 7.219952 C 20.969775 7.074367 20.940658 6.931512 20.898802 6.790476 C 20.857856 6.65035 20.804172 6.514774 20.738658 6.383747 C 20.673145 6.25272 20.597623 6.128063 20.510272 6.010685 C 20.42292 5.893307 20.32647 5.784118 20.220011 5.683118 C 20.113552 5.582118 19.998903 5.492037 19.876976 5.411055 C 19.755048 5.330983 19.625841 5.26183 19.492085 5.203596 C 19.357418 5.145362 19.219112 5.099867 19.076257 5.0662 C 18.934311 5.032534 18.789636 5.011606 18.64314 5.003416 C 18.497555 4.994317 18.35106 4.998867 18.206384 5.016155 C 18.060799 5.033443 17.917944 5.06347 17.777818 5.106236 C 17.637692 5.148092 17.502116 5.202686 17.371089 5.26911 C 17.240972 5.334623 17.117225 5.411965 16.999846 5.500226 M 11.999902 4.500237 C 11.999902 4.406517 12.005361 4.313706 12.01537 4.220896 C 12.026289 4.128085 12.041758 4.036184 12.062686 3.945193 C 12.083614 3.854203 12.109091 3.764122 12.140028 3.676771 C 12.170055 3.58851 12.206451 3.502068 12.246487 3.417447 C 12.286523 3.333735 12.332018 3.251844 12.381153 3.172682 C 12.431198 3.09352 12.484883 3.017997 12.543117 2.944295 C 12.601351 2.871502 12.663225 2.802349 12.728738 2.735926 C 12.795162 2.669502 12.864315 2.607629 12.937107 2.549395 C 13.0099 2.49116 13.086332 2.436566 13.164584 2.386521 C 13.243746 2.336476 13.325638 2.291891 13.409349 2.250945 C 13.493061 2.209999 13.579502 2.174513 13.667763 2.143576 C 13.755115 2.111729 13.845195 2.086251 13.936186 2.065324 C 14.027177 2.043486 14.118168 2.028017 14.210978 2.017098 C 14.303789 2.00618 14.39751 2.00072 14.49032 2.00072 C 14.584041 1.99981 14.676851 2.00527 14.769662 2.015279 C 14.862473 2.025288 14.954373 2.040756 15.045364 2.060774 C 15.136355 2.080792 15.226436 2.106269 15.314697 2.137206 C 15.402958 2.167233 15.489399 2.20272 15.573111 2.242756 C 15.657732 2.282792 15.739624 2.327377 15.818786 2.376512 C 15.897948 2.425647 15.97438 2.479332 16.048083 2.537566 C 16.120875 2.59489 16.190938 2.656764 16.257362 2.722277 C 16.323785 2.787791 16.386568 2.856944 16.444803 2.929736 C 16.503947 3.002529 16.558541 3.078051 16.608586 3.157213 C 16.658631 3.235465 16.704126 3.317357 16.745072 3.401068 C 16.786018 3.48478 16.822414 3.570311 16.854261 3.658572 C 16.885198 3.745924 16.911585 3.836005 16.933423 3.926995 C 16.954351 4.017076 16.970729 4.108977 16.982558 4.201788 C 16.993477 4.294598 16.998937 4.387409 16.999846 4.481129 C 17.000756 4.57394 16.996207 4.66766 16.986198 4.760471 C 16.977099 4.853282 16.96163 4.945182 16.941612 5.036173 C 16.921594 5.127164 16.897027 5.217245 16.867 5.305506 C 16.836973 5.393767 16.801487 5.480208 16.76236 5.56483 M 13.99988 21.999588 C 13.868853 21.999588 13.738736 21.986849 13.609529 21.961372 C 13.481232 21.935895 13.355665 21.897678 13.234647 21.847633 C 13.113629 21.797589 12.998071 21.735715 12.888882 21.662922 C 12.779693 21.59013 12.678693 21.507328 12.585883 21.414517 C 12.493072 21.321707 12.410271 21.220707 12.337478 21.111518 C 12.263775 21.002329 12.202811 20.886771 12.151857 20.765753 C 12.101812 20.643825 12.063596 20.519168 12.038118 20.389961 C 12.012641 20.261664 11.999902 20.131547 11.999902 19.99961 M 18.666798 15.999655 L 16.999846 18.999621 L 20.999802 18.999621 L 19.332851 21.999588 " transform="matrix(4.293016,0,0,4.293016,10.11313,8.442126)"/><path style="fill:none;stroke-width:3;stroke-linecap:round;stroke-linejoin:round;stroke:#000000;stroke-opacity:1;stroke-miterlimit:4;" d="M 6.999876 14.000056 C 6.891597 14.000056 6.782408 14.006426 6.674129 14.018255 C 6.56676 14.030083 6.459391 14.048282 6.352931 14.071939 C 6.246472 14.095597 6.141833 14.124714 6.039013 14.15929 C 5.936194 14.194777 5.835194 14.234813 5.736924 14.281218 C 5.637744 14.326713 5.542203 14.378578 5.449393 14.434992 C 5.356582 14.491407 5.266501 14.552371 5.18006 14.618794 C 5.093619 14.684307 5.010817 14.75528 4.932565 14.830802 C 4.853403 14.905415 4.779701 14.984577 4.709638 15.068288 C 4.639575 15.15109 4.574061 15.238441 4.513097 15.328522 C 4.453044 15.418603 4.397539 15.512324 4.346584 15.608774 C 4.296539 15.705224 4.251044 15.803494 4.211008 15.905404 C 4.171882 16.006404 4.137305 16.109223 4.109098 16.214772 C 4.080891 16.319412 4.058143 16.425871 4.040855 16.53324 C 4.024477 16.640609 4.012648 16.748888 4.008099 16.857168 C 4.002639 16.966356 4.003549 17.074636 4.009918 17.183825 C 4.016288 17.292104 4.029026 17.400383 4.047225 17.506842 C 4.066333 17.614211 4.08999 17.72067 4.120017 17.82531 C 4.150044 17.929949 4.185531 18.031859 4.226476 18.132859 C 4.267422 18.233858 4.313828 18.332128 4.365692 18.427669 C 4.417557 18.523209 4.474881 18.61602 4.536755 18.705191 C 4.598629 18.795272 4.665052 18.880803 4.736025 18.963605 C 4.806998 19.045496 4.88252 19.123748 4.962592 19.197451 C 5.041754 19.272063 5.125466 19.341216 5.212817 19.40582 C 5.300168 19.471333 5.390249 19.531387 5.483969 19.585982 C 5.5786 19.641486 5.67505 19.691531 5.77423 19.736116 C 5.87341 19.780702 5.97441 19.819828 6.078139 19.853495 C 6.181869 19.887161 6.286508 19.914458 6.392967 19.937206 C 6.499427 19.959044 6.606796 19.975422 6.715075 19.986341 C 6.823354 19.99635 6.932543 20.0009 7.040822 19.99999 C 7.150011 19.99817 7.25829 19.990891 7.366569 19.978152 C 7.473938 19.965413 7.581307 19.946305 7.686857 19.921738 C 7.793316 19.89626 7.897045 19.866233 7.999865 19.829837 " transform="matrix(4.293016,0,0,4.293016,6.367386,12.780341)"/><path style="fill:none;stroke-width:3;stroke-linecap:round;stroke-linejoin:round;stroke:#000000;stroke-opacity:1;stroke-miterlimit:4;" d="M 4.263783 15.605134 C 4.114558 15.533251 3.970792 15.45227 3.831576 15.363099 C 3.69327 15.273018 3.559514 15.175658 3.433037 15.069198 C 3.306559 14.963649 3.186452 14.84991 3.073623 14.728893 C 2.960794 14.607875 2.856155 14.480488 2.758795 14.346731 C 2.661435 14.212065 2.573174 14.072849 2.494012 13.928174 C 2.41394 13.782588 2.343877 13.633363 2.282913 13.479589 C 2.221039 13.325815 2.170084 13.16931 2.128229 13.009167 C 2.086373 12.849023 2.054526 12.687059 2.033598 12.523276 C 2.01176 12.359492 1.999932 12.194799 1.999022 12.029196 C 1.998112 11.863592 2.007211 11.698899 2.026319 11.534206 C 2.045427 11.370422 2.075454 11.207549 2.11458 11.047405 C 2.153706 10.886351 2.202841 10.728937 2.261985 10.574253 C 2.321129 10.419568 2.389372 10.269434 2.466714 10.123848 C 2.544966 9.977353 2.631408 9.837227 2.726038 9.701651 C 2.821579 9.566075 2.924398 9.436868 3.035407 9.31494 C 3.146416 9.192103 3.264704 9.076544 3.390271 8.969175 M 3.420298 8.888193 C 3.338406 8.766266 3.268343 8.637969 3.209199 8.504212 C 3.150965 8.370456 3.10365 8.23215 3.069073 8.090204 C 3.034497 7.947348 3.012659 7.803583 3.00356 7.657088 C 2.994461 7.511502 2.998101 7.365007 3.014479 7.219422 C 3.030857 7.073837 3.059064 6.930981 3.10092 6.790855 C 3.142776 6.650729 3.195551 6.514243 3.261064 6.383217 C 3.326577 6.25219 3.40301 6.128442 3.489451 6.010154 C 3.576802 5.892776 3.674162 5.783587 3.780622 5.683497 C 3.886171 5.582497 4.000819 5.491507 4.122747 5.411435 C 4.245585 5.330453 4.373882 5.2613 4.508548 5.203066 C 4.642304 5.145742 4.78152 5.099336 4.923466 5.06567 C 5.066322 5.032003 5.210087 5.011075 5.356582 5.002886 C 5.503077 4.994697 5.648663 4.999246 5.794248 5.016535 C 5.939833 5.033823 6.081779 5.06385 6.221905 5.105706 C 6.362031 5.148471 6.497607 5.203066 6.628634 5.268579 C 6.75875 5.335002 6.882498 5.412345 6.999876 5.499696 M 7.238272 5.565209 C 7.198236 5.480588 7.16366 5.394146 7.133633 5.305885 C 7.103606 5.217624 7.078128 5.127543 7.05811 5.036553 C 7.038092 4.945562 7.023534 4.852751 7.013525 4.759941 C 7.003516 4.66713 6.998966 4.574319 6.999876 4.480599 C 7.000786 4.387788 7.007155 4.294978 7.018074 4.202167 C 7.028993 4.109356 7.045371 4.017456 7.067209 3.926465 C 7.088137 3.835474 7.114524 3.746303 7.146371 3.658042 C 7.177308 3.570691 7.213704 3.48425 7.25465 3.400538 C 7.295596 3.316827 7.341092 3.235845 7.392046 3.156683 C 7.442091 3.078431 7.496686 3.002908 7.55492 2.930116 C 7.613154 2.857323 7.675938 2.78817 7.742361 2.722657 C 7.808784 2.657143 7.878847 2.595269 7.95164 2.537035 C 8.025342 2.479711 8.101775 2.426027 8.180937 2.376892 C 8.260099 2.327757 8.34199 2.283171 8.426612 2.242225 C 8.510323 2.202189 8.596765 2.167613 8.685026 2.136676 C 8.773287 2.106649 8.863368 2.081171 8.954358 2.060244 C 9.045349 2.040226 9.13725 2.024757 9.230061 2.014748 C 9.322871 2.004739 9.416592 2.00019 9.509402 2.00019 C 9.603123 2.0011 9.695933 2.006559 9.788744 2.017478 C 9.881555 2.027487 9.973455 2.043865 10.064446 2.064793 C 10.155437 2.085721 10.244608 2.112108 10.332869 2.143045 C 10.42113 2.173982 10.506662 2.210378 10.590373 2.251324 C 10.674994 2.29136 10.755976 2.336856 10.835138 2.386901 C 10.9143 2.436945 10.989823 2.49063 11.062615 2.548864 C 11.135408 2.607098 11.205471 2.669882 11.270984 2.736305 C 11.336498 2.801819 11.399281 2.871882 11.456605 2.944674 C 11.51484 3.017467 11.568524 3.093899 11.618569 3.173061 C 11.667704 3.252223 11.7132 3.334115 11.753235 3.417826 C 11.794181 3.502448 11.829668 3.587979 11.860605 3.67624 C 11.890632 3.764501 11.917019 3.853672 11.937947 3.944663 C 11.957965 4.036564 11.973433 4.128464 11.984352 4.220365 C 11.994361 4.313176 11.999821 4.406896 11.999821 4.499707 L 11.999821 19.99999 M 7.999865 19.99999 C 7.999865 20.131017 8.012604 20.261133 8.038081 20.39034 C 8.064468 20.518637 8.101775 20.644205 8.15182 20.765222 C 8.202774 20.88624 8.263738 21.001798 8.337441 21.110987 C 8.410233 21.220176 8.493035 21.321176 8.585846 21.413987 C 8.678656 21.506797 8.779656 21.589599 8.888845 21.663302 C 8.998034 21.736094 9.113592 21.797058 9.23461 21.848013 C 9.355628 21.898058 9.481195 21.936274 9.609492 21.961751 C 9.738699 21.987229 9.868816 21.999968 9.999843 21.999968 C 10.13087 21.999968 10.260986 21.987229 10.390193 21.961751 C 10.5194 21.936274 10.644058 21.898058 10.765075 21.848013 C 10.887003 21.797058 11.001651 21.736094 11.11084 21.663302 C 11.220029 21.589599 11.321029 21.506797 11.41384 21.413987 C 11.50665 21.321176 11.590362 21.220176 11.663155 21.110987 C 11.735947 21.001798 11.797821 20.88624 11.847866 20.765222 C 11.897911 20.644205 11.936127 20.518637 11.961604 20.39034 C 11.987082 20.261133 11.999821 20.131017 11.999821 19.99999 M 11.999821 7.000134 C 11.999821 7.196674 12.018929 7.392304 12.058055 7.585205 C 12.096271 7.778105 12.152685 7.966456 12.228207 8.148438 C 12.30373 8.33042 12.39654 8.503302 12.505729 8.667086 C 12.614918 8.830869 12.739576 8.981914 12.878792 9.12113 C 13.018008 9.260346 13.169052 9.385003 13.332836 9.494192 C 13.496619 9.604291 13.670412 9.696192 13.852393 9.771714 C 14.034375 9.847236 14.221816 9.903651 14.414716 9.942777 C 14.607617 9.980993 14.803247 10.000101 14.999787 10.000101 M 20.61028 8.969175 C 20.828658 9.156616 21.024288 9.364985 21.197171 9.595192 C 21.370053 9.825398 21.516548 10.071074 21.636656 10.332217 C 21.756764 10.594271 21.847755 10.865423 21.908719 11.146585 C 21.969683 11.427746 22.000619 11.712548 21.99971 12.000079 C 21.99971 12.703437 21.818638 13.364031 21.50017 13.938183 M 20.580253 8.888193 C 20.661235 8.766266 20.731298 8.637969 20.790442 8.504212 C 20.849586 8.370456 20.895991 8.23215 20.930568 8.090204 C 20.965144 7.947348 20.986982 7.803583 20.996081 7.657088 C 21.00609 7.511502 21.00245 7.365007 20.986072 7.219422 C 20.969694 7.073837 20.940577 6.930981 20.898721 6.790855 C 20.857775 6.650729 20.80409 6.514243 20.738577 6.383217 C 20.673974 6.25219 20.597541 6.128442 20.51019 6.010154 C 20.422839 5.892776 20.326389 5.783587 20.219929 5.683497 C 20.11347 5.582497 19.998822 5.491507 19.876894 5.411435 C 19.754966 5.330453 19.626669 5.2613 19.492003 5.203066 C 19.357337 5.145742 19.219031 5.099336 19.076175 5.06567 C 18.934229 5.032003 18.789554 5.011075 18.643059 5.002886 C 18.497474 4.994697 18.350978 4.999246 18.206303 5.016535 C 18.060718 5.033823 17.917862 5.06385 17.777736 5.105706 C 17.637611 5.148471 17.502034 5.203066 17.371917 5.268579 C 17.240891 5.335002 17.117143 5.412345 16.999765 5.499696 M 11.999821 4.499707 C 11.999821 4.406896 12.00528 4.313176 12.015289 4.220365 C 12.026208 4.128464 12.041676 4.036564 12.062604 3.944663 C 12.083532 3.853672 12.10901 3.764501 12.139946 3.67624 C 12.170883 3.587979 12.20637 3.502448 12.246406 3.417826 C 12.287351 3.334115 12.331937 3.252223 12.381072 3.173061 C 12.431117 3.093899 12.484802 3.017467 12.543036 2.944674 C 12.60127 2.871882 12.663143 2.801819 12.728657 2.736305 C 12.79508 2.669882 12.864233 2.607098 12.937026 2.548864 C 13.009818 2.49063 13.086251 2.436945 13.164503 2.386901 C 13.243665 2.336856 13.325557 2.29136 13.409268 2.251324 C 13.49298 2.210378 13.579421 2.173982 13.667682 2.143045 C 13.755033 2.112108 13.845114 2.085721 13.936105 2.064793 C 14.027096 2.043865 14.118996 2.027487 14.210897 2.017478 C 14.303708 2.006559 14.397428 2.0011 14.490239 2.00019 C 14.583959 2.00019 14.67677 2.004739 14.769581 2.014748 C 14.862391 2.024757 14.954292 2.040226 15.045283 2.060244 C 15.137183 2.081171 15.226354 2.106649 15.314615 2.136676 C 15.402876 2.167613 15.489318 2.202189 15.573939 2.242225 C 15.657651 2.283171 15.739542 2.327757 15.818704 2.376892 C 15.897866 2.426027 15.974299 2.479711 16.048001 2.537035 C 16.120794 2.595269 16.190857 2.657143 16.25728 2.722657 C 16.323703 2.78817 16.386487 2.857323 16.444721 2.930116 C 16.503865 3.002908 16.55846 3.078431 16.608505 3.156683 C 16.65855 3.235845 16.704045 3.316827 16.744991 3.400538 C 16.785937 3.48425 16.822333 3.570691 16.85418 3.658042 C 16.885117 3.746303 16.911504 3.835474 16.933342 3.926465 C 16.95427 4.017456 16.970648 4.109356 16.982477 4.202167 C 16.993396 4.294978 16.998855 4.387788 16.999765 4.480599 C 17.000675 4.574319 16.996125 4.66713 16.986116 4.759941 C 16.977017 4.852751 16.961549 4.945562 16.941531 5.036553 C 16.921513 5.127543 16.896945 5.217624 16.866918 5.305885 C 16.836891 5.394146 16.801405 5.480588 16.762279 5.565209 M 13.999798 21.999968 C 13.868772 21.999968 13.738655 21.987229 13.609448 21.961751 C 13.481151 21.936274 13.355583 21.898058 13.234566 21.848013 C 13.113548 21.797058 12.99799 21.736094 12.888801 21.663302 C 12.779612 21.589599 12.678612 21.506797 12.585801 21.413987 C 12.492991 21.321176 12.410189 21.220176 12.337396 21.110987 C 12.263694 21.001798 12.20273 20.88624 12.152685 20.765222 C 12.10173 20.644205 12.064424 20.518637 12.038037 20.39034 C 12.012559 20.261133 11.999821 20.131017 11.999821 19.99999 M 18.666716 16.000034 L 16.999765 19.000001 L 20.999721 19.000001 L 19.332769 21.999968 " transform="matrix(4.293016,0,0,4.293016,6.367386,12.780341)"/></g></g></g></svg>