<svg xmlns="http://www.w3.org/2000/svg" viewBox="0 0 80 80"><path fill="#fffae6" d="M23.638 14.352h32.926a8.442 8.442 0 0 1 8.442 8.442V55.72a8.442 8.442 0 0 1-8.442 8.442H23.638a8.442 8.442 0 0 1-8.442-8.442V22.794a8.442 8.442 0 0 1 8.442-8.442Z"/><path d="M23.638 18.573a4.226 4.226 0 0 0-4.221 4.221V55.72a4.226 4.226 0 0 0 4.221 4.221h32.926a4.226 4.226 0 0 0 4.221-4.221V22.794a4.226 4.226 0 0 0-4.221-4.221H23.638m0-4.221h32.926a8.442 8.442 0 0 1 8.442 8.442V55.72a8.442 8.442 0 0 1-8.442 8.442H23.638a8.442 8.442 0 0 1-8.442-8.442V22.794a8.442 8.442 0 0 1 8.442-8.442Z"/><path d="M37.311 51.741a3.214 3.214 0 0 0 2.845-1.4l12.166-18.068a3.826 3.826 0 0 0 .491-1.016 3.376 3.376 0 0 0 .154-.974 2.917 2.917 0 0 0-.911-2.193 3.147 3.147 0 0 0-2.271-.876 3.115 3.115 0 0 0-1.556.364 3.627 3.627 0 0 0-1.205 1.233l-9.769 15.268-4.835-5.578a3.053 3.053 0 0 0-2.4-1.065 3.085 3.085 0 0 0-2.257.883 2.962 2.962 0 0 0-.9 2.2 3.143 3.143 0 0 0 .2 1.121 3.572 3.572 0 0 0 .715 1.093l6.814 7.816a3.458 3.458 0 0 0 2.719 1.192Z"/><path d="M20.484 16h39l2 6-5.225-1H23.962l-5.478 1Z" opacity=".2"/></svg>