<svg xmlns="http://www.w3.org/2000/svg" viewBox="0 0 80 80"><path fill="#c6ea84" d="M27.86 15.196h24.482A12.664 12.664 0 0 1 65.006 27.86v24.482a12.664 12.664 0 0 1-12.664 12.664H27.86a12.664 12.664 0 0 1-12.664-12.664V27.86A12.664 12.664 0 0 1 27.86 15.196Z"/><path d="M27.86 55.196h24.482c6.994 0 10.664-7.33 10.664-.336-.33-.19-3.67 10.146-10.664 10.146H27.86c-6.994 0-11.826-10.426-11.664-10.146 0-6.994 4.67.336 11.664.336Z" opacity=".193"/><path d="M27.86 19.417a8.452 8.452 0 0 0-8.442 8.442v24.483a8.452 8.452 0 0 0 8.442 8.442h24.482a8.452 8.452 0 0 0 8.442-8.442V27.86a8.452 8.452 0 0 0-8.442-8.442H27.86m0-4.221h24.482A12.664 12.664 0 0 1 65.006 27.86v24.482a12.664 12.664 0 0 1-12.664 12.664H27.86a12.664 12.664 0 0 1-12.664-12.664V27.86A12.664 12.664 0 0 1 27.86 15.196Z"/></svg>