<svg xmlns="http://www.w3.org/2000/svg" viewBox="0 0 80 80"><path fill="#fffae6" d="M18.573 17.729h42.212a8.442 8.442 0 0 1 8.446 8.442v27.858a8.442 8.442 0 0 1-8.442 8.442H18.573a8.442 8.442 0 0 1-8.442-8.442V26.171a8.442 8.442 0 0 1 8.442-8.442Z"/><path d="M23.44 50.068a2.466 2.466 0 0 1-1.464-.413 1.765 1.765 0 0 1-.728-1.124 2.607 2.607 0 0 1 .257-1.6l6.946-14.928a3.792 3.792 0 0 1 1.236-1.594 2.9 2.9 0 0 1 1.682-.5 2.846 2.846 0 0 1 1.663.5 3.829 3.829 0 0 1 1.223 1.592l6.956 14.928a2.7 2.7 0 0 1 .3 1.624 1.676 1.676 0 0 1-.684 1.116 2.372 2.372 0 0 1-1.413.4 2.555 2.555 0 0 1-1.7-.51 4.337 4.337 0 0 1-1.079-1.628l-1.509-3.513 1.967 1.42h-11.49l1.967-1.42-1.5 3.513a4.988 4.988 0 0 1-1.019 1.633 2.268 2.268 0 0 1-1.611.504Zm7.871-14.551-3.224 7.712-.8-1.336H35.4l-.786 1.336-3.252-7.712Zm17.702 14.607a6.363 6.363 0 0 1-2.8-.589 4.666 4.666 0 0 1-1.9-1.608 4.074 4.074 0 0 1-.683-2.317 3.422 3.422 0 0 1 .78-2.373 4.631 4.631 0 0 1 2.517-1.25 22.291 22.291 0 0 1 4.6-.381h1.538v2.344h-1.543a8.34 8.34 0 0 0-1.789.158 2.2 2.2 0 0 0-1.036.473 1.083 1.083 0 0 0-.334.826 1.384 1.384 0 0 0 .454 1.068 1.9 1.9 0 0 0 1.329.416 2.446 2.446 0 0 0 1.23-.31 2.363 2.363 0 0 0 .87-.855 2.426 2.426 0 0 0 .329-1.274V41.23a1.742 1.742 0 0 0-.506-1.428 2.863 2.863 0 0 0-1.759-.409 8.479 8.479 0 0 0-1.51.151 11.543 11.543 0 0 0-1.875.535 1.882 1.882 0 0 1-1.28.077 1.54 1.54 0 0 1-.823-.655 1.859 1.859 0 0 1-.276-1.02 1.933 1.933 0 0 1 .356-1.071 2.134 2.134 0 0 1 1.09-.777 12.608 12.608 0 0 1 2.456-.672 13.532 13.532 0 0 1 2.08-.18 9.352 9.352 0 0 1 3.773.657 4.545 4.545 0 0 1 2.221 2.013 7.2 7.2 0 0 1 .739 3.465v5.637a2.684 2.684 0 0 1-.587 1.866 2.186 2.186 0 0 1-1.7.646 2.231 2.231 0 0 1-1.719-.646 2.643 2.643 0 0 1-.6-1.866v-.712l.169.373a3.273 3.273 0 0 1-.65 1.534 3.44 3.44 0 0 1-1.31 1.012 4.423 4.423 0 0 1-1.851.364Z"/><path d="M15.122 19.019h48.824l2.5 6-6.537-1H19.48l-6.858 1Z" opacity=".2"/><path d="M18.573 21.95a4.226 4.226 0 0 0-4.221 4.221v27.858a4.226 4.226 0 0 0 4.221 4.221h42.212a4.226 4.226 0 0 0 4.221-4.221V26.171a4.226 4.226 0 0 0-4.221-4.221H18.573m0-4.221h42.212a8.442 8.442 0 0 1 8.446 8.442v27.858a8.442 8.442 0 0 1-8.442 8.442H18.573a8.442 8.442 0 0 1-8.442-8.442V26.171a8.442 8.442 0 0 1 8.442-8.442Z"/></svg>